<svg width="16" height="16" viewBox="0 0 16 16" fill="none" xmlns="http://www.w3.org/2000/svg">
<path d="M7.14004 3.03802C7.38549 2.17092 8.61451 2.17092 8.85996 3.03801L9.62892 5.75454C9.71345 6.05316 9.94684 6.28655 10.2455 6.37108L12.962 7.14004C13.8291 7.38549 13.8291 8.61451 12.962 8.85996L10.2455 9.62892C9.94684 9.71345 9.71345 9.94684 9.62892 10.2455L8.85996 12.962C8.61451 13.8291 7.38549 13.8291 7.14004 12.962L6.37108 10.2455C6.28655 9.94684 6.05316 9.71345 5.75455 9.62892L3.03802 8.85996C2.17092 8.61451 2.17092 7.38549 3.03801 7.14004L5.75454 6.37108C6.05316 6.28655 6.28655 6.05316 6.37108 5.75455L7.14004 3.03802Z" fill="#63B017"/>
</svg>
