<svg width="22" height="23" viewBox="0 0 22 23" fill="none" xmlns="http://www.w3.org/2000/svg">
<g clip-path="url(#clip0_2818_4871)">
<path d="M1.57768 5.10284L10.3149 0.204859C10.564 0.0744946 10.8706 9.46415e-07 11.1963 9.17939e-07C11.522 8.89463e-07 11.8286 0.0744945 12.0777 0.204859L20.8149 5.10283C21.3131 5.40081 21.6963 6.03401 21.6963 6.59271L21.6963 16.4073C21.6963 16.9846 21.3131 17.6178 20.8149 17.8972L12.0777 22.7951C11.8286 22.9255 11.522 23 11.1963 23C10.8706 23 10.5448 22.9255 10.3149 22.7951L1.57769 17.8972C1.07951 17.5992 0.696298 16.966 0.696298 16.4073L0.696297 6.59271C0.696297 6.01539 1.07951 5.38219 1.57768 5.10284ZM1.76929 16.3887C1.76929 16.5749 1.94174 16.8729 2.11418 16.966L10.8514 21.864C11.0047 21.9571 11.3879 21.9571 11.5412 21.864L20.2784 16.966C20.4509 16.8729 20.6233 16.5749 20.6233 16.3887L20.6233 6.57409C20.6233 6.38785 20.4509 6.08988 20.2784 5.99676L11.5412 1.09879C11.4645 1.04292 11.3304 1.02429 11.1963 1.02429C11.0622 1.02429 10.928 1.06154 10.8514 1.09879L2.11418 5.99676C1.94174 6.08988 1.76929 6.38785 1.76929 6.57409L1.76929 16.3887Z" fill="#63B017"/>
<path d="M4.01113 10.9505C4.50931 10.3732 4.96916 9.94484 5.35237 9.59099C4.68175 9.06954 4.16442 8.43634 4.16442 7.3748C4.16442 6.27601 4.96916 5.40071 5.98467 5.40071C6.96186 5.40071 7.70913 6.29464 7.70913 7.3748C7.70913 8.36184 7.42172 8.9578 6.98102 9.47925C7.32591 9.72136 7.68996 10.0007 8.07318 10.3546C8.87792 9.59099 9.64434 9.10678 10.2575 8.69707C9.54854 8.08249 9.08869 7.31893 9.08869 5.92217C9.08869 4.48816 9.95091 3.48249 11.1963 3.46387C12.4418 3.46387 13.304 4.48816 13.304 5.92217C13.304 7.33755 12.825 8.10112 12.0969 8.69707C12.7292 9.08816 13.4765 9.59099 14.2812 10.3359C14.6453 9.98209 15.0285 9.70274 15.3734 9.44201C14.9327 8.92055 14.6453 8.3246 14.6453 7.35617C14.6453 6.25739 15.4308 5.38209 16.4463 5.38209C17.4235 5.38209 18.2091 6.27601 18.2091 7.35617C18.2091 8.41771 17.6726 9.03229 17.002 9.55375C17.3852 9.88897 17.8642 10.3359 18.3624 10.9319C18.9755 11.6582 19.3204 12.608 19.3204 13.6323L19.3204 15.5133C19.3204 15.6995 19.2055 15.8671 19.0522 15.9602L16.1781 17.5991C16.1015 17.655 16.0057 17.6736 15.9099 17.6736C15.8141 17.6736 15.7182 17.6363 15.6608 17.5991C15.4883 17.506 15.3925 17.3384 15.3925 17.1521L15.3925 14.9546C15.3925 13.5578 14.7985 12.6266 14.262 11.9376C13.898 12.4218 13.5723 13.0177 13.5723 14.1351L13.5723 18.6234C13.5723 18.791 13.4765 18.9586 13.3232 19.0517L11.4454 20.2064C11.3688 20.2622 11.273 20.2809 11.1772 20.2809C11.0814 20.2809 10.9664 20.2622 10.8515 20.1878L8.97373 19.0331C8.82044 18.94 8.72464 18.791 8.72464 18.6048L8.72464 14.1165C8.72464 13.0177 8.43723 12.4404 8.07318 11.9562C7.53668 12.6452 6.98102 13.5764 6.98102 14.9546L6.98102 17.1521C6.98102 17.3384 6.88522 17.506 6.71278 17.5991C6.61697 17.655 6.54033 17.6736 6.44453 17.6736C6.34872 17.6736 6.25292 17.6363 6.19544 17.5991L3.32136 15.9602C3.14891 15.8671 3.05311 15.6995 3.05311 15.5133L3.05311 13.6323C3.07227 12.6266 3.41716 11.6768 4.01113 10.9505ZM5.96551 6.44363C5.5823 6.44363 5.23741 6.87197 5.23741 7.3748C5.23741 8.04525 5.52482 8.39909 6.1188 8.84605C6.46369 8.45496 6.63613 8.06387 6.63613 7.3748C6.63613 6.87197 6.34872 6.44363 5.96551 6.44363ZM11.1963 4.50678C10.4299 4.50678 10.1617 5.27035 10.1617 5.92217C10.1617 7.03958 10.5066 7.56103 11.1964 8.08249C11.8861 7.56103 12.231 7.0582 12.231 5.92217C12.231 5.27034 11.9628 4.50678 11.1963 4.50678ZM16.4463 6.44362C16.0631 6.44362 15.7374 6.87196 15.7374 7.3748C15.7374 8.06387 15.9099 8.45496 16.2547 8.84605C16.8487 8.39909 17.1553 8.04524 17.1553 7.3748C17.1553 6.87196 16.8296 6.44362 16.4463 6.44362ZM16.4655 14.9732L16.4655 16.2768L18.2666 15.2339L18.2666 13.6509C18.2666 12.8687 18.0175 12.1424 17.5577 11.6023C17.0786 11.0064 16.5996 10.6153 16.1973 10.2614C16.1781 10.2428 16.1589 10.2242 16.1398 10.2056C15.7757 10.4663 15.3734 10.7643 14.9901 11.1367C15.6224 11.9376 16.4655 13.1295 16.4655 14.9732ZM9.81679 14.1351L9.81679 18.344L11.1772 19.1821L12.5184 18.3627L12.5184 14.1537C12.5184 12.5335 13.0741 11.7513 13.5914 11.1367C12.7867 10.3918 12.0586 9.92622 11.4071 9.5165C11.3305 9.46063 11.2538 9.42338 11.1772 9.36751C11.1005 9.40476 11.0431 9.46063 10.9664 9.49787C10.315 9.92622 9.5677 10.3918 8.78212 11.1554C9.28029 11.7513 9.81679 12.5521 9.81679 14.1351ZM4.14526 15.2339L5.94635 16.2768L5.94635 14.9732C5.94635 13.1295 6.77026 11.9562 7.40256 11.1554C7.01934 10.7829 6.61697 10.4849 6.23376 10.2056C6.2146 10.2242 6.19544 10.2428 6.19544 10.2428C5.79307 10.5967 5.33322 11.0064 4.8542 11.5837L4.87336 11.5837C4.41351 12.1238 4.16442 12.8501 4.16442 13.6323L4.16442 15.2339L4.14526 15.2339Z" fill="#63B017"/>
</g>
<defs>
<clipPath id="clip0_2818_4871">
<rect width="21" height="23" fill="white" transform="matrix(-1 8.74228e-08 8.74228e-08 1 21.6963 0)"/>
</clipPath>
</defs>
</svg>
