<svg width="55" height="55" viewBox="0 0 55 55" fill="none" xmlns="http://www.w3.org/2000/svg">
<circle cx="27.5" cy="27.5" r="27.0896" fill="#E4E4E4" stroke="#93978F" stroke-width="0.820895"/>
<g clip-path="url(#clip0_2928_5105)">
<path d="M40.9998 12.667H38.9998C38.6463 12.6674 38.3074 12.808 38.0575 13.058C37.8075 13.3079 37.6669 13.6468 37.6665 14.0003V22.0003H16.3332V14.0003C16.3328 13.6468 16.1922 13.3079 15.9422 13.058C15.6922 12.808 15.3533 12.6674 14.9998 12.667H12.9998C12.6463 12.6674 12.3074 12.808 12.0575 13.058C11.8075 13.3079 11.6669 13.6468 11.6665 14.0003V42.0003C11.6669 42.3538 11.8075 42.6927 12.0575 42.9427C12.3074 43.1927 12.6463 43.3333 12.9998 43.3337H14.9998C15.3533 43.3333 15.6922 43.1927 15.9422 42.9427C16.1922 42.6927 16.3328 42.3538 16.3332 42.0003V39.4951C16.8292 38.5622 20.234 32.667 26.9998 32.667C33.7453 32.667 37.1678 38.563 37.6665 39.4957V42.0003C37.6669 42.3538 37.8075 42.6927 38.0575 42.9427C38.3074 43.1927 38.6463 43.3333 38.9998 43.3337H40.9998C41.3533 43.3333 41.6922 43.1927 41.9422 42.9427C42.1922 42.6927 42.3328 42.3538 42.3332 42.0003V14.0003C42.3328 13.6468 42.1922 13.3079 41.9422 13.058C41.6922 12.808 41.3533 12.6674 40.9998 12.667ZM12.9998 42.0003V14.0003H14.9998V22.6655V22.6685V27.9979V39.3337L15.0007 39.3388V42.0003H12.9998ZM27.6665 23.3337H32.3332V27.3337H27.6665V23.3337ZM21.6665 23.3337H26.3332V27.3337H21.6665V23.3337ZM16.3332 23.3337H20.3332V27.3337H16.3332V23.3337ZM37.6665 37.0192C35.9679 34.7315 32.5161 31.3337 26.9998 31.3337C21.4836 31.3337 18.0318 34.7315 16.3332 37.0192V28.667H37.6665V37.0192ZM37.6665 27.3337H33.6665V23.3337H37.6665V27.3337ZM38.9998 42.0003V14.0003H40.9998L41.0008 42.0003H38.9998Z" fill="#93978F"/>
</g>
<defs>
<clipPath id="clip0_2928_5105">
<rect width="32" height="32" fill="white" transform="translate(11 12)"/>
</clipPath>
</defs>
</svg>
