<svg width="25" height="25" viewBox="0 0 25 25" fill="none" xmlns="http://www.w3.org/2000/svg">
<path d="M3.80023 23.2501C3.44023 23.2501 3.09022 23.1601 2.79022 22.9801C2.12022 22.5901 1.74023 21.8101 1.74023 20.8401V9.48013C1.74023 7.35013 3.47022 5.62012 5.60022 5.62012H13.3802C15.5102 5.62012 17.2402 7.35013 17.2402 9.48013V20.8401C17.2402 21.8101 16.8602 22.5801 16.1902 22.9801C15.5202 23.3701 14.6602 23.3301 13.8102 22.8601L9.88025 20.6701C9.69025 20.5601 9.29022 20.5601 9.10022 20.6701L5.17023 22.8601C4.71023 23.1201 4.24023 23.2501 3.80023 23.2501ZM5.61023 7.13013C4.31023 7.13013 3.25024 8.19011 3.25024 9.49011V20.8501C3.25024 21.2601 3.37024 21.5801 3.56024 21.6901C3.75024 21.8001 4.09026 21.7501 4.45026 21.5501L8.38025 19.3601C9.02025 19.0101 9.98024 19.0101 10.6202 19.3601L14.5502 21.5501C14.9102 21.7501 15.2402 21.8001 15.4402 21.6901C15.6302 21.5801 15.7502 21.2601 15.7502 20.8501V9.49011C15.7502 8.19011 14.6903 7.13013 13.3903 7.13013H5.61023Z" fill="#63B017"/>
<path d="M15.19 23.2496C14.75 23.2496 14.29 23.1196 13.82 22.8696L9.89001 20.6796C9.70001 20.5796 9.28998 20.5796 9.09998 20.6796L5.17999 22.8696C4.32999 23.3396 3.45999 23.3796 2.79999 22.9896C2.12999 22.5996 1.75 21.8196 1.75 20.8596V9.49963C1.75 7.36963 3.47999 5.63965 5.60999 5.63965H13.39C15.52 5.63965 17.25 7.36963 17.25 9.49963V20.8596C17.25 21.8196 16.87 22.5996 16.2 22.9896C15.9 23.1596 15.56 23.2496 15.19 23.2496ZM9.5 19.0996C9.9 19.0996 10.29 19.1896 10.62 19.3696L14.55 21.5596C14.91 21.7596 15.25 21.8096 15.44 21.6896C15.63 21.5796 15.75 21.2596 15.75 20.8496V9.48962C15.75 8.18962 14.69 7.12964 13.39 7.12964H5.60999C4.30999 7.12964 3.25 8.18962 3.25 9.48962V20.8496C3.25 21.2596 3.37 21.5796 3.56 21.6896C3.75 21.7996 4.09001 21.7496 4.45001 21.5496L8.38 19.3596C8.70001 19.1896 9.1 19.0996 9.5 19.0996Z" fill="#63B017"/>
<path d="M21.19 19.3698C20.75 19.3698 20.29 19.2397 19.82 18.9897L16.13 16.9297C15.89 16.7997 15.75 16.5498 15.75 16.2798V9.49976C15.75 8.19976 14.69 7.13977 13.39 7.13977H8.5C8.09 7.13977 7.75 6.79977 7.75 6.38977V5.61975C7.75 3.48975 9.47999 1.75977 11.61 1.75977H19.39C21.52 1.75977 23.25 3.48975 23.25 5.61975V16.9798C23.25 17.9398 22.87 18.7197 22.2 19.1097C21.9 19.2797 21.56 19.3698 21.19 19.3698ZM17.25 15.8297L20.55 17.6797C20.91 17.8797 21.24 17.9298 21.44 17.8098C21.64 17.6898 21.75 17.3798 21.75 16.9698V5.60974C21.75 4.30974 20.69 3.24976 19.39 3.24976H11.61C10.31 3.24976 9.25 4.30974 9.25 5.60974V5.62976H13.39C15.52 5.62976 17.25 7.35975 17.25 9.48975V15.8297Z" fill="#63B017"/>
</svg>
