<svg width="55" height="55" viewBox="0 0 55 55" fill="none" xmlns="http://www.w3.org/2000/svg">
<circle cx="27.5" cy="27.5" r="27.0896" fill="#E4E4E4" stroke="#93978F" stroke-width="0.820895"/>
<path d="M45.2272 27.1133H38.1363C37.1573 27.1133 36.3635 27.9071 36.3635 28.886C36.3635 29.865 37.1573 30.6588 38.1363 30.6588H45.2272C46.2062 30.6588 46.9999 29.865 46.9999 28.886C46.9999 27.9071 46.2063 27.1133 45.2272 27.1133Z" fill="#5C5C5C"/>
<path d="M16.8637 27.1133H9.77274C8.79377 27.1133 8 27.9071 8 28.886C8 29.865 8.79377 30.6588 9.77274 30.6588H16.8637C17.8426 30.6588 18.6364 29.865 18.6364 28.886C18.6364 27.9071 17.8426 27.1133 16.8637 27.1133Z" fill="#C0C0C0"/>
<path d="M38.7817 15.0974L33.7675 20.1115C33.0752 20.8037 33.0752 21.9261 33.7675 22.6185C34.1136 22.9647 34.5673 23.1378 35.0209 23.1378C35.4746 23.1378 35.9284 22.9649 36.2744 22.6185L41.2886 17.6043C41.9809 16.9121 41.9809 15.7897 41.2886 15.0974C40.5965 14.405 39.474 14.405 38.7817 15.0974Z" fill="#7B7B7B"/>
<path d="M27.5 39.5225C26.5211 39.5225 25.7273 40.3162 25.7273 41.2952V44.8407C25.7273 45.8196 26.5211 46.6134 27.5 46.6134C28.479 46.6134 29.2728 45.8196 29.2728 44.8407V41.2952C29.2728 40.3162 28.479 39.5225 27.5 39.5225Z" fill="#D5D5D5"/>
<path d="M18.7254 35.154L13.7114 40.1682C13.0191 40.8605 13.0191 41.9828 13.7114 42.6751C14.0574 43.0212 14.5112 43.1943 14.9649 43.1943C15.4187 43.1943 15.8724 43.0212 16.2183 42.6751L21.2323 37.6609C21.9246 36.9686 21.9246 35.8463 21.2323 35.154C20.5402 34.4617 19.4177 34.4617 18.7254 35.154Z" fill="#D2D2D2"/>
<path d="M27.5 9.38672C26.5211 9.38672 25.7273 10.1805 25.7273 11.1595V18.2504C25.7273 19.2294 26.5211 20.0231 27.5 20.0231C28.479 20.0231 29.2728 19.2294 29.2728 18.2504V11.1595C29.2728 10.1805 28.479 9.38672 27.5 9.38672Z" fill="#999999"/>
<path d="M16.2185 15.0974C15.5264 14.405 14.4039 14.405 13.7116 15.0974C13.0193 15.7897 13.0193 16.912 13.7116 17.6043L18.7256 22.6185C19.0717 22.9647 19.5254 23.1378 19.9792 23.1378C20.4327 23.1378 20.8867 22.9647 21.2325 22.6185C21.9248 21.9263 21.9248 20.8039 21.2325 20.1115L16.2185 15.0974Z" fill="#B4B4B4"/>
</svg>
