<svg width="87" height="32" viewBox="0 0 87 32" fill="none" xmlns="http://www.w3.org/2000/svg">
<rect width="87" height="32" rx="16" fill="#EFF0ED" fill-opacity="0.38"/>
<path d="M24.231 13.0905C24.1045 12.709 17.0316 9.88276 17.0316 9.88276C16.636 9.44945 16.7657 10.2805 16.8987 11.5319C17.0316 12.7833 17.0835 13.3589 17.3786 13.595C17.6738 13.831 23.3911 14.8173 23.8094 14.9531C24.2245 15.0922 24.3575 13.4721 24.231 13.0905Z" fill="url(#paint0_linear_3658_17976)"/>
<path opacity="0.49" d="M24.1632 13.4785C24.0367 13.0969 16.9638 10.2707 16.9638 10.2707C16.873 10.1704 16.8114 10.1381 16.7692 10.1607C16.7562 9.78562 16.8179 9.64658 17.0319 9.8794C17.0319 9.8794 24.108 12.7056 24.2313 13.0872C24.3058 13.3168 24.2896 13.9861 24.1761 14.4615C24.2248 14.067 24.2183 13.6498 24.1632 13.4785Z" fill="white"/>
<path d="M24.2472 15.0916C24.0688 14.7036 16.2792 12.5112 16.2792 12.5112C15.7993 12.1361 16.0295 13.0156 16.3117 14.3576C16.5938 15.6963 16.7138 16.3204 17.0608 16.5015C17.4078 16.6858 23.5078 17.1999 23.9813 17.2452C24.4612 17.2937 24.4255 15.4796 24.2472 15.0916Z" fill="url(#paint1_linear_3658_17976)"/>
<path opacity="0.49" d="M24.2147 15.5351C24.0364 15.1471 16.2468 12.9547 16.2468 12.9547C16.1365 12.8706 16.0652 12.848 16.0198 12.8835C15.9647 12.4729 16.0166 12.3047 16.2792 12.5084C16.2792 12.5084 24.0688 14.7009 24.2472 15.0889C24.3542 15.3217 24.4093 16.0622 24.3347 16.6119C24.3445 16.1657 24.2926 15.7098 24.2147 15.5351Z" fill="white"/>
<path d="M25.3108 17.6367C25.0708 17.2454 16.4834 15.8129 16.4834 15.8129C15.9062 15.509 16.2564 16.4402 16.7105 17.8728C17.1645 19.3053 17.3623 19.9746 17.7709 20.0975C18.1795 20.2204 24.7011 20.1783 25.2362 20.1137C25.7745 20.0522 25.5508 18.028 25.3108 17.6367Z" fill="url(#paint2_linear_3658_17976)"/>
<path opacity="0.49" d="M25.3173 18.1409C25.0773 17.7496 16.49 16.3171 16.49 16.3171C16.357 16.246 16.2759 16.2427 16.2305 16.2945C16.1268 15.8482 16.1689 15.6477 16.4835 15.8127C16.4835 15.8127 25.0709 17.2452 25.3108 17.6364C25.4535 17.8725 25.593 18.6906 25.5638 19.3244C25.5314 18.8167 25.4276 18.3155 25.3173 18.1409Z" fill="white"/>
<path d="M27.7658 13.0905C27.8923 12.709 34.9652 9.88276 34.9652 9.88276C35.3608 9.44945 35.2311 10.2805 35.0981 11.5319C34.9652 12.7833 34.9133 13.3589 34.6182 13.595C34.3231 13.831 28.6057 14.8173 28.1874 14.9531C27.7723 15.0922 27.6426 13.4721 27.7658 13.0905Z" fill="url(#paint3_linear_3658_17976)"/>
<path opacity="0.49" d="M27.8372 13.4785C27.9636 13.0969 35.0365 10.2707 35.0365 10.2707C35.1273 10.1704 35.1889 10.1381 35.2311 10.1607C35.2441 9.78562 35.1825 9.64658 34.9684 9.8794C34.9684 9.8794 27.8923 12.7056 27.7691 13.0872C27.6945 13.3168 27.7107 13.9861 27.8242 14.4615C27.7755 14.067 27.7788 13.6498 27.8372 13.4785Z" fill="white"/>
<path d="M27.7496 15.0915C27.928 14.7034 35.7176 12.511 35.7176 12.511C36.1975 12.1359 35.9673 13.0155 35.6851 14.3574C35.403 15.6962 35.283 16.3203 34.936 16.5014C34.589 16.6857 28.489 17.1998 28.0155 17.2451C27.5388 17.2936 27.5712 15.4795 27.7496 15.0915Z" fill="url(#paint4_linear_3658_17976)"/>
<path opacity="0.49" d="M27.7853 15.5349C27.9637 15.1469 35.7533 12.9544 35.7533 12.9544C35.8635 12.8704 35.9349 12.8477 35.9803 12.8833C36.0354 12.4726 35.9835 12.3045 35.7208 12.5082C35.7208 12.5082 27.9312 14.7006 27.7529 15.0887C27.6459 15.3215 27.5907 16.062 27.6653 16.6117C27.6523 16.1655 27.7042 15.7095 27.7853 15.5349Z" fill="white"/>
<path d="M26.6894 17.6367C26.9294 17.2454 35.5167 15.8129 35.5167 15.8129C36.094 15.509 35.7438 16.4402 35.2897 17.8728C34.8357 19.3053 34.6379 19.9746 34.2293 20.0975C33.8207 20.2204 27.2991 20.1783 26.764 20.1137C26.2224 20.0522 26.4462 18.028 26.6894 17.6367Z" fill="url(#paint5_linear_3658_17976)"/>
<path opacity="0.49" d="M26.6794 18.1409C26.9194 17.7496 35.5067 16.3171 35.5067 16.3171C35.6397 16.246 35.7208 16.2427 35.7662 16.2945C35.87 15.8482 35.8278 15.6477 35.5132 15.8127C35.5132 15.8127 26.9259 17.2452 26.6859 17.6364C26.5432 17.8725 26.4038 18.6906 26.4329 19.3244C26.4686 18.8167 26.5724 18.3155 26.6794 18.1409Z" fill="white"/>
<path d="M33.321 14.2629C33.7978 13.1182 30.9245 12.8369 29.1311 12.8336C28.716 12.064 27.5032 9.9169 26.6957 9.3219C25.7974 8.66224 24.1954 11.2459 23.2581 12.8369C21.5329 12.7981 18.1667 13.0309 18.6823 14.2629C19.1072 15.2815 20.573 16.824 21.4583 17.6971C20.9167 19.2266 20.0022 22.8418 21.3999 22.7092C22.6939 22.5863 25.1034 21.3026 25.9984 20.8046C26.8935 21.3026 29.303 22.5863 30.597 22.7092C31.9947 22.8418 31.0802 19.2298 30.5386 17.6971C31.4304 16.8207 32.8962 15.2815 33.321 14.2629Z" fill="#EEC700"/>
<path d="M33.321 14.2629C33.7978 13.1182 30.9245 12.8369 29.1311 12.8336C28.716 12.064 27.5032 9.9169 26.6957 9.3219C25.7974 8.66224 24.1954 11.2459 23.2581 12.8369C21.5329 12.7981 18.1667 13.0309 18.6823 14.2629C19.1072 15.2815 20.573 16.824 21.4583 17.6971C20.9167 19.2266 20.0022 22.8418 21.3999 22.7092C22.6939 22.5863 25.1034 21.3026 25.9984 20.8046C26.8935 21.3026 29.303 22.5863 30.597 22.7092C31.9947 22.8418 31.0802 19.2298 30.5386 17.6971C31.4304 16.8207 32.8962 15.2815 33.321 14.2629Z" fill="url(#paint6_linear_3658_17976)"/>
<path opacity="0.35" d="M32.1406 14.5343C32.5395 13.5739 30.13 13.3379 28.6252 13.3346C28.275 12.6911 27.26 10.8868 26.5822 10.3888C25.8266 9.83582 24.4872 12.0024 23.6992 13.3379C22.2528 13.3055 19.4282 13.4995 19.8595 14.5343C20.2162 15.3912 21.4486 16.6815 22.1912 17.4155C21.7372 18.6993 20.9686 21.7324 22.1426 21.6192C23.229 21.5158 25.2493 20.439 26.0017 20.0218C26.7541 20.439 28.7744 21.5158 29.8608 21.6192C31.0348 21.7292 30.2662 18.6993 29.8122 17.4155C30.5548 16.6847 31.7871 15.3912 32.1406 14.5343Z" fill="#FFF6CC"/>
<g opacity="0.25">
<path d="M30.5451 16.9208C30.6067 17.0922 30.6716 17.2894 30.7364 17.5028C31.6282 16.6103 32.9254 15.2102 33.3211 14.2595C33.4184 14.0299 33.3762 13.8326 33.2368 13.6677C32.7276 14.6831 31.3785 16.0994 30.5451 16.9208Z" fill="#828282"/>
<path d="M21.4583 16.9207C20.6249 16.0993 19.2725 14.683 18.7634 13.6676C18.624 13.8325 18.585 14.0298 18.6791 14.2594C19.0747 15.2101 20.3719 16.6102 21.2637 17.5027C21.3351 17.2893 21.3999 17.092 21.4583 16.9207Z" fill="#828282"/>
<path d="M30.6002 21.9325C29.3062 21.8096 26.8967 20.5258 26.0017 20.0278C25.1066 20.529 22.6971 21.8096 21.4031 21.9325C20.9491 21.9745 20.7383 21.622 20.68 21.0723C20.6054 22.0327 20.7578 22.7667 21.4031 22.7053C22.6971 22.5824 25.1066 21.2987 26.0017 20.8007C26.8967 21.2987 29.3062 22.5824 30.6002 22.7053C31.2455 22.7667 31.3979 22.0295 31.3233 21.0723C31.265 21.6188 31.0574 21.9745 30.6002 21.9325Z" fill="#828282"/>
</g>
<path d="M22.9986 21.1664C23.0732 21.1373 25.019 20.3159 25.5411 19.9634C26.0632 19.611 26.0859 19.6789 27.5971 20.5649C29.1083 21.4509 29.8834 21.5803 30.1591 21.3507C30.4315 21.1243 30.2499 21.7225 29.5299 21.5609C28.81 21.3992 26.3907 20.3224 26.1962 20.1704C26.0048 20.0184 23.5953 21.5188 22.4376 21.5706C21.2766 21.6255 22.1327 21.5156 22.9986 21.1664Z" fill="white"/>
<path opacity="0.49" d="M28.6285 13.3346C28.2782 12.6911 27.2632 10.8868 26.5854 10.3888C25.8298 9.83582 24.4905 12.0024 23.7024 13.3379C22.2561 13.3055 19.4315 13.4995 19.8628 14.5343C20.2195 15.3912 21.4518 16.6815 22.1945 17.4155C22.081 17.7389 21.9447 18.1722 21.828 18.641C23.2127 18.8383 25.1164 18.3209 26.5043 17.81C28.8458 16.9466 29.6306 16.7623 32.0758 14.6831C32.1017 14.6346 32.1244 14.5828 32.1439 14.5375C32.5427 13.5739 30.13 13.3379 28.6285 13.3346Z" fill="white"/>
<path opacity="0.49" d="M28.6285 13.3346C28.2782 12.6911 27.2632 10.8868 26.5854 10.3888C25.8298 9.83582 24.4905 12.0024 23.7024 13.3379C22.2561 13.3055 19.4315 13.4995 19.8628 14.5343C19.866 14.5408 19.8693 14.5472 19.8725 14.557C20.2454 13.8779 22.4701 13.7421 23.7024 13.7679C24.4872 12.4357 25.8298 10.2659 26.5854 10.8189C27.2632 11.3168 28.2782 13.118 28.6285 13.7647C29.89 13.7679 31.7904 13.9329 32.1341 14.557C32.1374 14.5505 32.1406 14.544 32.1439 14.5343C32.5427 13.5739 30.13 13.3379 28.6285 13.3346Z" fill="white"/>
<path d="M26.3163 10.3016C25.9596 10.2919 25.0646 11.1294 24.4224 12.1674C23.7803 13.2054 25.7618 11.0615 26.3163 11.1035C26.8709 11.1423 27.0071 10.321 26.3163 10.3016Z" fill="white"/>
<path d="M26.7735 9.44438C26.7735 9.44438 26.6989 10.3627 26.5044 10.2593C26.2676 10.1364 26.0698 10.3013 26.0698 10.3013L25.8849 9.44438C25.8849 9.44438 26.3811 8.97873 26.7735 9.44438Z" fill="white"/>
<path d="M18.9677 13.5671C18.9677 13.5671 19.412 13.6641 19.6746 13.8452C19.9373 14.0263 19.9373 14.0263 19.9373 14.0263C19.9373 14.0263 19.7784 14.1718 19.7849 14.3626C19.7914 14.5534 19.8173 14.5696 19.8173 14.5696C19.8173 14.5696 18.7342 14.4758 18.6434 14.1266C18.5493 13.7806 18.8477 13.6092 18.9677 13.5671Z" fill="white"/>
<path opacity="0.25" d="M32.9643 13.4963C32.9643 13.4963 32.6757 13.6095 32.4584 13.755C32.2411 13.9005 32.186 14.0234 32.186 14.0234C32.186 14.0234 32.2346 14.1851 32.2346 14.2465C32.2346 14.308 32.2346 14.4341 32.2346 14.4341C32.2346 14.4341 32.9319 14.3565 33.1459 14.2465C33.36 14.1366 33.347 13.8229 33.2919 13.7453C33.2367 13.6709 33.0292 13.4704 32.9643 13.4963Z" fill="#828282"/>
<path opacity="0.25" d="M21.8668 21.6034C21.8668 21.6034 21.5685 22.5799 21.4809 22.6414C21.3933 22.7028 21.0334 22.7545 20.9004 22.5153C20.7674 22.276 20.6993 22.111 20.7642 21.972C20.8291 21.833 21.6171 21.3673 21.6171 21.3673C21.6171 21.3673 21.7241 21.6034 21.8668 21.6034Z" fill="#828282"/>
<path opacity="0.25" d="M30.0813 21.6034C30.0813 21.6034 30.3796 22.5799 30.4672 22.6414C30.5515 22.7028 30.9147 22.7545 31.0477 22.5153C31.1806 22.276 31.252 22.111 31.1839 21.972C31.119 21.833 30.331 21.3673 30.331 21.3673C30.331 21.3673 30.2207 21.6034 30.0813 21.6034Z" fill="#828282"/>
<path opacity="0.25" d="M26.0762 20.1741V20.8014C26.0762 20.8014 22.4732 22.609 22.016 22.6963C21.5587 22.7836 21.5587 22.7836 21.5587 22.7836L22.016 21.8168C22.016 21.8135 25.6708 20.5168 26.0762 20.1741Z" fill="#828282"/>
<path opacity="0.7" d="M23.7023 13.3376L23.2613 12.8331C23.2613 12.8331 24.3996 10.7022 25.2428 9.94548C26.0827 9.19204 26.5205 9.02066 26.514 9.63829C26.5075 10.2559 26.3194 10.2979 26.3194 10.2979C26.3194 10.2979 25.379 10.382 23.7023 13.3376Z" fill="white"/>
<path d="M19.5319 12.2148C18.7082 12.2148 18.0401 12.8357 18.0401 13.5988C18.0401 14.362 18.7082 14.9828 19.5319 14.9828C20.3556 14.9828 21.0237 14.362 21.0237 13.5988C21.0237 12.8357 20.3556 12.2148 19.5319 12.2148Z" fill="white"/>
<path opacity="0.7" d="M18.1699 15.4231C18.5688 14.9736 19.746 13.5993 19.746 13.5993C19.746 13.5993 20.7286 11.7594 20.7513 11.7076C20.7578 11.6915 19.4963 13.4376 19.4963 13.4376L18.1699 15.4231Z" fill="white"/>
<path d="M19.8562 13.2729C19.493 12.9883 19.5578 12.1961 19.5578 11.9697C19.5578 12.0344 19.5578 12.1088 19.5578 12.1864C19.5578 12.1508 19.5546 12.1152 19.5546 12.1055C19.5546 12.057 19.5546 12.0118 19.5546 11.9697C19.5546 12.0344 19.5481 12.1379 19.5351 12.2543C19.5351 12.2543 19.4281 13.053 19.2368 13.2179C18.8055 13.5963 17.7191 13.5219 18.1342 13.5316C19.5416 13.5607 19.5416 14.9317 19.5546 15.3812C19.5546 15.323 19.5546 15.2454 19.5546 15.1549C19.5546 15.171 19.5578 15.184 19.5578 15.1937C19.5578 15.268 19.5578 15.3327 19.5578 15.3812C19.587 14.3174 19.5838 13.6448 20.8129 13.5542C21.2182 13.5251 20.281 13.6027 19.8562 13.2729Z" fill="white"/>
<path d="M44.876 21.098C44.6613 21.098 44.4933 21.0373 44.372 20.916C44.2507 20.7947 44.19 20.622 44.19 20.398V11.83C44.19 11.606 44.2507 11.4333 44.372 11.312C44.4933 11.1907 44.666 11.13 44.89 11.13H49.916C50.1027 11.13 50.2427 11.1767 50.336 11.27C50.4293 11.354 50.476 11.48 50.476 11.648C50.476 11.8253 50.4293 11.9607 50.336 12.054C50.2427 12.1473 50.1027 12.194 49.916 12.194H45.492V15.498H49.636C49.8133 15.498 49.9487 15.5447 50.042 15.638C50.1353 15.7313 50.182 15.8573 50.182 16.016C50.182 16.1933 50.1353 16.3287 50.042 16.422C49.9487 16.5153 49.8133 16.562 49.636 16.562H45.492V20.398C45.492 20.8647 45.2867 21.098 44.876 21.098ZM52.2542 21.098C52.0396 21.098 51.8762 21.042 51.7642 20.93C51.6522 20.818 51.5962 20.6547 51.5962 20.44V14.728C51.5962 14.5133 51.6522 14.3547 51.7642 14.252C51.8762 14.14 52.0302 14.084 52.2262 14.084C52.4222 14.084 52.5716 14.14 52.6742 14.252C52.7862 14.3547 52.8422 14.5133 52.8422 14.728V15.806H52.7022C52.8516 15.246 53.1316 14.8213 53.5422 14.532C53.9529 14.2427 54.4709 14.0793 55.0962 14.042C55.2456 14.0327 55.3669 14.07 55.4602 14.154C55.5536 14.2287 55.6049 14.3593 55.6142 14.546C55.6236 14.7233 55.5816 14.868 55.4882 14.98C55.3949 15.0827 55.2502 15.1433 55.0542 15.162L54.8022 15.176C54.1862 15.2413 53.7102 15.442 53.3742 15.778C53.0476 16.114 52.8842 16.576 52.8842 17.164V20.44C52.8842 20.6547 52.8282 20.818 52.7162 20.93C52.6136 21.042 52.4596 21.098 52.2542 21.098ZM59.7638 21.126C59.0265 21.126 58.3918 20.986 57.8598 20.706C57.3371 20.4167 56.9311 20.0107 56.6418 19.488C56.3525 18.956 56.2078 18.3307 56.2078 17.612C56.2078 16.9027 56.3478 16.282 56.6278 15.75C56.9171 15.218 57.3091 14.8027 57.8038 14.504C58.3078 14.2053 58.8818 14.056 59.5258 14.056C59.9831 14.056 60.3938 14.1353 60.7578 14.294C61.1311 14.4433 61.4485 14.6627 61.7098 14.952C61.9711 15.2413 62.1671 15.596 62.2978 16.016C62.4378 16.4267 62.5078 16.8933 62.5078 17.416C62.5078 17.5653 62.4611 17.682 62.3678 17.766C62.2838 17.8407 62.1578 17.878 61.9898 17.878H57.2018V17.066H61.6678L61.4298 17.262C61.4298 16.7767 61.3551 16.366 61.2058 16.03C61.0658 15.6847 60.8558 15.4233 60.5758 15.246C60.3051 15.0687 59.9645 14.98 59.5538 14.98C59.1058 14.98 58.7231 15.0873 58.4058 15.302C58.0885 15.5073 57.8458 15.8013 57.6778 16.184C57.5098 16.5573 57.4258 16.9913 57.4258 17.486V17.57C57.4258 18.41 57.6265 19.0447 58.0278 19.474C58.4291 19.9033 59.0078 20.118 59.7638 20.118C60.0625 20.118 60.3658 20.0807 60.6738 20.006C60.9911 19.9313 61.2945 19.796 61.5838 19.6C61.7238 19.516 61.8498 19.4787 61.9618 19.488C62.0831 19.488 62.1811 19.5253 62.2558 19.6C62.3305 19.6653 62.3771 19.7493 62.3958 19.852C62.4145 19.9453 62.4005 20.048 62.3538 20.16C62.3071 20.272 62.2185 20.37 62.0878 20.454C61.7798 20.6687 61.4111 20.8367 60.9818 20.958C60.5618 21.07 60.1558 21.126 59.7638 21.126ZM67.2423 21.126C66.505 21.126 65.8703 20.986 65.3383 20.706C64.8156 20.4167 64.4096 20.0107 64.1203 19.488C63.831 18.956 63.6863 18.3307 63.6863 17.612C63.6863 16.9027 63.8263 16.282 64.1063 15.75C64.3956 15.218 64.7876 14.8027 65.2823 14.504C65.7863 14.2053 66.3603 14.056 67.0043 14.056C67.4616 14.056 67.8723 14.1353 68.2363 14.294C68.6096 14.4433 68.927 14.6627 69.1883 14.952C69.4496 15.2413 69.6456 15.596 69.7763 16.016C69.9163 16.4267 69.9863 16.8933 69.9863 17.416C69.9863 17.5653 69.9396 17.682 69.8463 17.766C69.7623 17.8407 69.6363 17.878 69.4683 17.878H64.6803V17.066H69.1463L68.9083 17.262C68.9083 16.7767 68.8336 16.366 68.6843 16.03C68.5443 15.6847 68.3343 15.4233 68.0543 15.246C67.7836 15.0687 67.443 14.98 67.0323 14.98C66.5843 14.98 66.2016 15.0873 65.8843 15.302C65.567 15.5073 65.3243 15.8013 65.1563 16.184C64.9883 16.5573 64.9043 16.9913 64.9043 17.486V17.57C64.9043 18.41 65.105 19.0447 65.5063 19.474C65.9076 19.9033 66.4863 20.118 67.2423 20.118C67.541 20.118 67.8443 20.0807 68.1523 20.006C68.4696 19.9313 68.773 19.796 69.0623 19.6C69.2023 19.516 69.3283 19.4787 69.4403 19.488C69.5616 19.488 69.6596 19.5253 69.7343 19.6C69.809 19.6653 69.8556 19.7493 69.8743 19.852C69.893 19.9453 69.879 20.048 69.8323 20.16C69.7856 20.272 69.697 20.37 69.5663 20.454C69.2583 20.6687 68.8896 20.8367 68.4603 20.958C68.0403 21.07 67.6343 21.126 67.2423 21.126Z" fill="#F4F4F4"/>
<defs>
<linearGradient id="paint0_linear_3658_17976" x1="16.5307" y1="11.8964" x2="24.3922" y2="12.8647" gradientUnits="userSpaceOnUse">
<stop stop-color="#B5C0C9"/>
<stop offset="1" stop-color="#8F939C"/>
</linearGradient>
<linearGradient id="paint1_linear_3658_17976" x1="16.0651" y1="14.9464" x2="24.334" y2="14.7158" gradientUnits="userSpaceOnUse">
<stop stop-color="#B5C0C9"/>
<stop offset="1" stop-color="#8F939C"/>
</linearGradient>
<linearGradient id="paint2_linear_3658_17976" x1="16.621" y1="18.6314" x2="25.3047" y2="17.1626" gradientUnits="userSpaceOnUse">
<stop stop-color="#B5C0C9"/>
<stop offset="1" stop-color="#8F939C"/>
</linearGradient>
<linearGradient id="paint3_linear_3658_17976" x1="35.4671" y1="11.8964" x2="27.6056" y2="12.8647" gradientUnits="userSpaceOnUse">
<stop stop-color="#B5C0C9"/>
<stop offset="1" stop-color="#8F939C"/>
</linearGradient>
<linearGradient id="paint4_linear_3658_17976" x1="35.9327" y1="14.9463" x2="27.6638" y2="14.7157" gradientUnits="userSpaceOnUse">
<stop stop-color="#B5C0C9"/>
<stop offset="1" stop-color="#8F939C"/>
</linearGradient>
<linearGradient id="paint5_linear_3658_17976" x1="35.3769" y1="18.6314" x2="26.6933" y2="17.1626" gradientUnits="userSpaceOnUse">
<stop stop-color="#B5C0C9"/>
<stop offset="1" stop-color="#8F939C"/>
</linearGradient>
<linearGradient id="paint6_linear_3658_17976" x1="18.6299" y1="15.9624" x2="33.3734" y2="15.9624" gradientUnits="userSpaceOnUse">
<stop stop-color="#B5C0C9"/>
<stop offset="1" stop-color="#8F939C"/>
</linearGradient>
</defs>
</svg>
