<svg width="17" height="16" viewBox="0 0 17 16" fill="none" xmlns="http://www.w3.org/2000/svg">
<path d="M12.8279 15.1605H5.10794C3.28127 15.1605 1.80127 13.6738 1.80127 11.8471V6.90713C1.80127 6.00046 2.36127 4.86046 3.08127 4.30046L6.6746 1.50046C7.7546 0.660464 9.48127 0.620464 10.6013 1.40713L14.7213 4.2938C15.5146 4.84713 16.1346 6.0338 16.1346 7.00046V11.8538C16.1346 13.6738 14.6546 15.1605 12.8279 15.1605ZM7.28794 2.28713L3.6946 5.08713C3.22127 5.46046 2.80127 6.30713 2.80127 6.90713V11.8471C2.80127 13.1205 3.8346 14.1605 5.10794 14.1605H12.8279C14.1013 14.1605 15.1346 13.1271 15.1346 11.8538V7.00046C15.1346 6.36047 14.6746 5.4738 14.1479 5.1138L10.0279 2.22713C9.26794 1.6938 8.0146 1.72046 7.28794 2.28713Z" fill="#DCDCDC"/>
<path d="M9.9679 12.5H7.9679C6.5879 12.5 5.4679 11.38 5.4679 10V8C5.4679 6.62 6.5879 5.5 7.9679 5.5H9.9679C11.3479 5.5 12.4679 6.62 12.4679 8V10C12.4679 11.38 11.3479 12.5 9.9679 12.5ZM7.9679 6.5C7.14123 6.5 6.4679 7.17333 6.4679 8V10C6.4679 10.8267 7.14123 11.5 7.9679 11.5H9.9679C10.7946 11.5 11.4679 10.8267 11.4679 10V8C11.4679 7.17333 10.7946 6.5 9.9679 6.5H7.9679Z" fill="#DCDCDC"/>
<path d="M8.9679 12.5C8.69456 12.5 8.4679 12.2733 8.4679 12V6C8.4679 5.72667 8.69456 5.5 8.9679 5.5C9.24123 5.5 9.4679 5.72667 9.4679 6V12C9.4679 12.2733 9.24123 12.5 8.9679 12.5Z" fill="#DCDCDC"/>
<path d="M11.9679 9.5H5.9679C5.69456 9.5 5.4679 9.27333 5.4679 9C5.4679 8.72667 5.69456 8.5 5.9679 8.5H11.9679C12.2412 8.5 12.4679 8.72667 12.4679 9C12.4679 9.27333 12.2412 9.5 11.9679 9.5Z" fill="#DCDCDC"/>
</svg>
