<svg width="55" height="56" viewBox="0 0 55 56" fill="none" xmlns="http://www.w3.org/2000/svg">
<circle cx="27.5" cy="28" r="27.0896" fill="#E4E4E4" stroke="#93978F" stroke-width="0.820895"/>
<g clip-path="url(#clip0_2925_5057)">
<path d="M11.625 27.2224H22.9201C23.2652 27.2224 23.5451 26.9425 23.5451 26.5974V23.4544C23.5451 21.6841 22.1797 20.2267 20.4468 20.0799C21.3727 19.2281 21.9534 18.0098 21.9534 16.6589C21.9534 14.0899 19.8536 12 17.2725 12C14.6914 12 12.5917 14.0899 12.5917 16.6588C12.5917 18.0097 13.1724 19.2281 14.0983 20.0798C12.3653 20.2267 11 21.6841 11 23.4544V26.5974C11 26.9425 11.2799 27.2224 11.625 27.2224ZM13.8417 16.6588C13.8417 14.7792 15.3807 13.25 17.2725 13.25C19.1642 13.25 20.7034 14.7792 20.7034 16.6588C20.7034 18.5384 19.1643 20.0676 17.2725 20.0676C15.3807 20.0676 13.8417 18.5384 13.8417 16.6588ZM12.25 23.4544C12.25 22.2762 13.2086 21.3177 14.3867 21.3177H20.1582C21.3365 21.3177 22.295 22.2763 22.295 23.4544V25.9724H12.25V23.4544Z" fill="#93978F"/>
<path d="M36.7165 25.9067C38.0296 25.9067 39.098 24.8384 39.098 23.5253V14.3814C39.0979 13.0683 38.0296 12 36.7165 12H27.167C25.854 12 24.7856 13.0683 24.7856 14.3814V23.5254C24.7856 24.8385 25.854 25.9068 27.167 25.9068H28.4329L28.5601 26.6968C28.5908 26.8873 28.7076 27.0528 28.8768 27.1456C28.97 27.1967 29.0734 27.2224 29.1771 27.2224C29.2615 27.2224 29.346 27.2054 29.4255 27.171L32.3461 25.9068L36.7165 25.9067ZM31.9683 24.7081L29.6664 25.7045L29.5823 25.1823C29.5336 24.8794 29.2721 24.6567 28.9653 24.6567H27.167C26.5432 24.6567 26.0356 24.1492 26.0356 23.5253V14.3814C26.0356 13.7576 26.5431 13.25 27.167 13.25H36.7165C37.3403 13.25 37.848 13.7575 37.848 14.3814V23.5254C37.848 24.1492 37.3404 24.6568 36.7165 24.6568H32.2166C32.1313 24.6567 32.0467 24.6742 31.9683 24.7081Z" fill="#93978F"/>
<path d="M31.9891 14.8394C31.9733 14.8391 31.9576 14.8389 31.9419 14.8389C30.7936 14.8389 29.8155 15.6866 29.6564 16.8287C29.6417 16.9347 29.6343 17.0427 29.6343 17.1499C29.6343 17.4951 29.9142 17.7749 30.2593 17.7749C30.6044 17.7749 30.8843 17.4951 30.8843 17.1499C30.8843 17.1001 30.8878 17.0499 30.8945 17.001C30.9675 16.4775 31.4158 16.0889 31.9423 16.0889C31.9494 16.0889 31.9567 16.089 31.9639 16.0891C32.5152 16.1003 32.9693 16.541 32.9979 17.0926C33.0132 17.388 32.9101 17.6681 32.7075 17.8815C32.5057 18.094 32.2338 18.211 31.9419 18.211C31.5968 18.211 31.3169 18.4909 31.3169 18.836V20.1399C31.3169 20.485 31.5968 20.7649 31.9419 20.7649C32.287 20.7649 32.5669 20.485 32.5669 20.1399V19.3737C32.9627 19.2616 33.3268 19.0446 33.614 18.7422C34.0549 18.2777 34.2794 17.669 34.2462 17.0279C34.1838 15.825 33.1925 14.8637 31.9891 14.8394Z" fill="#93978F"/>
<path d="M32.5193 22.1602C32.4185 21.9145 32.1622 21.7569 31.8975 21.776C31.6378 21.7947 31.4133 21.9774 31.3415 22.2275C31.2696 22.4779 31.3657 22.7554 31.5779 22.9072C31.7869 23.0567 32.0748 23.0612 32.2887 22.9189C32.5337 22.756 32.6323 22.4318 32.5193 22.1602Z" fill="#93978F"/>
<path d="M39.9019 37.4822C40.8278 36.6304 41.4085 35.412 41.4085 34.0612C41.4085 31.4923 39.3087 29.4023 36.7276 29.4023C34.1466 29.4023 32.0467 31.4923 32.0467 34.0612C32.0467 35.412 32.6274 36.6304 33.5533 37.4822C31.8203 37.629 30.4551 39.0864 30.4551 40.8567V43.3747C30.4551 43.7198 30.735 43.9997 31.0801 43.9997H42.3752C42.7203 43.9997 43.0002 43.7198 43.0002 43.3747V40.8568C43.0002 39.0865 41.6349 37.629 39.9019 37.4822ZM33.2968 34.0612C33.2968 32.1815 34.8359 30.6523 36.7277 30.6523C38.6195 30.6523 40.1586 32.1815 40.1586 34.0612C40.1586 35.9408 38.6195 37.47 36.7277 37.47C34.8359 37.47 33.2968 35.9408 33.2968 34.0612ZM41.7502 42.7497H31.7051V40.8568C31.7051 39.6785 32.6637 38.72 33.8419 38.72H39.6134C40.7916 38.72 41.7501 39.6786 41.7501 40.8568V42.7497H41.7502Z" fill="#93978F"/>
<path d="M26.8328 29.4023H13.3814C12.0683 29.4023 11 30.4707 11 31.7838V38.1842C11 39.4973 12.0683 40.5656 13.3814 40.5656H21.6006L24.4863 42.408C24.5884 42.4732 24.7053 42.5062 24.8227 42.5062C24.9148 42.5062 25.0071 42.4859 25.0928 42.4448C25.2876 42.3515 25.4204 42.164 25.4439 41.949L25.5949 40.5656H26.8328C28.1458 40.5656 29.2141 39.4973 29.2141 38.1842V31.7838C29.2141 30.4707 28.1458 29.4023 26.8328 29.4023ZM27.9641 38.1842C27.9641 38.808 27.4566 39.3156 26.8328 39.3156H25.0345C24.7156 39.3156 24.4478 39.5557 24.4132 39.8728L24.3106 40.8127L22.1195 39.4138C22.0191 39.3497 21.9023 39.3156 21.7831 39.3156H13.3814C12.7576 39.3156 12.25 38.8081 12.25 38.1842V31.7838C12.25 31.16 12.7575 30.6523 13.3814 30.6523H26.8328C27.4566 30.6523 27.9642 31.1599 27.9642 31.7838V38.1842H27.9641Z" fill="#93978F"/>
<path d="M15.8252 34.0332H18.9655C19.3106 34.0332 19.5905 33.7533 19.5905 33.4082C19.5905 33.0631 19.3106 32.7832 18.9655 32.7832H15.8252C15.4801 32.7832 15.2002 33.0631 15.2002 33.4082C15.2002 33.7533 15.4801 34.0332 15.8252 34.0332Z" fill="#93978F"/>
<path d="M24.3885 32.7832C24.1234 32.7832 23.8826 32.957 23.7973 33.2075C23.7123 33.4568 23.7973 33.7409 24.0057 33.9022C24.209 34.0596 24.4956 34.0751 24.7148 33.9411C24.9338 33.8072 25.0517 33.5433 25.0028 33.291C24.9465 33.0004 24.6849 32.7832 24.3885 32.7832Z" fill="#93978F"/>
<path d="M21.2089 33.6475C21.3094 33.889 21.5552 34.0447 21.8165 34.0323C22.0737 34.0201 22.302 33.8441 22.3807 33.5993C22.4604 33.3515 22.374 33.0703 22.1662 32.9125C21.9546 32.7518 21.6605 32.7424 21.4389 32.8888C21.1924 33.0515 21.0974 33.376 21.2089 33.6475Z" fill="#93978F"/>
<path d="M24.3888 35.7197H18.7485C18.4034 35.7197 18.1235 35.9996 18.1235 36.3447C18.1235 36.6899 18.4034 36.9697 18.7485 36.9697H24.3888C24.734 36.9697 25.0138 36.6899 25.0138 36.3447C25.0138 35.9996 24.734 35.7197 24.3888 35.7197Z" fill="#93978F"/>
<path d="M16.6231 35.7197H15.8252C15.4801 35.7197 15.2002 35.9996 15.2002 36.3447C15.2002 36.6899 15.4801 36.9697 15.8252 36.9697H16.6231C16.9683 36.9697 17.2481 36.6899 17.2481 36.3447C17.2481 35.9996 16.9683 35.7197 16.6231 35.7197Z" fill="#93978F"/>
</g>
<defs>
<clipPath id="clip0_2925_5057">
<rect width="32" height="32" fill="white" transform="translate(11 12)"/>
</clipPath>
</defs>
</svg>
