<svg width="365" height="66" viewBox="0 0 365 66" fill="none" xmlns="http://www.w3.org/2000/svg">
<path d="M56.1134 14.6429L31.7441 0.587854C31.0494 0.213764 30.1944 0 29.2858 0C28.3773 0 27.5223 0.213764 26.8275 0.587854L2.4583 14.6429C1.06883 15.498 0 17.315 0 18.9182V47.0818C0 48.7385 1.06883 50.5555 2.4583 51.3571L26.8275 65.4122C27.5223 65.7863 28.3773 66 29.2858 66C30.1944 66 31.1028 65.7863 31.7441 65.4122L56.1134 51.3571C57.5029 50.502 58.5717 48.685 58.5717 47.0818V18.9182C58.5717 17.2615 57.5029 15.4445 56.1134 14.6429ZM55.579 47.0284C55.579 47.5628 55.098 48.4178 54.617 48.685L30.2478 62.7401C29.8203 63.0073 28.7514 63.0073 28.3239 62.7401L3.95466 48.685C3.47369 48.4178 2.99271 47.5628 2.99271 47.0284V18.8648C2.99271 18.3304 3.47369 17.4753 3.95466 17.2081L28.3239 3.15304C28.5377 2.99271 28.9118 2.93927 29.2858 2.93927C29.6599 2.93927 30.034 3.04616 30.2478 3.15304L54.617 17.2081C55.098 17.4753 55.579 18.3304 55.579 18.8648V47.0284Z" fill="#63B017"/>
<path d="M49.3267 31.4233C47.9372 29.7667 46.6546 28.5375 45.5858 27.5221C47.4562 26.0258 48.8992 24.2088 48.8992 21.1626C48.8992 18.0096 46.6546 15.4978 43.8222 15.4978C41.0967 15.4978 39.0125 18.063 39.0125 21.1626C39.0125 23.995 39.8141 25.7051 41.0433 27.2015C40.0813 27.8962 39.066 28.6978 37.9971 29.7132C35.7526 27.5221 33.6149 26.1327 31.9048 24.957C33.8821 23.1934 35.1647 21.0023 35.1647 16.9942C35.1647 12.8792 32.7599 9.99338 29.2862 9.93994C25.8125 9.93994 23.4077 12.8792 23.4077 16.9942C23.4077 21.0557 24.7437 23.2468 26.7745 24.957C25.0109 26.0792 22.9267 27.5221 20.6821 29.6598C19.6668 28.6444 18.5979 27.8428 17.636 27.0946C18.8651 25.5983 19.6668 23.8881 19.6668 21.1092C19.6668 17.9561 17.4757 15.4444 14.6433 15.4444C11.9178 15.4444 9.72667 18.0096 9.72667 21.1092C9.72667 24.1553 11.223 25.9189 13.0935 27.4153C12.0246 28.3772 10.6886 29.6598 9.29914 31.3699C7.58902 33.4541 6.62708 36.1796 6.62708 39.1189V44.5165C6.62708 45.0509 6.94772 45.5319 7.37525 45.7991L15.3915 50.5019C15.6052 50.6622 15.8724 50.7157 16.1396 50.7157C16.4068 50.7157 16.674 50.6088 16.8344 50.5019C17.3153 50.2347 17.5825 49.7537 17.5825 49.2193V42.9132C17.5825 38.9051 19.2392 36.2331 20.7356 34.2557C21.751 35.6452 22.6595 37.3553 22.6595 40.5618V53.4412C22.6595 53.9221 22.9267 54.4031 23.3542 54.6703L28.5915 57.9837C28.8052 58.144 29.0724 58.1975 29.3396 58.1975C29.6068 58.1975 29.9275 58.144 30.2481 57.9302L35.4854 54.6169C35.9129 54.3497 36.1801 53.9221 36.1801 53.3877V40.5084C36.1801 37.3553 36.9817 35.6987 37.9971 34.3092C39.4935 36.2865 41.0433 38.9586 41.0433 42.9132V49.2193C41.0433 49.7537 41.3105 50.2347 41.7915 50.5019C42.0587 50.6622 42.2724 50.7157 42.5396 50.7157C42.8069 50.7157 43.0741 50.6088 43.2344 50.5019L51.2506 45.7991C51.7315 45.5319 51.9988 45.0509 51.9988 44.5165V39.1189C51.9453 36.2331 50.9834 33.5076 49.3267 31.4233ZM43.8757 18.4906C44.9445 18.4906 45.9064 19.7197 45.9064 21.1626C45.9064 23.0865 45.1048 24.1019 43.4481 25.3845C42.4862 24.2622 42.0052 23.1399 42.0052 21.1626C42.0052 19.7197 42.8069 18.4906 43.8757 18.4906ZM29.2862 12.9327C31.4238 12.9327 32.172 15.1237 32.172 16.9942C32.172 20.2007 31.2101 21.697 29.2862 23.1934C27.3623 21.697 26.4004 20.2541 26.4004 16.9942C26.4004 15.1237 27.1485 12.9327 29.2862 12.9327ZM14.6433 18.4906C15.7121 18.4906 16.6206 19.7197 16.6206 21.1626C16.6206 23.1399 16.1396 24.2622 15.1777 25.3845C13.521 24.1019 12.6659 23.0865 12.6659 21.1626C12.6659 19.7197 13.5744 18.4906 14.6433 18.4906ZM14.5898 42.9667V46.7076L9.56635 43.7149V39.1723C9.56635 36.9278 10.2611 34.8436 11.5437 33.2938C12.8797 31.5837 14.2157 30.4614 15.338 29.446C15.3914 29.3926 15.4449 29.3391 15.4983 29.2857C16.5137 30.0339 17.636 30.8889 18.7048 31.9578C16.9412 34.2557 14.5898 37.676 14.5898 42.9667ZM33.134 40.5618V52.6395L29.3396 55.0444L25.5987 52.693V40.6153C25.5987 35.9659 24.0489 33.7213 22.606 31.9578C24.8506 29.8201 26.8813 28.4841 28.6983 27.3084C28.9121 27.148 29.1259 27.0412 29.3396 26.8808C29.5534 26.9877 29.7137 27.148 29.9275 27.2549C31.7445 28.4841 33.8287 29.8201 36.0198 32.0112C34.6303 33.7213 33.134 36.0193 33.134 40.5618ZM48.9526 43.7149L43.9291 46.7076V42.9667C43.9291 37.676 41.6311 34.3092 39.8676 32.0112C40.9364 30.9424 42.0587 30.0873 43.1275 29.2857C43.1809 29.3391 43.2344 29.3926 43.2344 29.3926C44.3566 30.408 45.6392 31.5837 46.9753 33.2404H46.9218C48.2044 34.7902 48.8992 36.8744 48.8992 39.1189V43.7149H48.9526Z" fill="#63B017"/>
<path d="M73.5508 49.4163H69.8089C69.6597 49.4163 69.546 49.3771 69.4677 49.2988C69.3931 49.2205 69.3558 49.1087 69.3558 48.9632V42.7715C69.3558 42.6224 69.3931 42.5087 69.4677 42.4304C69.546 42.3558 69.6597 42.3185 69.8089 42.3185H73.5508C73.6663 42.3185 73.754 42.3483 73.8136 42.408C73.8733 42.4676 73.9031 42.5515 73.9031 42.6597C73.9031 42.7753 73.8733 42.8629 73.8136 42.9226C73.754 42.9822 73.6663 43.0121 73.5508 43.0121H70.1613V45.4675H73.3382C73.4538 45.4675 73.5414 45.4954 73.6011 45.5514C73.6608 45.611 73.6906 45.6968 73.6906 45.8087C73.6906 45.9243 73.6608 46.0119 73.6011 46.0715C73.5414 46.1312 73.4538 46.161 73.3382 46.161H70.1613V48.7227H73.5508C73.6663 48.7227 73.754 48.7526 73.8136 48.8122C73.8733 48.8719 73.9031 48.9558 73.9031 49.0639C73.9031 49.1758 73.8733 49.2634 73.8136 49.3268C73.754 49.3865 73.6663 49.4163 73.5508 49.4163ZM77.7401 49.4834C77.6208 49.4834 77.5275 49.4499 77.4604 49.3827C77.3933 49.3119 77.3597 49.2112 77.3597 49.0807V42.6485C77.3597 42.5143 77.3933 42.4136 77.4604 42.3465C77.5275 42.2793 77.6208 42.2458 77.7401 42.2458C77.8482 42.2458 77.934 42.2682 77.9974 42.3129C78.0608 42.3576 78.1186 42.4304 78.1708 42.531L80.9338 47.7215H80.6318L83.378 42.531C83.4302 42.4304 83.488 42.3576 83.5514 42.3129C83.6111 42.2682 83.6969 42.2458 83.8087 42.2458C83.9243 42.2458 84.0157 42.2793 84.0828 42.3465C84.1499 42.4136 84.1835 42.5143 84.1835 42.6485V49.0807C84.1835 49.2112 84.1518 49.3119 84.0884 49.3827C84.025 49.4499 83.9299 49.4834 83.8031 49.4834C83.6801 49.4834 83.585 49.4499 83.5179 49.3827C83.4508 49.3119 83.4172 49.2112 83.4172 49.0807V43.426H83.6577L81.1408 48.1466C81.096 48.2324 81.0475 48.2939 80.9953 48.3312C80.9469 48.3685 80.876 48.3871 80.7828 48.3871C80.6858 48.3871 80.6113 48.3666 80.5591 48.3256C80.5069 48.2883 80.4602 48.2287 80.4192 48.1466L77.8687 43.4148H78.1148V49.0807C78.1148 49.2112 78.0813 49.3119 78.0141 49.3827C77.9508 49.4499 77.8594 49.4834 77.7401 49.4834ZM88.4735 49.4834C88.3392 49.4834 88.2367 49.4461 88.1658 49.3716C88.095 49.2932 88.0596 49.187 88.0596 49.0527V42.738C88.0596 42.6 88.0969 42.4956 88.1714 42.4248C88.246 42.3539 88.3504 42.3185 88.4847 42.3185H90.8674C91.628 42.3185 92.2116 42.5049 92.618 42.8778C93.0282 43.2507 93.2333 43.7746 93.2333 44.4495C93.2333 45.1207 93.0282 45.6446 92.618 46.0212C92.2116 46.3978 91.628 46.5861 90.8674 46.5861H88.8874V49.0527C88.8874 49.187 88.8538 49.2932 88.7867 49.3716C88.7196 49.4461 88.6152 49.4834 88.4735 49.4834ZM88.8874 43.0009V45.8926H90.7667C91.3111 45.8926 91.7231 45.7695 92.0028 45.5234C92.2787 45.2773 92.4167 44.9193 92.4167 44.4495C92.4167 43.976 92.2787 43.6161 92.0028 43.37C91.7231 43.1239 91.3111 43.0009 90.7667 43.0009H88.8874ZM99.4474 49.5058C98.7874 49.5058 98.215 49.3566 97.7303 49.0583C97.2418 48.76 96.8652 48.3387 96.6004 47.7943C96.3357 47.2499 96.2033 46.6048 96.2033 45.859C96.2033 45.296 96.2797 44.7907 96.4326 44.3432C96.5818 43.8995 96.7981 43.521 97.0814 43.2078C97.3611 42.8946 97.7023 42.6522 98.105 42.4807C98.504 42.3129 98.9514 42.229 99.4474 42.229C100.119 42.229 100.697 42.3763 101.181 42.6709C101.67 42.9654 102.046 43.3831 102.311 43.9238C102.576 44.4644 102.708 45.1076 102.708 45.8534C102.708 46.4165 102.632 46.9217 102.479 47.3692C102.322 47.8204 102.104 48.2044 101.824 48.5214C101.541 48.8346 101.2 49.077 100.801 49.2485C100.402 49.42 99.9508 49.5058 99.4474 49.5058ZM99.4474 48.7731C99.9582 48.7731 100.389 48.6575 100.739 48.4263C101.094 48.1988 101.364 47.867 101.55 47.4307C101.737 46.9944 101.83 46.4705 101.83 45.859C101.83 44.9417 101.625 44.2295 101.215 43.7224C100.801 43.2153 100.212 42.9617 99.4474 42.9617C98.9514 42.9617 98.5264 43.0754 98.1721 43.3029C97.8216 43.5304 97.5513 43.8604 97.3611 44.2929C97.1747 44.7292 97.0814 45.2512 97.0814 45.859C97.0814 46.7726 97.2884 47.4866 97.7023 48.0012C98.1199 48.5158 98.7016 48.7731 99.4474 48.7731ZM108.419 49.4834C108.296 49.4834 108.197 49.4517 108.122 49.3883C108.052 49.3249 107.992 49.2299 107.943 49.1031L105.717 42.7492C105.673 42.6075 105.686 42.4882 105.757 42.3912C105.824 42.2943 105.936 42.2458 106.092 42.2458C106.204 42.2458 106.293 42.2737 106.361 42.3297C106.428 42.3893 106.486 42.4788 106.534 42.5982L108.62 48.7115H108.268L110.388 42.6317C110.436 42.5012 110.494 42.4043 110.561 42.3409C110.628 42.2775 110.72 42.2458 110.835 42.2458C110.94 42.2458 111.025 42.2775 111.092 42.3409C111.156 42.4043 111.21 42.5012 111.255 42.6317L113.352 48.7115H113.039L115.142 42.5982C115.176 42.4863 115.228 42.3987 115.299 42.3353C115.369 42.2756 115.461 42.2458 115.573 42.2458C115.714 42.2458 115.819 42.2924 115.886 42.3856C115.953 42.4826 115.96 42.6038 115.908 42.7492L113.671 49.1031C113.626 49.2299 113.568 49.3249 113.498 49.3883C113.427 49.4517 113.328 49.4834 113.201 49.4834C113.078 49.4834 112.981 49.4517 112.91 49.3883C112.839 49.3249 112.778 49.2299 112.726 49.1031L110.701 43.2749H110.925L108.878 49.1031C108.833 49.2299 108.777 49.3249 108.71 49.3883C108.643 49.4517 108.546 49.4834 108.419 49.4834ZM123.537 49.4163H119.796C119.646 49.4163 119.533 49.3771 119.454 49.2988C119.38 49.2205 119.342 49.1087 119.342 48.9632V42.7715C119.342 42.6224 119.38 42.5087 119.454 42.4304C119.533 42.3558 119.646 42.3185 119.796 42.3185H123.537C123.653 42.3185 123.741 42.3483 123.8 42.408C123.86 42.4676 123.89 42.5515 123.89 42.6597C123.89 42.7753 123.86 42.8629 123.8 42.9226C123.741 42.9822 123.653 43.0121 123.537 43.0121H120.148V45.4675H123.325C123.44 45.4675 123.528 45.4954 123.588 45.5514C123.647 45.611 123.677 45.6968 123.677 45.8087C123.677 45.9243 123.647 46.0119 123.588 46.0715C123.528 46.1312 123.44 46.161 123.325 46.161H120.148V48.7227H123.537C123.653 48.7227 123.741 48.7526 123.8 48.8122C123.86 48.8719 123.89 48.9558 123.89 49.0639C123.89 49.1758 123.86 49.2634 123.8 49.3268C123.741 49.3865 123.653 49.4163 123.537 49.4163ZM127.738 49.4834C127.604 49.4834 127.501 49.4461 127.43 49.3716C127.359 49.2932 127.324 49.187 127.324 49.0527V42.738C127.324 42.6 127.361 42.4956 127.436 42.4248C127.51 42.3539 127.615 42.3185 127.749 42.3185H130.132C130.892 42.3185 131.476 42.4956 131.882 42.8499C132.293 43.2078 132.498 43.7149 132.498 44.3712C132.498 44.7888 132.406 45.1487 132.224 45.4507C132.037 45.7565 131.767 45.9895 131.413 46.1499C131.055 46.3065 130.628 46.3848 130.132 46.3848L130.232 46.2561H130.434C130.695 46.2561 130.924 46.3232 131.122 46.4575C131.316 46.5917 131.493 46.8061 131.653 47.1007L132.621 48.9017C132.673 48.9949 132.697 49.0863 132.693 49.1758C132.69 49.269 132.658 49.3436 132.598 49.3995C132.539 49.4554 132.451 49.4834 132.336 49.4834C132.224 49.4834 132.13 49.4573 132.056 49.4051C131.981 49.3529 131.918 49.2765 131.866 49.1758L130.769 47.1399C130.613 46.8527 130.434 46.6588 130.232 46.5582C130.031 46.4612 129.766 46.4127 129.438 46.4127H128.152V49.0527C128.152 49.187 128.118 49.2932 128.051 49.3716C127.984 49.4461 127.88 49.4834 127.738 49.4834ZM128.152 43.0009V45.7583H130.014C130.562 45.7583 130.978 45.6427 131.262 45.4115C131.541 45.1804 131.681 44.8336 131.681 44.3712C131.681 43.92 131.541 43.5788 131.262 43.3476C130.978 43.1165 130.562 43.0009 130.014 43.0009H128.152ZM136.586 49.4834C136.452 49.4834 136.35 49.4461 136.279 49.3716C136.208 49.2932 136.172 49.187 136.172 49.0527V42.6821C136.172 42.5404 136.208 42.4322 136.279 42.3576C136.35 42.2831 136.452 42.2458 136.586 42.2458C136.721 42.2458 136.823 42.2831 136.894 42.3576C136.965 42.4322 137 42.5404 137 42.6821V49.0527C137 49.187 136.967 49.2932 136.9 49.3716C136.832 49.4461 136.728 49.4834 136.586 49.4834ZM141.268 49.4834C141.141 49.4834 141.044 49.4499 140.977 49.3827C140.91 49.3119 140.876 49.2093 140.876 49.0751V42.6709C140.876 42.5366 140.91 42.4322 140.977 42.3576C141.044 42.2831 141.132 42.2458 141.24 42.2458C141.344 42.2458 141.423 42.2644 141.475 42.3017C141.523 42.339 141.581 42.4043 141.648 42.4975L146.039 48.348H145.798V42.6485C145.798 42.5217 145.832 42.4229 145.899 42.3521C145.966 42.2812 146.063 42.2458 146.19 42.2458C146.313 42.2458 146.406 42.2812 146.47 42.3521C146.533 42.4229 146.565 42.5217 146.565 42.6485V49.0807C146.565 49.2112 146.537 49.3119 146.481 49.3827C146.421 49.4499 146.337 49.4834 146.229 49.4834C146.128 49.4834 146.048 49.4648 145.989 49.4275C145.929 49.3865 145.866 49.3212 145.798 49.2317L141.419 43.3868H141.648V49.0751C141.648 49.2093 141.615 49.3119 141.548 49.3827C141.48 49.4499 141.387 49.4834 141.268 49.4834ZM153.679 49.5058C152.922 49.5058 152.285 49.3622 151.766 49.0751C151.244 48.7843 150.849 48.3666 150.581 47.8222C150.312 47.2815 150.178 46.6309 150.178 45.8702C150.178 45.3071 150.254 44.8 150.407 44.3488C150.556 43.9014 150.776 43.521 151.067 43.2078C151.362 42.8946 151.718 42.6522 152.136 42.4807C152.557 42.3129 153.032 42.229 153.562 42.229C153.983 42.229 154.391 42.2868 154.787 42.4024C155.186 42.5217 155.538 42.7082 155.844 42.9617C155.926 43.0214 155.976 43.0885 155.995 43.1631C156.017 43.2376 156.017 43.3122 155.995 43.3868C155.969 43.4576 155.931 43.5192 155.883 43.5714C155.831 43.6199 155.767 43.6478 155.693 43.6553C155.615 43.6627 155.534 43.6404 155.452 43.5882C155.176 43.3719 154.886 43.2153 154.58 43.1183C154.27 43.0214 153.927 42.9729 153.551 42.9729C153.014 42.9729 152.559 43.0866 152.186 43.3141C151.813 43.5415 151.531 43.8697 151.341 44.2985C151.151 44.731 151.056 45.2549 151.056 45.8702C151.056 46.8099 151.276 47.5277 151.716 48.0236C152.152 48.5232 152.814 48.7731 153.702 48.7731C154.022 48.7731 154.337 48.7414 154.647 48.678C154.956 48.6109 155.249 48.5214 155.525 48.4095L155.34 48.8793V46.3736H153.903C153.784 46.3736 153.692 46.3438 153.629 46.2841C153.569 46.2244 153.539 46.1443 153.539 46.0436C153.539 45.9354 153.569 45.8553 153.629 45.8031C153.692 45.7471 153.784 45.7192 153.903 45.7192H155.704C155.82 45.7192 155.907 45.749 155.967 45.8087C156.027 45.8721 156.056 45.9597 156.056 46.0715V48.7004C156.056 48.801 156.04 48.8849 156.006 48.9521C155.972 49.0192 155.917 49.0695 155.838 49.1031C155.555 49.2187 155.217 49.3138 154.826 49.3883C154.431 49.4666 154.048 49.5058 153.679 49.5058ZM164.989 49.4834C164.855 49.4834 164.752 49.4461 164.681 49.3716C164.61 49.2932 164.575 49.187 164.575 49.0527V42.6821C164.575 42.5404 164.61 42.4322 164.681 42.3576C164.752 42.2831 164.855 42.2458 164.989 42.2458C165.123 42.2458 165.226 42.2831 165.296 42.3576C165.367 42.4322 165.403 42.5404 165.403 42.6821V45.4563H169.659V42.6821C169.659 42.5404 169.695 42.4322 169.765 42.3576C169.836 42.2831 169.939 42.2458 170.073 42.2458C170.207 42.2458 170.31 42.2831 170.381 42.3576C170.451 42.4322 170.487 42.5404 170.487 42.6821V49.0527C170.487 49.187 170.451 49.2932 170.381 49.3716C170.31 49.4461 170.207 49.4834 170.073 49.4834C169.939 49.4834 169.836 49.4461 169.765 49.3716C169.695 49.2932 169.659 49.187 169.659 49.0527V46.1722H165.403V49.0527C165.403 49.187 165.369 49.2932 165.302 49.3716C165.235 49.4461 165.13 49.4834 164.989 49.4834ZM178.547 49.4163H174.805C174.656 49.4163 174.544 49.3771 174.469 49.2988C174.391 49.2205 174.352 49.1087 174.352 48.9632V42.7715C174.352 42.6224 174.391 42.5087 174.469 42.4304C174.544 42.3558 174.656 42.3185 174.805 42.3185H178.547C178.662 42.3185 178.75 42.3483 178.81 42.408C178.869 42.4676 178.899 42.5515 178.899 42.6597C178.899 42.7753 178.869 42.8629 178.81 42.9226C178.75 42.9822 178.662 43.0121 178.547 43.0121H175.157V45.4675H178.34C178.452 45.4675 178.537 45.4954 178.597 45.5514C178.66 45.611 178.692 45.6968 178.692 45.8087C178.692 45.9243 178.66 46.0119 178.597 46.0715C178.537 46.1312 178.452 46.161 178.34 46.161H175.157V48.7227H178.547C178.662 48.7227 178.75 48.7526 178.81 48.8122C178.869 48.8719 178.899 48.9558 178.899 49.0639C178.899 49.1758 178.869 49.2634 178.81 49.3268C178.75 49.3865 178.662 49.4163 178.547 49.4163ZM182.747 49.4834C182.613 49.4834 182.51 49.4461 182.44 49.3716C182.369 49.2932 182.333 49.187 182.333 49.0527V42.738C182.333 42.6 182.371 42.4956 182.445 42.4248C182.52 42.3539 182.624 42.3185 182.758 42.3185H185.141C185.902 42.3185 186.487 42.4956 186.897 42.8499C187.304 43.2078 187.507 43.7149 187.507 44.3712C187.507 44.7888 187.416 45.1487 187.233 45.4507C187.047 45.7565 186.776 45.9895 186.422 46.1499C186.068 46.3065 185.641 46.3848 185.141 46.3848L185.242 46.2561H185.443C185.708 46.2561 185.937 46.3232 186.131 46.4575C186.325 46.5917 186.502 46.8061 186.662 47.1007L187.63 48.9017C187.682 48.9949 187.708 49.0863 187.708 49.1758C187.705 49.269 187.671 49.3436 187.608 49.3995C187.548 49.4554 187.462 49.4834 187.35 49.4834C187.235 49.4834 187.14 49.4573 187.065 49.4051C186.991 49.3529 186.927 49.2765 186.875 49.1758L185.779 47.1399C185.622 46.8527 185.443 46.6588 185.242 46.5582C185.04 46.4612 184.776 46.4127 184.448 46.4127H183.161V49.0527C183.161 49.187 183.128 49.2932 183.06 49.3716C182.993 49.4461 182.889 49.4834 182.747 49.4834ZM183.161 43.0009V45.7583H185.024C185.572 45.7583 185.988 45.6427 186.271 45.4115C186.554 45.1804 186.696 44.8336 186.696 44.3712C186.696 43.92 186.554 43.5788 186.271 43.3476C185.988 43.1165 185.572 43.0009 185.024 43.0009H183.161ZM194.113 49.5058C193.456 49.5058 192.884 49.3566 192.396 49.0583C191.911 48.76 191.536 48.3387 191.271 47.7943C191.007 47.2499 190.874 46.6048 190.874 45.859C190.874 45.296 190.949 44.7907 191.098 44.3432C191.251 43.8995 191.467 43.521 191.747 43.2078C192.03 42.8946 192.371 42.6522 192.77 42.4807C193.169 42.3129 193.617 42.229 194.113 42.229C194.784 42.229 195.364 42.3763 195.852 42.6709C196.337 42.9654 196.712 43.3831 196.976 43.9238C197.241 44.4644 197.374 45.1076 197.374 45.8534C197.374 46.4165 197.297 46.9217 197.144 47.3692C196.991 47.8204 196.773 48.2044 196.49 48.5214C196.206 48.8346 195.865 49.077 195.466 49.2485C195.067 49.42 194.616 49.5058 194.113 49.5058ZM194.113 48.7731C194.624 48.7731 195.056 48.6575 195.41 48.4263C195.761 48.1988 196.029 47.867 196.216 47.4307C196.406 46.9944 196.501 46.4705 196.501 45.859C196.501 44.9417 196.294 44.2295 195.88 43.7224C195.466 43.2153 194.877 42.9617 194.113 42.9617C193.617 42.9617 193.194 43.0754 192.843 43.3029C192.489 43.5304 192.218 43.8604 192.032 44.2929C191.842 44.7292 191.747 45.2512 191.747 45.859C191.747 46.7726 191.956 47.4866 192.373 48.0012C192.787 48.5158 193.367 48.7731 194.113 48.7731ZM205.17 49.4163H201.423C201.274 49.4163 201.162 49.3771 201.087 49.2988C201.009 49.2205 200.97 49.1087 200.97 48.9632V42.7715C200.97 42.6224 201.009 42.5087 201.087 42.4304C201.162 42.3558 201.274 42.3185 201.423 42.3185H205.17C205.282 42.3185 205.368 42.3483 205.428 42.408C205.491 42.4676 205.523 42.5515 205.523 42.6597C205.523 42.7753 205.491 42.8629 205.428 42.9226C205.368 42.9822 205.282 43.0121 205.17 43.0121H201.775V45.4675H204.958C205.07 45.4675 205.157 45.4954 205.221 45.5514C205.28 45.611 205.31 45.6968 205.31 45.8087C205.31 45.9243 205.28 46.0119 205.221 46.0715C205.157 46.1312 205.07 46.161 204.958 46.161H201.775V48.7227H205.17C205.282 48.7227 205.368 48.7526 205.428 48.8122C205.491 48.8719 205.523 48.9558 205.523 49.0639C205.523 49.1758 205.491 49.2634 205.428 49.3268C205.368 49.3865 205.282 49.4163 205.17 49.4163ZM211.15 49.5058C210.833 49.5058 210.523 49.4797 210.221 49.4275C209.919 49.3715 209.639 49.2932 209.382 49.1926C209.125 49.0919 208.892 48.9651 208.683 48.8122C208.601 48.7526 208.545 48.6836 208.515 48.6053C208.485 48.527 208.48 48.4505 208.498 48.376C208.513 48.2977 208.547 48.2305 208.599 48.1746C208.648 48.1224 208.709 48.0926 208.784 48.0851C208.858 48.0777 208.938 48.1019 209.024 48.1578C209.326 48.3704 209.649 48.527 209.992 48.6277C210.335 48.7246 210.721 48.7731 211.15 48.7731C211.754 48.7731 212.201 48.6593 212.492 48.4319C212.783 48.2082 212.928 47.9117 212.928 47.5426C212.928 47.2405 212.824 47.0038 212.615 46.8322C212.403 46.6607 212.048 46.5246 211.552 46.4239L210.506 46.2114C209.872 46.0771 209.401 45.8571 209.091 45.5514C208.778 45.2493 208.621 44.8429 208.621 44.3321C208.621 44.0151 208.685 43.728 208.812 43.4707C208.938 43.2134 209.117 42.9915 209.349 42.8051C209.576 42.6224 209.846 42.4807 210.16 42.38C210.477 42.2793 210.827 42.229 211.211 42.229C211.633 42.229 212.026 42.2868 212.391 42.4024C212.757 42.5217 213.087 42.6988 213.381 42.9338C213.456 42.9934 213.506 43.0605 213.532 43.1351C213.562 43.2134 213.566 43.288 213.544 43.3588C213.525 43.4297 213.489 43.4893 213.437 43.5378C213.389 43.5826 213.325 43.6087 213.247 43.6161C213.169 43.6236 213.083 43.5975 212.99 43.5378C212.721 43.3365 212.444 43.1892 212.156 43.096C211.866 43.0065 211.547 42.9617 211.2 42.9617C210.842 42.9617 210.534 43.0158 210.277 43.1239C210.02 43.2321 209.818 43.3868 209.673 43.5882C209.528 43.7932 209.455 44.03 209.455 44.2985C209.455 44.6229 209.556 44.8783 209.757 45.0648C209.955 45.2549 210.277 45.3929 210.725 45.4787L211.77 45.7024C212.449 45.8404 212.953 46.0529 213.281 46.34C213.605 46.6234 213.767 47.0112 213.767 47.5034C213.767 47.798 213.706 48.0702 213.583 48.32C213.463 48.5661 213.29 48.7787 213.063 48.9577C212.835 49.1366 212.559 49.2727 212.235 49.366C211.914 49.4592 211.552 49.5058 211.15 49.5058ZM222.314 49.4834C222.172 49.4834 222.064 49.4461 221.989 49.3716C221.911 49.2932 221.872 49.1795 221.872 49.0304V42.7715C221.872 42.6224 221.911 42.5087 221.989 42.4304C222.064 42.3558 222.176 42.3185 222.325 42.3185H225.977C226.093 42.3185 226.18 42.3483 226.24 42.408C226.3 42.4676 226.33 42.5515 226.33 42.6597C226.33 42.7753 226.3 42.8629 226.24 42.9226C226.18 42.9822 226.093 43.0121 225.977 43.0121H222.694V45.4899H225.765C225.88 45.4899 225.97 45.5197 226.033 45.5793C226.097 45.639 226.128 45.7229 226.128 45.831C226.128 45.9466 226.097 46.0343 226.033 46.0939C225.97 46.1536 225.88 46.1834 225.765 46.1834H222.694V49.0304C222.694 49.3324 222.567 49.4834 222.314 49.4834ZM232.309 49.5058C231.653 49.5058 231.08 49.3566 230.592 49.0583C230.107 48.76 229.732 48.3387 229.467 47.7943C229.203 47.2499 229.07 46.6048 229.07 45.859C229.07 45.296 229.145 44.7907 229.294 44.3432C229.447 43.8995 229.663 43.521 229.943 43.2078C230.226 42.8946 230.567 42.6522 230.966 42.4807C231.365 42.3129 231.813 42.229 232.309 42.229C232.98 42.229 233.56 42.3763 234.048 42.6709C234.533 42.9654 234.908 43.3831 235.173 43.9238C235.441 44.4644 235.575 45.1076 235.575 45.8534C235.575 46.4165 235.497 46.9217 235.34 47.3692C235.187 47.8204 234.969 48.2044 234.686 48.5214C234.406 48.8346 234.065 49.077 233.662 49.2485C233.263 49.42 232.812 49.5058 232.309 49.5058ZM232.309 48.7731C232.82 48.7731 233.252 48.6575 233.606 48.4263C233.957 48.1988 234.227 47.867 234.417 47.4307C234.604 46.9944 234.697 46.4705 234.697 45.859C234.697 44.9417 234.49 44.2295 234.076 43.7224C233.666 43.2153 233.077 42.9617 232.309 42.9617C231.813 42.9617 231.39 43.0754 231.039 43.3029C230.685 43.5304 230.415 43.8604 230.228 44.2929C230.038 44.7292 229.943 45.2512 229.943 45.859C229.943 46.7726 230.152 47.4866 230.569 48.0012C230.987 48.5158 231.567 48.7731 232.309 48.7731ZM239.58 49.4834C239.446 49.4834 239.343 49.4461 239.272 49.3716C239.201 49.2932 239.166 49.187 239.166 49.0527V42.738C239.166 42.6 239.203 42.4956 239.278 42.4248C239.353 42.3539 239.457 42.3185 239.591 42.3185H241.974C242.735 42.3185 243.32 42.4956 243.73 42.8499C244.137 43.2078 244.34 43.7149 244.34 44.3712C244.34 44.7888 244.248 45.1487 244.066 45.4507C243.879 45.7565 243.609 45.9895 243.255 46.1499C242.9 46.3065 242.474 46.3848 241.974 46.3848L242.075 46.2561H242.276C242.541 46.2561 242.77 46.3232 242.964 46.4575C243.158 46.5917 243.335 46.8061 243.495 47.1007L244.463 48.9017C244.515 48.9949 244.539 49.0863 244.536 49.1758C244.536 49.269 244.504 49.3436 244.44 49.3995C244.381 49.4554 244.295 49.4834 244.183 49.4834C244.068 49.4834 243.973 49.4573 243.898 49.4051C243.823 49.3529 243.76 49.2765 243.708 49.1758L242.611 47.1399C242.455 46.8527 242.276 46.6588 242.075 46.5582C241.873 46.4612 241.608 46.4127 241.28 46.4127H239.994V49.0527C239.994 49.187 239.96 49.2932 239.893 49.3716C239.826 49.4461 239.722 49.4834 239.58 49.4834ZM239.994 43.0009V45.7583H241.856C242.405 45.7583 242.82 45.6427 243.104 45.4115C243.387 45.1804 243.529 44.8336 243.529 44.3712C243.529 43.92 243.387 43.5788 243.104 43.3476C242.82 43.1165 242.405 43.0009 241.856 43.0009H239.994ZM252.579 49.4834C252.47 49.4834 252.385 49.4592 252.321 49.4107C252.258 49.3585 252.221 49.2914 252.209 49.2093C252.198 49.1236 252.217 49.0285 252.265 48.9241L255.034 42.6205C255.094 42.4863 255.166 42.3893 255.252 42.3297C255.334 42.2737 255.426 42.2458 255.526 42.2458C255.627 42.2458 255.72 42.2737 255.806 42.3297C255.888 42.3893 255.957 42.4863 256.013 42.6205L258.787 48.9241C258.843 49.0285 258.865 49.1254 258.854 49.2149C258.843 49.3007 258.808 49.3678 258.748 49.4163C258.688 49.461 258.604 49.4834 258.496 49.4834C258.377 49.4834 258.28 49.4517 258.205 49.3883C258.131 49.3249 258.071 49.2336 258.026 49.1143L257.277 47.3915L257.68 47.6041H253.35L253.764 47.3915L253.032 49.1143C252.972 49.241 252.909 49.3343 252.842 49.3939C252.774 49.4536 252.687 49.4834 252.579 49.4834ZM255.537 43.2861H255.515L253.899 47.1007L253.653 46.9105H257.378L257.159 47.1007L255.537 43.2861ZM267.289 49.4834C267.158 49.4834 267.059 49.4499 266.992 49.3827C266.925 49.3119 266.892 49.2093 266.892 49.0751V42.6709C266.892 42.5366 266.925 42.4322 266.992 42.3576C267.059 42.2831 267.147 42.2458 267.255 42.2458C267.363 42.2458 267.442 42.2644 267.49 42.3017C267.542 42.339 267.602 42.4043 267.669 42.4975L272.06 48.348H271.819V42.6485C271.819 42.5217 271.853 42.4229 271.92 42.3521C271.987 42.2812 272.084 42.2458 272.211 42.2458C272.33 42.2458 272.422 42.2812 272.485 42.3521C272.548 42.4229 272.58 42.5217 272.58 42.6485V49.0807C272.58 49.2112 272.552 49.3119 272.496 49.3827C272.44 49.4499 272.358 49.4834 272.25 49.4834C272.149 49.4834 272.069 49.4648 272.009 49.4275C271.95 49.3865 271.886 49.3212 271.819 49.2317L267.44 43.3868H267.669V49.0751C267.669 49.2093 267.636 49.3119 267.568 49.3827C267.501 49.4499 267.408 49.4834 267.289 49.4834ZM280.657 49.4163H276.909C276.764 49.4163 276.652 49.3771 276.574 49.2988C276.495 49.2205 276.456 49.1087 276.456 48.9632V42.7715C276.456 42.6224 276.495 42.5087 276.574 42.4304C276.652 42.3558 276.764 42.3185 276.909 42.3185H280.657C280.772 42.3185 280.86 42.3483 280.919 42.408C280.979 42.4676 281.009 42.5515 281.009 42.6597C281.009 42.7753 280.979 42.8629 280.919 42.9226C280.86 42.9822 280.772 43.0121 280.657 43.0121H277.262V45.4675H280.444C280.56 45.4675 280.647 45.4954 280.707 45.5514C280.767 45.611 280.796 45.6968 280.796 45.8087C280.796 45.9243 280.767 46.0119 280.707 46.0715C280.647 46.1312 280.56 46.161 280.444 46.161H277.262V48.7227H280.657C280.772 48.7227 280.86 48.7526 280.919 48.8122C280.979 48.8719 281.009 48.9558 281.009 49.0639C281.009 49.1758 280.979 49.2634 280.919 49.3268C280.86 49.3865 280.772 49.4163 280.657 49.4163ZM286.647 49.4834C286.528 49.4834 286.431 49.4517 286.356 49.3883C286.282 49.3249 286.22 49.2299 286.172 49.1031L283.951 42.7492C283.903 42.6075 283.914 42.4882 283.985 42.3912C284.055 42.2943 284.167 42.2458 284.32 42.2458C284.436 42.2458 284.527 42.2737 284.594 42.3297C284.661 42.3893 284.717 42.4788 284.762 42.5982L286.848 48.7115H286.496L288.621 42.6317C288.666 42.5012 288.722 42.4043 288.789 42.3409C288.856 42.2775 288.948 42.2458 289.063 42.2458C289.171 42.2458 289.257 42.2775 289.321 42.3409C289.384 42.4043 289.44 42.5012 289.488 42.6317L291.58 48.7115H291.267L293.37 42.5982C293.404 42.4863 293.456 42.3987 293.527 42.3353C293.597 42.2756 293.691 42.2458 293.806 42.2458C293.948 42.2458 294.052 42.2924 294.12 42.3856C294.187 42.4826 294.192 42.6038 294.136 42.7492L291.905 49.1031C291.856 49.2299 291.796 49.3249 291.726 49.3883C291.655 49.4517 291.556 49.4834 291.429 49.4834C291.31 49.4834 291.215 49.4517 291.144 49.3883C291.073 49.3249 291.01 49.2299 290.954 49.1031L288.935 43.2749H289.153L287.111 49.1031C287.063 49.2299 287.005 49.3249 286.938 49.3883C286.871 49.4517 286.774 49.4834 286.647 49.4834ZM302.727 49.4834C302.586 49.4834 302.476 49.4461 302.397 49.3716C302.319 49.2932 302.28 49.1795 302.28 49.0304V42.7715C302.28 42.6224 302.319 42.5087 302.397 42.4304C302.476 42.3558 302.588 42.3185 302.733 42.3185H306.391C306.503 42.3185 306.591 42.3483 306.654 42.408C306.714 42.4676 306.743 42.5515 306.743 42.6597C306.743 42.7753 306.714 42.8629 306.654 42.9226C306.591 42.9822 306.503 43.0121 306.391 43.0121H303.108V45.4899H306.178C306.294 45.4899 306.384 45.5197 306.447 45.5793C306.51 45.639 306.542 45.7229 306.542 45.831C306.542 45.9466 306.51 46.0343 306.447 46.0939C306.384 46.1536 306.294 46.1834 306.178 46.1834H303.108V49.0304C303.108 49.3324 302.981 49.4834 302.727 49.4834ZM310.329 49.4834C310.194 49.4834 310.092 49.4461 310.021 49.3716C309.95 49.2932 309.915 49.187 309.915 49.0527V42.738C309.915 42.6 309.952 42.4956 310.027 42.4248C310.097 42.3539 310.2 42.3185 310.334 42.3185H312.723C313.48 42.3185 314.063 42.4956 314.473 42.8499C314.883 43.2078 315.088 43.7149 315.088 44.3712C315.088 44.7888 314.995 45.1487 314.809 45.4507C314.626 45.7565 314.358 45.9895 314.003 46.1499C313.645 46.3065 313.218 46.3848 312.723 46.3848L312.823 46.2561H313.025C313.286 46.2561 313.513 46.3232 313.707 46.4575C313.905 46.5917 314.084 46.8061 314.244 47.1007L315.212 48.9017C315.264 48.9949 315.288 49.0863 315.284 49.1758C315.281 49.269 315.249 49.3436 315.189 49.3995C315.13 49.4554 315.042 49.4834 314.926 49.4834C314.814 49.4834 314.721 49.4573 314.647 49.4051C314.572 49.3529 314.509 49.2765 314.456 49.1758L313.355 47.1399C313.202 46.8527 313.025 46.6588 312.823 46.5582C312.622 46.4612 312.357 46.4127 312.029 46.4127H310.737V49.0527C310.737 49.187 310.703 49.2932 310.636 49.3716C310.569 49.4461 310.467 49.4834 310.329 49.4834ZM310.737 43.0009V45.7583H312.6C313.151 45.7583 313.569 45.6427 313.852 45.4115C314.132 45.1804 314.272 44.8336 314.272 44.3712C314.272 43.92 314.132 43.5788 313.852 43.3476C313.569 43.1165 313.151 43.0009 312.6 43.0009H310.737ZM321.694 49.5058C321.034 49.5058 320.462 49.3566 319.977 49.0583C319.488 48.76 319.112 48.3387 318.847 47.7943C318.582 47.2499 318.45 46.6048 318.45 45.859C318.45 45.296 318.526 44.7907 318.679 44.3432C318.828 43.8995 319.045 43.521 319.328 43.2078C319.608 42.8946 319.947 42.6522 320.346 42.4807C320.749 42.3129 321.198 42.229 321.694 42.229C322.365 42.229 322.943 42.3763 323.428 42.6709C323.916 42.9654 324.293 43.3831 324.558 43.9238C324.823 44.4644 324.955 45.1076 324.955 45.8534C324.955 46.4165 324.879 46.9217 324.726 47.3692C324.569 47.8204 324.351 48.2044 324.071 48.5214C323.788 48.8346 323.447 49.077 323.048 49.2485C322.649 49.42 322.197 49.5058 321.694 49.5058ZM321.694 48.7731C322.205 48.7731 322.636 48.6575 322.986 48.4263C323.34 48.1988 323.611 47.867 323.797 47.4307C323.984 46.9944 324.077 46.4705 324.077 45.859C324.077 44.9417 323.872 44.2295 323.462 43.7224C323.048 43.2153 322.458 42.9617 321.694 42.9617C321.198 42.9617 320.773 43.0754 320.419 43.3029C320.068 43.5304 319.798 43.8604 319.608 44.2929C319.421 44.7292 319.328 45.2512 319.328 45.859C319.328 46.7726 319.535 47.4866 319.949 48.0012C320.367 48.5158 320.948 48.7731 321.694 48.7731ZM328.943 49.4834C328.816 49.4834 328.719 49.4499 328.652 49.3827C328.585 49.3119 328.551 49.2093 328.551 49.0751V42.6709C328.551 42.5366 328.585 42.4322 328.652 42.3576C328.719 42.2831 328.805 42.2458 328.909 42.2458C329.017 42.2458 329.098 42.2644 329.15 42.3017C329.198 42.339 329.256 42.4043 329.323 42.4975L333.714 48.348H333.473V42.6485C333.473 42.5217 333.507 42.4229 333.574 42.3521C333.641 42.2812 333.738 42.2458 333.865 42.2458C333.984 42.2458 334.076 42.2812 334.139 42.3521C334.206 42.4229 334.24 42.5217 334.24 42.6485V49.0807C334.24 49.2112 334.21 49.3119 334.15 49.3827C334.094 49.4499 334.012 49.4834 333.904 49.4834C333.803 49.4834 333.723 49.4648 333.664 49.4275C333.604 49.3865 333.541 49.3212 333.473 49.2317L329.094 43.3868H329.323V49.0751C329.323 49.2093 329.29 49.3119 329.223 49.3827C329.155 49.4499 329.062 49.4834 328.943 49.4834ZM340.269 49.4834C340.142 49.4834 340.042 49.4461 339.967 49.3716C339.893 49.2932 339.855 49.187 339.855 49.0527V43.0344H337.59C337.471 43.0344 337.378 43.0009 337.31 42.9338C337.243 42.8666 337.21 42.779 337.21 42.6709C337.21 42.5553 337.243 42.4676 337.31 42.408C337.378 42.3483 337.471 42.3185 337.59 42.3185H342.954C343.077 42.3185 343.172 42.3483 343.239 42.408C343.306 42.4676 343.34 42.5553 343.34 42.6709C343.34 42.7827 343.306 42.8704 343.239 42.9338C343.172 43.0009 343.077 43.0344 342.954 43.0344H340.689V49.0527C340.689 49.187 340.653 49.2932 340.582 49.3716C340.515 49.4461 340.411 49.4834 340.269 49.4834ZM346.701 49.4834C346.567 49.4834 346.465 49.4461 346.394 49.3716C346.323 49.2932 346.287 49.187 346.287 49.0527V42.6821C346.287 42.5404 346.323 42.4322 346.394 42.3576C346.465 42.2831 346.567 42.2458 346.701 42.2458C346.836 42.2458 346.938 42.2831 347.009 42.3576C347.08 42.4322 347.115 42.5404 347.115 42.6821V49.0527C347.115 49.187 347.082 49.2932 347.015 49.3716C346.947 49.4461 346.843 49.4834 346.701 49.4834ZM355.186 49.4163H351.444C351.295 49.4163 351.182 49.3771 351.103 49.2988C351.029 49.2205 350.991 49.1087 350.991 48.9632V42.7715C350.991 42.6224 351.029 42.5087 351.103 42.4304C351.182 42.3558 351.295 42.3185 351.444 42.3185H355.186C355.302 42.3185 355.39 42.3483 355.449 42.408C355.509 42.4676 355.539 42.5515 355.539 42.6597C355.539 42.7753 355.509 42.8629 355.449 42.9226C355.39 42.9822 355.302 43.0121 355.186 43.0121H351.797V45.4675H354.979C355.091 45.4675 355.177 45.4954 355.237 45.5514C355.3 45.611 355.332 45.6968 355.332 45.8087C355.332 45.9243 355.3 46.0119 355.237 46.0715C355.177 46.1312 355.091 46.161 354.979 46.161H351.797V48.7227H355.186C355.302 48.7227 355.39 48.7526 355.449 48.8122C355.509 48.8719 355.539 48.9558 355.539 49.0639C355.539 49.1758 355.509 49.2634 355.449 49.3268C355.39 49.3865 355.302 49.4163 355.186 49.4163ZM359.387 49.4834C359.253 49.4834 359.15 49.4461 359.079 49.3716C359.008 49.2932 358.973 49.187 358.973 49.0527V42.738C358.973 42.6 359.01 42.4956 359.085 42.4248C359.159 42.3539 359.264 42.3185 359.398 42.3185H361.781C362.541 42.3185 363.127 42.4956 363.537 42.8499C363.943 43.2078 364.147 43.7149 364.147 44.3712C364.147 44.7888 364.055 45.1487 363.873 45.4507C363.686 45.7565 363.416 45.9895 363.062 46.1499C362.707 46.3065 362.28 46.3848 361.781 46.3848L361.881 46.2561H362.083C362.348 46.2561 362.577 46.3232 362.771 46.4575C362.965 46.5917 363.142 46.8061 363.302 47.1007L364.27 48.9017C364.322 48.9949 364.346 49.0863 364.342 49.1758C364.342 49.269 364.311 49.3436 364.247 49.3995C364.188 49.4554 364.102 49.4834 363.99 49.4834C363.874 49.4834 363.779 49.4573 363.705 49.4051C363.63 49.3529 363.567 49.2765 363.515 49.1758L362.418 47.1399C362.262 46.8527 362.083 46.6588 361.881 46.5582C361.68 46.4612 361.415 46.4127 361.087 46.4127H359.801V49.0527C359.801 49.187 359.767 49.2932 359.7 49.3716C359.633 49.4461 359.529 49.4834 359.387 49.4834ZM359.801 43.0009V45.7583H361.663C362.211 45.7583 362.627 45.6427 362.911 45.4115C363.194 45.1804 363.336 44.8336 363.336 44.3712C363.336 43.92 363.194 43.5788 362.911 43.3476C362.627 43.1165 362.211 43.0009 361.663 43.0009H359.801Z" fill="#122100"/>
<path d="M71.4255 32.6022C70.9854 32.6022 70.6397 32.4764 70.3882 32.225C70.1367 31.9735 70.011 31.6068 70.011 31.1248V18.2999C70.011 17.8179 70.1367 17.4617 70.3882 17.2312C70.6397 16.9797 70.9854 16.854 71.4255 16.854C71.8656 16.854 72.2009 16.9797 72.4314 17.2312C72.6828 17.4617 72.8086 17.8179 72.8086 18.2999V20.9718L72.4628 20.406C72.861 19.2534 73.5001 18.3628 74.3802 17.7341C75.2813 17.1054 76.3501 16.7911 77.5865 16.7911C78.8857 16.7911 79.9335 17.1054 80.7298 17.7341C81.5261 18.3418 82.0605 19.2743 82.3329 20.5317H81.8929C82.2701 19.3791 82.9406 18.4676 83.9046 17.797C84.8895 17.1264 86.0316 16.7911 87.3308 16.7911C88.4834 16.7911 89.4264 17.0216 90.1599 17.4826C90.9143 17.9227 91.4801 18.5933 91.8573 19.4944C92.2345 20.3745 92.4231 21.5061 92.4231 22.8892V31.1248C92.4231 31.6068 92.2973 31.9735 92.0459 32.225C91.7944 32.4764 91.4486 32.6022 91.0086 32.6022C90.5475 32.6022 90.1913 32.4764 89.9398 32.225C89.6884 31.9735 89.5626 31.6068 89.5626 31.1248V23.0149C89.5626 21.6738 89.3321 20.6889 88.8711 20.0602C88.4101 19.4315 87.6347 19.1172 86.545 19.1172C85.3505 19.1172 84.3971 19.5363 83.6846 20.3745C82.993 21.1918 82.6473 22.3234 82.6473 23.7693V31.1248C82.6473 31.6068 82.5215 31.9735 82.2701 32.225C82.0395 32.4764 81.6938 32.6022 81.2327 32.6022C80.7717 32.6022 80.4155 32.4764 80.164 32.225C79.9125 31.9735 79.7868 31.6068 79.7868 31.1248V23.0149C79.7868 21.6738 79.5563 20.6889 79.0953 20.0602C78.6342 19.4315 77.8589 19.1172 76.7692 19.1172C75.5747 19.1172 74.6212 19.5363 73.9087 20.3745C73.2172 21.1918 72.8714 22.3234 72.8714 23.7693V31.1248C72.8714 32.1097 72.3895 32.6022 71.4255 32.6022Z" fill="#122100"/>
<path d="M98.5944 32.5393C98.1543 32.5393 97.8085 32.4031 97.5571 32.1307C97.3056 31.8582 97.1798 31.481 97.1798 30.999V18.4571C97.1798 17.9541 97.3056 17.5769 97.5571 17.3255C97.8085 17.053 98.1543 16.9168 98.5944 16.9168C99.0554 16.9168 99.4116 17.053 99.6631 17.3255C99.9146 17.5769 100.04 17.9541 100.04 18.4571V30.999C100.04 31.481 99.9146 31.8582 99.6631 32.1307C99.4326 32.4031 99.0763 32.5393 98.5944 32.5393ZM98.5944 13.522C98.0286 13.522 97.578 13.3753 97.2427 13.0819C96.9284 12.7676 96.7712 12.359 96.7712 11.856C96.7712 11.3112 96.9284 10.9026 97.2427 10.6301C97.578 10.3368 98.0286 10.1901 98.5944 10.1901C99.2021 10.1901 99.6526 10.3368 99.946 10.6301C100.26 10.9026 100.418 11.3112 100.418 11.856C100.418 12.359 100.26 12.7676 99.946 13.0819C99.6526 13.3753 99.2021 13.522 98.5944 13.522Z" fill="#122100"/>
<path d="M109.606 32.665C108.034 32.665 106.84 32.204 106.022 31.2819C105.205 30.3389 104.796 28.9873 104.796 27.227V11.4474C104.796 10.9654 104.922 10.6092 105.174 10.3787C105.425 10.1272 105.771 10.0015 106.211 10.0015C106.672 10.0015 107.028 10.1272 107.28 10.3787C107.531 10.6092 107.657 10.9654 107.657 11.4474V27.007C107.657 28.0967 107.877 28.914 108.317 29.4588C108.778 29.9827 109.428 30.2446 110.266 30.2446C110.454 30.2446 110.622 30.2446 110.769 30.2446C110.915 30.2237 111.062 30.2027 111.209 30.1818C111.439 30.1608 111.607 30.2237 111.712 30.3704C111.816 30.5171 111.869 30.8104 111.869 31.2505C111.869 31.6487 111.775 31.963 111.586 32.1935C111.418 32.4031 111.135 32.5393 110.737 32.6022C110.549 32.6231 110.36 32.6336 110.171 32.6336C109.983 32.6545 109.794 32.665 109.606 32.665Z" fill="#122100"/>
<path d="M115.823 32.5393C115.383 32.5393 115.037 32.4031 114.785 32.1307C114.534 31.8582 114.408 31.481 114.408 30.999V18.4571C114.408 17.9541 114.534 17.5769 114.785 17.3255C115.037 17.053 115.383 16.9168 115.823 16.9168C116.284 16.9168 116.64 17.053 116.891 17.3255C117.143 17.5769 117.269 17.9541 117.269 18.4571V30.999C117.269 31.481 117.143 31.8582 116.891 32.1307C116.661 32.4031 116.305 32.5393 115.823 32.5393ZM115.823 13.522C115.257 13.522 114.806 13.3753 114.471 13.0819C114.157 12.7676 113.999 12.359 113.999 11.856C113.999 11.3112 114.157 10.9026 114.471 10.6301C114.806 10.3368 115.257 10.1901 115.823 10.1901C116.43 10.1901 116.881 10.3368 117.174 10.6301C117.489 10.9026 117.646 11.3112 117.646 11.856C117.646 12.359 117.489 12.7676 117.174 13.0819C116.881 13.3753 116.43 13.522 115.823 13.522Z" fill="#122100"/>
<path d="M128.374 32.665C127.138 32.665 126.1 32.445 125.262 32.0049C124.445 31.5648 123.827 30.9257 123.408 30.0875C123.01 29.2492 122.81 28.2224 122.81 27.007V19.2743H120.799C120.421 19.2743 120.128 19.18 119.919 18.9914C119.709 18.7819 119.604 18.5095 119.604 18.1742C119.604 17.8179 119.709 17.5455 119.919 17.3569C120.128 17.1683 120.421 17.074 120.799 17.074H122.81V13.6478C122.81 13.1658 122.936 12.8095 123.188 12.579C123.439 12.3275 123.795 12.2018 124.256 12.2018C124.717 12.2018 125.063 12.3275 125.294 12.579C125.545 12.8095 125.671 13.1658 125.671 13.6478V17.074H129.474C129.872 17.074 130.176 17.1683 130.386 17.3569C130.595 17.5455 130.7 17.8179 130.7 18.1742C130.7 18.5095 130.595 18.7819 130.386 18.9914C130.176 19.18 129.872 19.2743 129.474 19.2743H125.671V26.7555C125.671 27.9081 125.912 28.7777 126.394 29.3645C126.876 29.9513 127.672 30.2446 128.783 30.2446C129.181 30.2446 129.516 30.2132 129.789 30.1503C130.061 30.0665 130.302 30.0246 130.512 30.0246C130.7 30.0037 130.857 30.0665 130.983 30.2132C131.13 30.3599 131.203 30.6323 131.203 31.0305C131.203 31.3239 131.151 31.5963 131.046 31.8478C130.962 32.0783 130.784 32.2354 130.512 32.3193C130.26 32.4031 129.925 32.4764 129.506 32.5393C129.087 32.6231 128.709 32.665 128.374 32.665Z" fill="#122100"/>
<path d="M138.32 32.665C137.272 32.665 136.318 32.4555 135.459 32.0364C134.621 31.6172 133.961 31.0514 133.479 30.3389C133.018 29.6264 132.787 28.8301 132.787 27.95C132.787 26.8184 133.07 25.9278 133.636 25.2781C134.202 24.6285 135.155 24.1675 136.497 23.8951C137.838 23.6017 139.64 23.455 141.903 23.455H143.38V25.2781H141.966C140.352 25.2781 139.074 25.3515 138.131 25.4982C137.209 25.6449 136.559 25.9068 136.182 26.284C135.805 26.6403 135.616 27.1432 135.616 27.7928C135.616 28.6101 135.899 29.2807 136.465 29.8046C137.052 30.3285 137.848 30.5904 138.854 30.5904C139.65 30.5904 140.352 30.4018 140.96 30.0246C141.568 29.6264 142.05 29.1026 142.406 28.4529C142.762 27.7824 142.94 27.0175 142.94 26.1583V22.5434C142.94 21.307 142.689 20.4164 142.186 19.8716C141.683 19.3058 140.834 19.0229 139.64 19.0229C138.948 19.0229 138.236 19.1172 137.502 19.3058C136.769 19.4944 136.004 19.7878 135.208 20.1859C134.893 20.3326 134.621 20.385 134.39 20.3431C134.16 20.2802 133.971 20.1545 133.825 19.9659C133.699 19.7563 133.626 19.5363 133.605 19.3058C133.605 19.0543 133.657 18.8133 133.762 18.5828C133.888 18.3523 134.097 18.1847 134.39 18.0799C135.313 17.6189 136.224 17.294 137.125 17.1054C138.047 16.8959 138.906 16.7911 139.703 16.7911C141.065 16.7911 142.186 17.0111 143.066 17.4512C143.946 17.8703 144.606 18.5304 145.046 19.4315C145.487 20.3117 145.707 21.4433 145.707 22.8263V31.1248C145.707 31.6068 145.591 31.9735 145.361 32.225C145.13 32.4764 144.795 32.6022 144.355 32.6022C143.936 32.6022 143.601 32.4764 143.349 32.225C143.119 31.9735 143.003 31.6068 143.003 31.1248V28.893H143.286C143.119 29.6684 142.804 30.3389 142.343 30.9047C141.882 31.4705 141.306 31.9106 140.614 32.225C139.944 32.5183 139.179 32.665 138.32 32.665Z" fill="#122100"/>
<path d="M151.842 32.6022C151.36 32.6022 150.994 32.4764 150.742 32.225C150.491 31.9735 150.365 31.6068 150.365 31.1248V18.2999C150.365 17.8179 150.491 17.4617 150.742 17.2312C150.994 16.9797 151.34 16.854 151.78 16.854C152.22 16.854 152.555 16.9797 152.785 17.2312C153.037 17.4617 153.163 17.8179 153.163 18.2999V20.7203H152.848C153.184 19.4629 153.812 18.5095 154.734 17.8598C155.656 17.2102 156.819 16.8435 158.223 16.7597C158.559 16.7387 158.831 16.8225 159.041 17.0111C159.25 17.1788 159.366 17.4722 159.387 17.8913C159.407 18.2894 159.313 18.6142 159.104 18.8657C158.894 19.0962 158.569 19.2324 158.129 19.2743L157.563 19.3058C156.18 19.4525 155.112 19.903 154.357 20.6574C153.624 21.4118 153.257 22.4491 153.257 23.7693V31.1248C153.257 31.6068 153.131 31.9735 152.88 32.225C152.649 32.4764 152.303 32.6022 151.842 32.6022Z" fill="#122100"/>
<path d="M166.475 38.2602C166.14 38.2602 165.857 38.1659 165.626 37.9773C165.417 37.8096 165.291 37.5686 165.249 37.2543C165.228 36.9609 165.291 36.6466 165.438 36.3113L167.575 31.4705V32.665L161.634 18.8343C161.488 18.478 161.435 18.1532 161.477 17.8598C161.519 17.5665 161.655 17.3255 161.886 17.1369C162.137 16.9483 162.472 16.854 162.892 16.854C163.248 16.854 163.531 16.9378 163.74 17.1054C163.95 17.2731 164.149 17.5665 164.338 17.9856L169.273 30.1503H168.392L173.422 17.9856C173.589 17.5665 173.789 17.2731 174.019 17.1054C174.25 16.9378 174.564 16.854 174.962 16.854C175.318 16.854 175.591 16.9483 175.779 17.1369C175.989 17.3255 176.115 17.5665 176.157 17.8598C176.198 18.1532 176.136 18.4676 175.968 18.8028L168.047 37.1286C167.837 37.5686 167.617 37.862 167.387 38.0087C167.177 38.1764 166.873 38.2602 166.475 38.2602Z" fill="#122100"/>
<path d="M185.737 32.665C184.186 32.665 182.845 32.3402 181.714 31.6906C180.582 31.02 179.712 30.0875 179.105 28.893C178.497 27.6776 178.193 26.2526 178.193 24.618C178.193 23.4026 178.361 22.3129 178.696 21.349C179.052 20.385 179.555 19.5677 180.205 18.8971C180.854 18.2056 181.64 17.6817 182.562 17.3255C183.505 16.9692 184.564 16.7911 185.737 16.7911C186.471 16.7911 187.246 16.9064 188.063 17.1369C188.88 17.3674 189.635 17.7446 190.326 18.2685C190.557 18.4361 190.704 18.6352 190.766 18.8657C190.829 19.0753 190.829 19.2953 190.766 19.5258C190.725 19.7563 190.62 19.9554 190.452 20.1231C190.305 20.2697 190.106 20.3536 189.855 20.3745C189.624 20.3955 189.373 20.3221 189.101 20.1545C188.598 19.7773 188.063 19.5049 187.497 19.3372C186.953 19.1696 186.429 19.0857 185.926 19.0857C185.15 19.0857 184.459 19.2115 183.851 19.4629C183.264 19.7144 182.761 20.0811 182.342 20.5631C181.944 21.0241 181.64 21.6004 181.431 22.292C181.221 22.9625 181.116 23.7484 181.116 24.6495C181.116 26.4307 181.536 27.8347 182.374 28.8616C183.212 29.8674 184.396 30.3704 185.926 30.3704C186.429 30.3704 186.953 30.297 187.497 30.1503C188.042 29.9827 188.577 29.7103 189.101 29.3331C189.373 29.1654 189.624 29.1026 189.855 29.1445C190.085 29.1654 190.274 29.2597 190.421 29.4274C190.588 29.5741 190.693 29.7627 190.735 29.9932C190.777 30.2027 190.756 30.4228 190.672 30.6533C190.609 30.8838 190.463 31.0724 190.232 31.2191C189.562 31.722 188.828 32.0887 188.032 32.3193C187.235 32.5498 186.471 32.665 185.737 32.665Z" fill="#122100"/>
<path d="M200.073 32.665C198.564 32.665 197.255 32.3402 196.144 31.6906C195.033 31.041 194.174 30.1189 193.567 28.9244C192.959 27.73 192.655 26.3259 192.655 24.7123C192.655 23.4969 192.823 22.4072 193.158 21.4433C193.514 20.4583 194.017 19.6201 194.667 18.9286C195.316 18.237 196.092 17.7132 196.993 17.3569C197.915 16.9797 198.942 16.7911 200.073 16.7911C201.582 16.7911 202.892 17.1159 204.002 17.7655C205.113 18.4152 205.972 19.3372 206.58 20.5317C207.188 21.7052 207.492 23.0988 207.492 24.7123C207.492 25.9278 207.313 27.0279 206.957 28.0129C206.622 28.9978 206.129 29.836 205.48 30.5275C204.83 31.2191 204.044 31.7535 203.122 32.1307C202.221 32.4869 201.205 32.665 200.073 32.665ZM200.073 30.4018C200.995 30.4018 201.792 30.1818 202.462 29.7417C203.154 29.3016 203.678 28.6625 204.034 27.8243C204.411 26.986 204.6 25.9487 204.6 24.7123C204.6 22.8682 204.191 21.4642 203.374 20.5003C202.557 19.5363 201.456 19.0543 200.073 19.0543C199.172 19.0543 198.376 19.2743 197.684 19.7144C197.014 20.1335 196.49 20.7622 196.113 21.6004C195.735 22.4387 195.547 23.476 195.547 24.7123C195.547 26.5564 195.955 27.971 196.773 28.9559C197.611 29.9198 198.711 30.4018 200.073 30.4018Z" fill="#122100"/>
<path d="M216.185 32.665C215.137 32.665 214.184 32.4555 213.325 32.0364C212.486 31.6172 211.826 31.0514 211.344 30.3389C210.883 29.6264 210.653 28.8301 210.653 27.95C210.653 26.8184 210.936 25.9278 211.502 25.2781C212.067 24.6285 213.021 24.1675 214.362 23.8951C215.703 23.6017 217.505 23.455 219.769 23.455H221.246V25.2781H219.831C218.218 25.2781 216.94 25.3515 215.997 25.4982C215.074 25.6449 214.425 25.9068 214.048 26.284C213.67 26.6403 213.482 27.1432 213.482 27.7928C213.482 28.6101 213.765 29.2807 214.331 29.8046C214.917 30.3285 215.714 30.5904 216.719 30.5904C217.516 30.5904 218.218 30.4018 218.826 30.0246C219.433 29.6264 219.915 29.1026 220.271 28.4529C220.628 27.7824 220.806 27.0175 220.806 26.1583V22.5434C220.806 21.307 220.554 20.4164 220.051 19.8716C219.549 19.3058 218.7 19.0229 217.505 19.0229C216.814 19.0229 216.101 19.1172 215.368 19.3058C214.634 19.4944 213.87 19.7878 213.073 20.1859C212.759 20.3326 212.486 20.385 212.256 20.3431C212.025 20.2802 211.837 20.1545 211.69 19.9659C211.564 19.7563 211.491 19.5363 211.47 19.3058C211.47 19.0543 211.523 18.8133 211.627 18.5828C211.753 18.3523 211.963 18.1847 212.256 18.0799C213.178 17.6189 214.09 17.294 214.991 17.1054C215.913 16.8959 216.772 16.7911 217.568 16.7911C218.93 16.7911 220.051 17.0111 220.932 17.4512C221.812 17.8703 222.472 18.5304 222.912 19.4315C223.352 20.3117 223.572 21.4433 223.572 22.8263V31.1248C223.572 31.6068 223.457 31.9735 223.226 32.225C222.996 32.4764 222.66 32.6022 222.22 32.6022C221.801 32.6022 221.466 32.4764 221.214 32.225C220.984 31.9735 220.869 31.6068 220.869 31.1248V28.893H221.152C220.984 29.6684 220.67 30.3389 220.209 30.9047C219.748 31.4705 219.171 31.9106 218.48 32.225C217.809 32.5183 217.044 32.665 216.185 32.665Z" fill="#122100"/>
<path d="M234.863 32.665C233.312 32.665 231.971 32.3402 230.84 31.6906C229.708 31.02 228.838 30.0875 228.231 28.893C227.623 27.6776 227.319 26.2526 227.319 24.618C227.319 23.4026 227.487 22.3129 227.822 21.349C228.178 20.385 228.681 19.5677 229.331 18.8971C229.98 18.2056 230.766 17.6817 231.688 17.3255C232.631 16.9692 233.689 16.7911 234.863 16.7911C235.596 16.7911 236.372 16.9064 237.189 17.1369C238.006 17.3674 238.761 17.7446 239.452 18.2685C239.683 18.4361 239.83 18.6352 239.892 18.8657C239.955 19.0753 239.955 19.2953 239.892 19.5258C239.85 19.7563 239.746 19.9554 239.578 20.1231C239.431 20.2697 239.232 20.3536 238.981 20.3745C238.75 20.3955 238.499 20.3221 238.226 20.1545C237.723 19.7773 237.189 19.5049 236.623 19.3372C236.078 19.1696 235.555 19.0857 235.052 19.0857C234.276 19.0857 233.585 19.2115 232.977 19.4629C232.39 19.7144 231.887 20.0811 231.468 20.5631C231.07 21.0241 230.766 21.6004 230.557 22.292C230.347 22.9625 230.242 23.7484 230.242 24.6495C230.242 26.4307 230.661 27.8347 231.5 28.8616C232.338 29.8674 233.522 30.3704 235.052 30.3704C235.555 30.3704 236.078 30.297 236.623 30.1503C237.168 29.9827 237.703 29.7103 238.226 29.3331C238.499 29.1654 238.75 29.1026 238.981 29.1445C239.211 29.1654 239.4 29.2597 239.547 29.4274C239.714 29.5741 239.819 29.7627 239.861 29.9932C239.903 30.2027 239.882 30.4228 239.798 30.6533C239.735 30.8838 239.589 31.0724 239.358 31.2191C238.687 31.722 237.954 32.0887 237.158 32.3193C236.361 32.5498 235.596 32.665 234.863 32.665Z" fill="#122100"/>
<path d="M244.414 32.6022C243.974 32.6022 243.628 32.4764 243.377 32.225C243.125 31.9735 242.999 31.6068 242.999 31.1248V11.4474C242.999 10.9654 243.125 10.6092 243.377 10.3787C243.628 10.1272 243.974 10.0015 244.414 10.0015C244.875 10.0015 245.231 10.1272 245.483 10.3787C245.734 10.6092 245.86 10.9654 245.86 11.4474V20.406H245.451C245.891 19.2115 246.604 18.3104 247.589 17.7027C248.595 17.095 249.737 16.7911 251.015 16.7911C252.251 16.7911 253.268 17.0216 254.064 17.4826C254.86 17.9227 255.458 18.5933 255.856 19.4944C256.254 20.3955 256.453 21.5271 256.453 22.8892V31.1248C256.453 31.6068 256.327 31.9735 256.076 32.225C255.845 32.4764 255.499 32.6022 255.038 32.6022C254.577 32.6022 254.221 32.4764 253.97 32.225C253.718 31.9735 253.592 31.6068 253.592 31.1248V23.0464C253.592 21.6843 253.331 20.6889 252.807 20.0602C252.283 19.4315 251.445 19.1172 250.292 19.1172C248.951 19.1172 247.872 19.5363 247.054 20.3745C246.258 21.1918 245.86 22.3024 245.86 23.7065V31.1248C245.86 32.1097 245.378 32.6022 244.414 32.6022Z" fill="#122100"/>
<path d="M262.528 32.5079C261.983 32.5079 261.533 32.3297 261.176 31.9735C260.82 31.6172 260.642 31.1667 260.642 30.6218C260.642 30.077 260.82 29.6369 261.176 29.3016C261.533 28.9663 261.983 28.7987 262.528 28.7987C263.115 28.7987 263.565 28.9663 263.88 29.3016C264.215 29.6369 264.383 30.077 264.383 30.6218C264.383 31.1667 264.215 31.6172 263.88 31.9735C263.565 32.3297 263.115 32.5079 262.528 32.5079Z" fill="#122100"/>
<path d="M273.388 32.665C272.34 32.665 271.387 32.4555 270.528 32.0364C269.689 31.6172 269.029 31.0514 268.547 30.3389C268.086 29.6264 267.856 28.8301 267.856 27.95C267.856 26.8184 268.139 25.9278 268.704 25.2781C269.27 24.6285 270.224 24.1675 271.565 23.8951C272.906 23.6017 274.708 23.455 276.971 23.455H278.449V25.2781H277.034C275.421 25.2781 274.142 25.3515 273.199 25.4982C272.277 25.6449 271.628 25.9068 271.25 26.284C270.873 26.6403 270.685 27.1432 270.685 27.7928C270.685 28.6101 270.968 29.2807 271.533 29.8046C272.12 30.3285 272.916 30.5904 273.922 30.5904C274.719 30.5904 275.421 30.4018 276.028 30.0246C276.636 29.6264 277.118 29.1026 277.474 28.4529C277.831 27.7824 278.009 27.0175 278.009 26.1583V22.5434C278.009 21.307 277.757 20.4164 277.254 19.8716C276.751 19.3058 275.903 19.0229 274.708 19.0229C274.017 19.0229 273.304 19.1172 272.571 19.3058C271.837 19.4944 271.072 19.7878 270.276 20.1859C269.962 20.3326 269.689 20.385 269.459 20.3431C269.228 20.2802 269.04 20.1545 268.893 19.9659C268.767 19.7563 268.694 19.5363 268.673 19.3058C268.673 19.0543 268.725 18.8133 268.83 18.5828C268.956 18.3523 269.165 18.1847 269.459 18.0799C270.381 17.6189 271.292 17.294 272.193 17.1054C273.116 16.8959 273.975 16.7911 274.771 16.7911C276.133 16.7911 277.254 17.0111 278.134 17.4512C279.015 17.8703 279.675 18.5304 280.115 19.4315C280.555 20.3117 280.775 21.4433 280.775 22.8263V31.1248C280.775 31.6068 280.66 31.9735 280.429 32.225C280.199 32.4764 279.863 32.6022 279.423 32.6022C279.004 32.6022 278.669 32.4764 278.417 32.225C278.187 31.9735 278.072 31.6068 278.072 31.1248V28.893H278.354C278.187 29.6684 277.872 30.3389 277.411 30.9047C276.95 31.4705 276.374 31.9106 275.683 32.225C275.012 32.5183 274.247 32.665 273.388 32.665Z" fill="#122100"/>
<path d="M286.848 32.5393C286.408 32.5393 286.062 32.4031 285.811 32.1307C285.559 31.8582 285.433 31.481 285.433 30.999V18.4571C285.433 17.9541 285.559 17.5769 285.811 17.3255C286.062 17.053 286.408 16.9168 286.848 16.9168C287.309 16.9168 287.665 17.053 287.917 17.3255C288.168 17.5769 288.294 17.9541 288.294 18.4571V30.999C288.294 31.481 288.168 31.8582 287.917 32.1307C287.686 32.4031 287.33 32.5393 286.848 32.5393ZM286.848 13.522C286.282 13.522 285.832 13.3753 285.496 13.0819C285.182 12.7676 285.025 12.359 285.025 11.856C285.025 11.3112 285.182 10.9026 285.496 10.6301C285.832 10.3368 286.282 10.1901 286.848 10.1901C287.456 10.1901 287.906 10.3368 288.2 10.6301C288.514 10.9026 288.671 11.3112 288.671 11.856C288.671 12.359 288.514 12.7676 288.2 13.0819C287.906 13.3753 287.456 13.522 286.848 13.522Z" fill="#122100"/>
</svg>
