<svg width="254" height="46" viewBox="0 0 254 46" fill="none" xmlns="http://www.w3.org/2000/svg">
<path d="M39.1093 10.2057L22.1247 0.409716C21.6405 0.148987 21.0445 0 20.4113 0C19.7781 0 19.1822 0.148987 18.698 0.409716L1.71336 10.2057C0.744939 10.8016 0 12.068 0 13.1854V32.8146C0 33.9692 0.744939 35.2356 1.71336 35.7943L18.698 45.5903C19.1822 45.851 19.7781 46 20.4113 46C21.0445 46 21.6777 45.851 22.1247 45.5903L39.1093 35.7943C40.0777 35.1984 40.8227 33.932 40.8227 32.8146V13.1854C40.8227 12.0308 40.0777 10.7644 39.1093 10.2057ZM38.7368 32.7773C38.7368 33.1498 38.4016 33.7458 38.0664 33.932L21.0818 43.7279C20.7838 43.9142 20.0389 43.9142 19.7409 43.7279L2.75628 33.932C2.42105 33.7458 2.08583 33.1498 2.08583 32.7773V13.1482C2.08583 12.7757 2.42105 12.1798 2.75628 11.9935L19.7409 2.19757C19.8899 2.08583 20.1506 2.04858 20.4113 2.04858C20.6721 2.04858 20.9328 2.12308 21.0818 2.19757L38.0664 11.9935C38.4016 12.1798 38.7368 12.7757 38.7368 13.1482V32.7773Z" fill="#63B017"/>
<path d="M34.3792 21.901C33.4107 20.7464 32.5168 19.8897 31.7719 19.182C33.0755 18.1391 34.0812 16.8727 34.0812 14.7496C34.0812 12.552 32.5168 10.8014 30.5427 10.8014C28.6431 10.8014 27.1905 12.5893 27.1905 14.7496C27.1905 16.7237 27.7492 17.9156 28.6059 18.9585C27.9354 19.4427 27.2277 20.0014 26.4828 20.7091C24.9184 19.182 23.4286 18.2136 22.2366 17.3941C23.6148 16.165 24.5087 14.6379 24.5087 11.8443C24.5087 8.97632 22.8326 6.96498 20.4115 6.92773C17.9905 6.92773 16.3144 8.97632 16.3144 11.8443C16.3144 14.6751 17.2456 16.2022 18.6609 17.3941C17.4318 18.1763 15.9792 19.182 14.4148 20.6719C13.7071 19.9642 12.9622 19.4055 12.2917 18.884C13.1484 17.8411 13.7071 16.6492 13.7071 14.7123C13.7071 12.5148 12.18 10.7642 10.2059 10.7642C8.30628 10.7642 6.77916 12.552 6.77916 14.7123C6.77916 16.8354 7.82207 18.0646 9.12572 19.1075C8.38078 19.7779 7.4496 20.6719 6.48118 21.8638C5.28928 23.3164 4.61884 25.216 4.61884 27.2646V31.0265C4.61884 31.399 4.84232 31.7342 5.14029 31.9204L10.7273 35.1982C10.8763 35.3099 11.0626 35.3472 11.2488 35.3472C11.435 35.3472 11.6213 35.2727 11.733 35.1982C12.0682 35.0119 12.2545 34.6767 12.2545 34.3043V29.9091C12.2545 27.1156 13.4091 25.2532 14.452 23.8751C15.1597 24.8435 15.7929 26.0354 15.7929 28.2702V37.2468C15.7929 37.582 15.9792 37.9172 16.2771 38.1034L19.9273 40.4128C20.0763 40.5245 20.2626 40.5617 20.4488 40.5617C20.635 40.5617 20.8585 40.5245 21.082 40.3755L24.7322 38.0662C25.0302 37.88 25.2164 37.582 25.2164 37.2095V28.233C25.2164 26.0354 25.7751 24.8808 26.4828 23.9123C27.5257 25.2905 28.6059 27.1528 28.6059 29.9091V34.3043C28.6059 34.6767 28.7921 35.0119 29.1273 35.1982C29.3136 35.3099 29.4626 35.3472 29.6488 35.3472C29.835 35.3472 30.0213 35.2727 30.133 35.1982L35.72 31.9204C36.0553 31.7342 36.2415 31.399 36.2415 31.0265V27.2646C36.2043 25.2532 35.5338 23.3536 34.3792 21.901ZM30.58 12.8872C31.3249 12.8872 31.9953 13.7439 31.9953 14.7496C31.9953 16.0905 31.4366 16.7982 30.282 17.6921C29.6115 16.9099 29.2763 16.1277 29.2763 14.7496C29.2763 13.7439 29.835 12.8872 30.58 12.8872ZM20.4115 9.01356C21.9014 9.01356 22.4229 10.5407 22.4229 11.8443C22.4229 14.0791 21.7524 15.1221 20.4115 16.165C19.0707 15.1221 18.4002 14.1164 18.4002 11.8443C18.4002 10.5407 18.9217 9.01356 20.4115 9.01356ZM10.2059 12.8872C10.9508 12.8872 11.584 13.7439 11.584 14.7496C11.584 16.1277 11.2488 16.9099 10.5783 17.6921C9.42369 16.7982 8.82774 16.0905 8.82774 14.7496C8.82774 13.7439 9.46094 12.8872 10.2059 12.8872ZM10.1686 29.9464V32.5536L6.66742 30.4678V27.3018C6.66742 25.7374 7.15163 24.2848 8.04555 23.2047C8.97673 22.0128 9.9079 21.2306 10.6901 20.5229C10.7273 20.4856 10.7646 20.4484 10.8018 20.4111C11.5095 20.9326 12.2917 21.5285 13.0366 22.2735C11.8075 23.8751 10.1686 26.2589 10.1686 29.9464ZM23.0933 28.2702V36.6881L20.4488 38.3642L17.8415 36.7253V28.3075C17.8415 25.067 16.7613 23.5026 15.7557 22.2735C17.3201 20.7836 18.7354 19.8524 20.0018 19.033C20.1508 18.9213 20.2998 18.8468 20.4488 18.735C20.5978 18.8095 20.7095 18.9213 20.8585 18.9957C22.1249 19.8524 23.5775 20.7836 25.1047 22.3107C24.1362 23.5026 23.0933 25.1043 23.0933 28.2702ZM34.1184 30.4678L30.6172 32.5536V29.9464C30.6172 26.2589 29.0156 23.9123 27.7864 22.3107C28.5314 21.5658 29.3136 20.9698 30.0585 20.4111C30.0958 20.4484 30.133 20.4856 30.133 20.4856C30.9152 21.1933 31.8091 22.0128 32.7403 23.1674H32.703C33.597 24.2476 34.0812 25.7002 34.0812 27.2646V30.4678H34.1184Z" fill="#63B017"/>
<path d="M51.2627 34.4419H48.6547C48.5507 34.4419 48.4715 34.4147 48.4169 34.3601C48.3649 34.3055 48.3389 34.2275 48.3389 34.1262V29.8108C48.3389 29.7068 48.3649 29.6275 48.4169 29.573C48.4715 29.521 48.5507 29.495 48.6547 29.495H51.2627C51.3432 29.495 51.4043 29.5158 51.4459 29.5574C51.4875 29.5989 51.5083 29.6574 51.5083 29.7328C51.5083 29.8134 51.4875 29.8744 51.4459 29.916C51.4043 29.9576 51.3432 29.9784 51.2627 29.9784H48.9003V31.6897H51.1145C51.1951 31.6897 51.2562 31.7092 51.2977 31.7482C51.3393 31.7898 51.3601 31.8496 51.3601 31.9275C51.3601 32.0081 51.3393 32.0692 51.2977 32.1108C51.2562 32.1523 51.1951 32.1731 51.1145 32.1731H48.9003V33.9585H51.2627C51.3432 33.9585 51.4043 33.9793 51.4459 34.0209C51.4875 34.0625 51.5083 34.121 51.5083 34.1963C51.5083 34.2743 51.4875 34.3354 51.4459 34.3796C51.4043 34.4211 51.3432 34.4419 51.2627 34.4419ZM54.1825 34.4887C54.0993 34.4887 54.0344 34.4653 53.9876 34.4185C53.9408 34.3692 53.9174 34.299 53.9174 34.208V29.725C53.9174 29.6314 53.9408 29.5613 53.9876 29.5145C54.0344 29.4677 54.0993 29.4443 54.1825 29.4443C54.2579 29.4443 54.3176 29.4599 54.3618 29.4911C54.406 29.5223 54.4463 29.573 54.4827 29.6431L56.4084 33.2608H56.1979L58.112 29.6431C58.1484 29.573 58.1886 29.5223 58.2328 29.4911C58.2744 29.4599 58.3342 29.4443 58.4121 29.4443C58.4927 29.4443 58.5564 29.4677 58.6032 29.5145C58.6499 29.5613 58.6733 29.6314 58.6733 29.725V34.208C58.6733 34.299 58.6512 34.3692 58.6071 34.4185C58.5629 34.4653 58.4966 34.4887 58.4083 34.4887C58.3225 34.4887 58.2562 34.4653 58.2094 34.4185C58.1627 34.3692 58.1393 34.299 58.1393 34.208V30.2669H58.3069L56.5527 33.557C56.5215 33.6168 56.4877 33.6597 56.4513 33.6857C56.4175 33.7117 56.3681 33.7247 56.3032 33.7247C56.2356 33.7247 56.1836 33.7104 56.1472 33.6818C56.1108 33.6558 56.0784 33.6142 56.0498 33.557L54.2721 30.2591H54.4437V34.208C54.4437 34.299 54.4203 34.3692 54.3735 34.4185C54.3293 34.4653 54.2657 34.4887 54.1825 34.4887ZM61.6633 34.4887C61.5698 34.4887 61.4983 34.4627 61.4489 34.4108C61.3996 34.3562 61.3749 34.2821 61.3749 34.1885V29.7874C61.3749 29.6912 61.4008 29.6184 61.4528 29.5691C61.5048 29.5197 61.5776 29.495 61.6711 29.495H63.3318C63.862 29.495 64.2687 29.6249 64.552 29.8848C64.8379 30.1447 64.9808 30.5098 64.9808 30.9802C64.9808 31.448 64.8379 31.8132 64.552 32.0757C64.2687 32.3382 63.862 32.4694 63.3318 32.4694H61.9518V34.1885C61.9518 34.2821 61.9284 34.3562 61.8816 34.4108C61.8349 34.4627 61.7621 34.4887 61.6633 34.4887ZM61.9518 29.9706V31.986H63.2616C63.6411 31.986 63.9283 31.9002 64.1232 31.7287C64.3155 31.5572 64.4116 31.3077 64.4116 30.9802C64.4116 30.6502 64.3155 30.3994 64.1232 30.2279C63.9283 30.0563 63.6411 29.9706 63.2616 29.9706H61.9518ZM69.3118 34.5043C68.8518 34.5043 68.4529 34.4004 68.115 34.1924C67.7746 33.9845 67.5121 33.6909 67.3276 33.3114C67.1431 32.932 67.0508 32.4824 67.0508 31.9626C67.0508 31.5702 67.1041 31.218 67.2106 30.9062C67.3146 30.5969 67.4653 30.3331 67.6628 30.1148C67.8577 29.8965 68.0955 29.7276 68.3762 29.608C68.6543 29.4911 68.9662 29.4326 69.3118 29.4326C69.7796 29.4326 70.1824 29.5353 70.5203 29.7406C70.8607 29.9459 71.1232 30.237 71.3077 30.6138C71.4923 30.9906 71.5845 31.4389 71.5845 31.9587C71.5845 32.3511 71.5312 32.7033 71.4247 33.0152C71.3155 33.3296 71.1635 33.5973 70.9686 33.8182C70.7711 34.0365 70.5333 34.2054 70.2552 34.325C69.9771 34.4445 69.6627 34.5043 69.3118 34.5043ZM69.3118 33.9936C69.6679 33.9936 69.968 33.9131 70.2123 33.7519C70.4592 33.5934 70.6476 33.3621 70.7776 33.058C70.9075 32.754 70.9725 32.3888 70.9725 31.9626C70.9725 31.3233 70.8295 30.8269 70.5437 30.4735C70.2552 30.12 69.8446 29.9433 69.3118 29.9433C68.9662 29.9433 68.6699 30.0226 68.423 30.1811C68.1787 30.3396 67.9903 30.5696 67.8577 30.8711C67.7278 31.1752 67.6628 31.539 67.6628 31.9626C67.6628 32.5993 67.8071 33.097 68.0955 33.4557C68.3866 33.8143 68.792 33.9936 69.3118 33.9936ZM75.5647 34.4887C75.4789 34.4887 75.4101 34.4666 75.3581 34.4224C75.3087 34.3783 75.2671 34.312 75.2333 34.2236L73.6818 29.7952C73.6506 29.6964 73.6597 29.6132 73.7091 29.5457C73.7559 29.4781 73.8338 29.4443 73.943 29.4443C74.021 29.4443 74.0833 29.4638 74.1301 29.5028C74.1769 29.5444 74.2172 29.6067 74.251 29.6899L75.705 33.9508H75.4594L76.9369 29.7133C76.9707 29.6223 77.011 29.5548 77.0577 29.5106C77.1045 29.4664 77.1682 29.4443 77.2488 29.4443C77.3215 29.4443 77.3813 29.4664 77.4281 29.5106C77.4723 29.5548 77.5099 29.6223 77.5411 29.7133L79.003 33.9508H78.7847L80.2505 29.6899C80.2738 29.6119 80.3102 29.5509 80.3596 29.5067C80.409 29.4651 80.4727 29.4443 80.5506 29.4443C80.6494 29.4443 80.7222 29.4768 80.7689 29.5418C80.8157 29.6093 80.8209 29.6938 80.7845 29.7952L79.2252 34.2236C79.194 34.312 79.1537 34.3783 79.1044 34.4224C79.055 34.4666 78.9861 34.4887 78.8977 34.4887C78.812 34.4887 78.7444 34.4666 78.695 34.4224C78.6457 34.3783 78.6028 34.312 78.5664 34.2236L77.1552 30.1616H77.3111L75.8844 34.2236C75.8532 34.312 75.8142 34.3783 75.7674 34.4224C75.7206 34.4666 75.6531 34.4887 75.5647 34.4887ZM86.1018 34.4419H83.4938C83.3899 34.4419 83.3106 34.4147 83.2561 34.3601C83.2041 34.3055 83.1781 34.2275 83.1781 34.1262V29.8108C83.1781 29.7068 83.2041 29.6275 83.2561 29.573C83.3106 29.521 83.3899 29.495 83.4938 29.495H86.1018C86.1824 29.495 86.2435 29.5158 86.285 29.5574C86.3266 29.5989 86.3474 29.6574 86.3474 29.7328C86.3474 29.8134 86.3266 29.8744 86.285 29.916C86.2435 29.9576 86.1824 29.9784 86.1018 29.9784H83.7394V31.6897H85.9537C86.0342 31.6897 86.0953 31.7092 86.1369 31.7482C86.1785 31.7898 86.1993 31.8496 86.1993 31.9275C86.1993 32.0081 86.1785 32.0692 86.1369 32.1108C86.0953 32.1523 86.0342 32.1731 85.9537 32.1731H83.7394V33.9585H86.1018C86.1824 33.9585 86.2435 33.9793 86.285 34.0209C86.3266 34.0625 86.3474 34.121 86.3474 34.1963C86.3474 34.2743 86.3266 34.3354 86.285 34.3796C86.2435 34.4211 86.1824 34.4419 86.1018 34.4419ZM89.0294 34.4887C88.9359 34.4887 88.8644 34.4627 88.815 34.4108C88.7657 34.3562 88.741 34.2821 88.741 34.1885V29.7874C88.741 29.6912 88.767 29.6184 88.8189 29.5691C88.8709 29.5197 88.9437 29.495 89.0372 29.495H90.6979C91.2281 29.495 91.6348 29.6184 91.9181 29.8653C92.204 30.1148 92.3469 30.4683 92.3469 30.9257C92.3469 31.2167 92.2832 31.4675 92.1559 31.678C92.0259 31.8911 91.8375 32.0536 91.5906 32.1653C91.3411 32.2745 91.0436 32.3291 90.6979 32.3291L90.7681 32.2394H90.9084C91.0903 32.2394 91.2502 32.2862 91.3879 32.3797C91.5231 32.4733 91.6465 32.6227 91.7583 32.828L92.4327 34.0833C92.469 34.1483 92.4859 34.2119 92.4833 34.2743C92.4807 34.3393 92.4586 34.3913 92.4171 34.4302C92.3755 34.4692 92.3144 34.4887 92.2338 34.4887C92.1559 34.4887 92.0909 34.4705 92.0389 34.4341C91.987 34.3978 91.9428 34.3445 91.9064 34.2743L91.1423 32.8553C91.0332 32.6552 90.9084 32.5201 90.7681 32.4499C90.6277 32.3823 90.4432 32.3485 90.2145 32.3485H89.3179V34.1885C89.3179 34.2821 89.2945 34.3562 89.2477 34.4108C89.201 34.4627 89.1282 34.4887 89.0294 34.4887ZM89.3179 29.9706V31.8924H90.616C90.9981 31.8924 91.2879 31.8119 91.4854 31.6508C91.6803 31.4896 91.7777 31.2479 91.7777 30.9257C91.7777 30.6112 91.6803 30.3734 91.4854 30.2123C91.2879 30.0511 90.9981 29.9706 90.616 29.9706H89.3179ZM95.1966 34.4887C95.103 34.4887 95.0315 34.4627 94.9822 34.4108C94.9328 34.3562 94.9081 34.2821 94.9081 34.1885V29.7484C94.9081 29.6496 94.9328 29.5743 94.9822 29.5223C95.0315 29.4703 95.103 29.4443 95.1966 29.4443C95.2901 29.4443 95.3616 29.4703 95.411 29.5223C95.4603 29.5743 95.485 29.6496 95.485 29.7484V34.1885C95.485 34.2821 95.4616 34.3562 95.4149 34.4108C95.3681 34.4627 95.2953 34.4887 95.1966 34.4887ZM98.4594 34.4887C98.3711 34.4887 98.3035 34.4653 98.2567 34.4185C98.2099 34.3692 98.1866 34.2977 98.1866 34.2041V29.7406C98.1866 29.647 98.2099 29.5743 98.2567 29.5223C98.3035 29.4703 98.3646 29.4443 98.4399 29.4443C98.5127 29.4443 98.5673 29.4573 98.6037 29.4833C98.6375 29.5093 98.6777 29.5548 98.7245 29.6197L101.785 33.6974H101.617V29.725C101.617 29.6366 101.64 29.5678 101.687 29.5184C101.734 29.469 101.802 29.4443 101.89 29.4443C101.976 29.4443 102.041 29.469 102.085 29.5184C102.129 29.5678 102.151 29.6366 102.151 29.725V34.208C102.151 34.299 102.132 34.3692 102.093 34.4185C102.051 34.4653 101.993 34.4887 101.917 34.4887C101.847 34.4887 101.791 34.4757 101.75 34.4497C101.708 34.4211 101.664 34.3757 101.617 34.3133L98.5647 30.2396H98.7245V34.2041C98.7245 34.2977 98.7011 34.3692 98.6544 34.4185C98.6076 34.4653 98.5426 34.4887 98.4594 34.4887ZM107.11 34.5043C106.582 34.5043 106.138 34.4043 105.777 34.2041C105.413 34.0014 105.137 33.7104 104.95 33.3309C104.763 32.9541 104.669 32.5006 104.669 31.9704C104.669 31.578 104.723 31.2245 104.829 30.9101C104.933 30.5982 105.087 30.3331 105.289 30.1148C105.495 29.8965 105.743 29.7276 106.034 29.608C106.328 29.4911 106.659 29.4326 107.028 29.4326C107.322 29.4326 107.606 29.4729 107.882 29.5535C108.16 29.6366 108.405 29.7666 108.618 29.9433C108.676 29.9849 108.711 30.0317 108.724 30.0836C108.739 30.1356 108.739 30.1876 108.724 30.2396C108.705 30.2889 108.679 30.3318 108.646 30.3682C108.609 30.402 108.565 30.4215 108.513 30.4267C108.459 30.4319 108.403 30.4163 108.346 30.3799C108.153 30.2292 107.951 30.12 107.737 30.0524C107.522 29.9849 107.283 29.9511 107.02 29.9511C106.646 29.9511 106.329 30.0304 106.069 30.1889C105.809 30.3474 105.613 30.5761 105.48 30.875C105.348 31.1765 105.281 31.5416 105.281 31.9704C105.281 32.6253 105.435 33.1256 105.741 33.4713C106.046 33.8195 106.507 33.9936 107.125 33.9936C107.349 33.9936 107.568 33.9715 107.784 33.9274C108 33.8806 108.204 33.8182 108.396 33.7402L108.268 34.0677V32.3213H107.266C107.183 32.3213 107.119 32.3005 107.075 32.2589C107.033 32.2173 107.012 32.1614 107.012 32.0913C107.012 32.0159 107.033 31.96 107.075 31.9236C107.119 31.8847 107.183 31.8652 107.266 31.8652H108.521C108.602 31.8652 108.663 31.886 108.704 31.9275C108.746 31.9717 108.767 32.0328 108.767 32.1108V33.943C108.767 34.0131 108.755 34.0716 108.731 34.1184C108.708 34.1652 108.669 34.2002 108.615 34.2236C108.417 34.3042 108.182 34.3705 107.909 34.4224C107.633 34.477 107.367 34.5043 107.11 34.5043ZM114.992 34.4887C114.899 34.4887 114.827 34.4627 114.778 34.4108C114.728 34.3562 114.704 34.2821 114.704 34.1885V29.7484C114.704 29.6496 114.728 29.5743 114.778 29.5223C114.827 29.4703 114.899 29.4443 114.992 29.4443C115.086 29.4443 115.157 29.4703 115.207 29.5223C115.256 29.5743 115.281 29.6496 115.281 29.7484V31.6819H118.247V29.7484C118.247 29.6496 118.272 29.5743 118.321 29.5223C118.371 29.4703 118.442 29.4443 118.536 29.4443C118.629 29.4443 118.701 29.4703 118.75 29.5223C118.799 29.5743 118.824 29.6496 118.824 29.7484V34.1885C118.824 34.2821 118.799 34.3562 118.75 34.4108C118.701 34.4627 118.629 34.4887 118.536 34.4887C118.442 34.4887 118.371 34.4627 118.321 34.4108C118.272 34.3562 118.247 34.2821 118.247 34.1885V32.1809H115.281V34.1885C115.281 34.2821 115.257 34.3562 115.21 34.4108C115.164 34.4627 115.091 34.4887 114.992 34.4887ZM124.442 34.4419H121.834C121.73 34.4419 121.652 34.4147 121.6 34.3601C121.545 34.3055 121.518 34.2275 121.518 34.1262V29.8108C121.518 29.7068 121.545 29.6275 121.6 29.573C121.652 29.521 121.73 29.495 121.834 29.495H124.442C124.522 29.495 124.583 29.5158 124.625 29.5574C124.666 29.5989 124.687 29.6574 124.687 29.7328C124.687 29.8134 124.666 29.8744 124.625 29.916C124.583 29.9576 124.522 29.9784 124.442 29.9784H122.079V31.6897H124.297C124.375 31.6897 124.435 31.7092 124.477 31.7482C124.521 31.7898 124.543 31.8496 124.543 31.9275C124.543 32.0081 124.521 32.0692 124.477 32.1108C124.435 32.1523 124.375 32.1731 124.297 32.1731H122.079V33.9585H124.442C124.522 33.9585 124.583 33.9793 124.625 34.0209C124.666 34.0625 124.687 34.121 124.687 34.1963C124.687 34.2743 124.666 34.3354 124.625 34.3796C124.583 34.4211 124.522 34.4419 124.442 34.4419ZM127.369 34.4887C127.276 34.4887 127.204 34.4627 127.155 34.4108C127.105 34.3562 127.081 34.2821 127.081 34.1885V29.7874C127.081 29.6912 127.107 29.6184 127.159 29.5691C127.211 29.5197 127.284 29.495 127.377 29.495H129.038C129.568 29.495 129.976 29.6184 130.262 29.8653C130.545 30.1148 130.687 30.4683 130.687 30.9257C130.687 31.2167 130.623 31.4675 130.496 31.678C130.366 31.8911 130.177 32.0536 129.93 32.1653C129.684 32.2745 129.386 32.3291 129.038 32.3291L129.108 32.2394H129.248C129.433 32.2394 129.593 32.2862 129.728 32.3797C129.863 32.4733 129.986 32.6227 130.098 32.828L130.772 34.0833C130.809 34.1483 130.827 34.2119 130.827 34.2743C130.824 34.3393 130.801 34.3913 130.757 34.4302C130.715 34.4692 130.656 34.4887 130.578 34.4887C130.497 34.4887 130.431 34.4705 130.379 34.4341C130.327 34.3978 130.283 34.3445 130.246 34.2743L129.482 32.8553C129.373 32.6552 129.248 32.5201 129.108 32.4499C128.968 32.3823 128.783 32.3485 128.554 32.3485H127.658V34.1885C127.658 34.2821 127.634 34.3562 127.588 34.4108C127.541 34.4627 127.468 34.4887 127.369 34.4887ZM127.658 29.9706V31.8924H128.956C129.338 31.8924 129.628 31.8119 129.825 31.6508C130.023 31.4896 130.121 31.2479 130.121 30.9257C130.121 30.6112 130.023 30.3734 129.825 30.2123C129.628 30.0511 129.338 29.9706 128.956 29.9706H127.658ZM135.291 34.5043C134.833 34.5043 134.434 34.4004 134.094 34.1924C133.756 33.9845 133.495 33.6909 133.31 33.3114C133.126 32.932 133.034 32.4824 133.034 31.9626C133.034 31.5702 133.085 31.218 133.189 30.9062C133.296 30.5969 133.447 30.3331 133.642 30.1148C133.839 29.8965 134.077 29.7276 134.355 29.608C134.633 29.4911 134.945 29.4326 135.291 29.4326C135.758 29.4326 136.163 29.5353 136.503 29.7406C136.841 29.9459 137.102 30.237 137.287 30.6138C137.471 30.9906 137.563 31.4389 137.563 31.9587C137.563 32.3511 137.51 32.7033 137.404 33.0152C137.297 33.3296 137.145 33.5973 136.947 33.8182C136.75 34.0365 136.512 34.2054 136.234 34.325C135.956 34.4445 135.641 34.5043 135.291 34.5043ZM135.291 33.9936C135.647 33.9936 135.948 33.9131 136.195 33.7519C136.439 33.5934 136.626 33.3621 136.756 33.058C136.889 32.754 136.955 32.3888 136.955 31.9626C136.955 31.3233 136.811 30.8269 136.522 30.4735C136.234 30.12 135.823 29.9433 135.291 29.9433C134.945 29.9433 134.65 30.0226 134.406 30.1811C134.159 30.3396 133.97 30.5696 133.84 30.8711C133.708 31.1752 133.642 31.539 133.642 31.9626C133.642 32.5993 133.787 33.097 134.078 33.4557C134.367 33.8143 134.771 33.9936 135.291 33.9936ZM142.998 34.4419H140.386C140.282 34.4419 140.204 34.4147 140.152 34.3601C140.097 34.3055 140.07 34.2275 140.07 34.1262V29.8108C140.07 29.7068 140.097 29.6275 140.152 29.573C140.204 29.521 140.282 29.495 140.386 29.495H142.998C143.076 29.495 143.135 29.5158 143.177 29.5574C143.221 29.5989 143.243 29.6574 143.243 29.7328C143.243 29.8134 143.221 29.8744 143.177 29.916C143.135 29.9576 143.076 29.9784 142.998 29.9784H140.631V31.6897H142.849C142.927 31.6897 142.988 31.7092 143.033 31.7482C143.074 31.7898 143.095 31.8496 143.095 31.9275C143.095 32.0081 143.074 32.0692 143.033 32.1108C142.988 32.1523 142.927 32.1731 142.849 32.1731H140.631V33.9585H142.998C143.076 33.9585 143.135 33.9793 143.177 34.0209C143.221 34.0625 143.243 34.121 143.243 34.1963C143.243 34.2743 143.221 34.3354 143.177 34.3796C143.135 34.4211 143.076 34.4419 142.998 34.4419ZM147.165 34.5043C146.944 34.5043 146.728 34.4861 146.518 34.4497C146.307 34.4108 146.112 34.3562 145.933 34.286C145.754 34.2158 145.591 34.1275 145.446 34.0209C145.389 33.9793 145.35 33.9313 145.329 33.8767C145.308 33.8221 145.304 33.7688 145.317 33.7169C145.327 33.6623 145.351 33.6155 145.387 33.5765C145.421 33.5401 145.464 33.5193 145.516 33.5141C145.568 33.5089 145.624 33.5258 145.684 33.5648C145.894 33.713 146.119 33.8221 146.358 33.8923C146.597 33.9598 146.866 33.9936 147.165 33.9936C147.586 33.9936 147.898 33.9144 148.1 33.7558C148.303 33.5999 148.405 33.3933 148.405 33.136C148.405 32.9255 148.332 32.7605 148.186 32.6409C148.038 32.5214 147.791 32.4265 147.446 32.3563L146.717 32.2082C146.275 32.1147 145.946 31.9613 145.73 31.7482C145.512 31.5377 145.403 31.2544 145.403 30.8984C145.403 30.6775 145.447 30.4774 145.535 30.298C145.624 30.1187 145.748 29.9641 145.91 29.8341C146.068 29.7068 146.257 29.608 146.475 29.5379C146.696 29.4677 146.94 29.4326 147.208 29.4326C147.501 29.4326 147.776 29.4729 148.03 29.5535C148.285 29.6366 148.515 29.7601 148.72 29.9238C148.772 29.9654 148.807 30.0122 148.826 30.0641C148.846 30.1187 148.849 30.1707 148.833 30.2201C148.82 30.2695 148.796 30.311 148.759 30.3448C148.725 30.376 148.681 30.3942 148.627 30.3994C148.572 30.4046 148.512 30.3864 148.447 30.3448C148.26 30.2045 148.067 30.1018 147.867 30.0369C147.664 29.9745 147.442 29.9433 147.2 29.9433C146.95 29.9433 146.736 29.981 146.557 30.0563C146.377 30.1317 146.237 30.2396 146.136 30.3799C146.034 30.5228 145.984 30.6879 145.984 30.875C145.984 31.1011 146.054 31.2791 146.194 31.4091C146.332 31.5416 146.557 31.6378 146.869 31.6975L147.598 31.8535C148.071 31.9496 148.421 32.0978 148.65 32.2979C148.876 32.4954 148.989 32.7657 148.989 33.1087C148.989 33.314 148.946 33.5037 148.861 33.6779C148.777 33.8494 148.657 33.9975 148.498 34.1223C148.34 34.247 148.147 34.3419 147.921 34.4069C147.698 34.4718 147.446 34.5043 147.165 34.5043ZM154.946 34.4887C154.847 34.4887 154.772 34.4627 154.72 34.4108C154.665 34.3562 154.638 34.2769 154.638 34.173V29.8108C154.638 29.7068 154.665 29.6275 154.72 29.573C154.772 29.521 154.85 29.495 154.954 29.495H157.499C157.58 29.495 157.641 29.5158 157.682 29.5574C157.724 29.5989 157.745 29.6574 157.745 29.7328C157.745 29.8134 157.724 29.8744 157.682 29.916C157.641 29.9576 157.58 29.9784 157.499 29.9784H155.211V31.7053H157.351C157.432 31.7053 157.494 31.7261 157.538 31.7677C157.582 31.8093 157.605 31.8678 157.605 31.9431C157.605 32.0237 157.582 32.0848 157.538 32.1263C157.494 32.1679 157.432 32.1887 157.351 32.1887H155.211V34.173C155.211 34.3835 155.123 34.4887 154.946 34.4887ZM161.912 34.5043C161.455 34.5043 161.056 34.4004 160.715 34.1924C160.378 33.9845 160.116 33.6909 159.932 33.3114C159.747 32.932 159.655 32.4824 159.655 31.9626C159.655 31.5702 159.707 31.218 159.811 30.9062C159.918 30.5969 160.068 30.3331 160.263 30.1148C160.461 29.8965 160.698 29.7276 160.977 29.608C161.255 29.4911 161.567 29.4326 161.912 29.4326C162.38 29.4326 162.784 29.5353 163.125 29.7406C163.462 29.9459 163.724 30.237 163.908 30.6138C164.095 30.9906 164.189 31.4389 164.189 31.9587C164.189 32.3511 164.134 32.7033 164.025 33.0152C163.918 33.3296 163.766 33.5973 163.569 33.8182C163.374 34.0365 163.136 34.2054 162.856 34.325C162.577 34.4445 162.263 34.5043 161.912 34.5043ZM161.912 33.9936C162.268 33.9936 162.57 33.9131 162.817 33.7519C163.061 33.5934 163.249 33.3621 163.382 33.058C163.512 32.754 163.577 32.3888 163.577 31.9626C163.577 31.3233 163.432 30.8269 163.144 30.4735C162.858 30.12 162.448 29.9433 161.912 29.9433C161.567 29.9433 161.272 30.0226 161.027 30.1811C160.78 30.3396 160.592 30.5696 160.462 30.8711C160.329 31.1752 160.263 31.539 160.263 31.9626C160.263 32.5993 160.409 33.097 160.7 33.4557C160.991 33.8143 161.395 33.9936 161.912 33.9936ZM166.98 34.4887C166.886 34.4887 166.815 34.4627 166.766 34.4108C166.716 34.3562 166.691 34.2821 166.691 34.1885V29.7874C166.691 29.6912 166.717 29.6184 166.769 29.5691C166.821 29.5197 166.894 29.495 166.988 29.495H168.648C169.179 29.495 169.587 29.6184 169.872 29.8653C170.156 30.1148 170.297 30.4683 170.297 30.9257C170.297 31.2167 170.234 31.4675 170.106 31.678C169.976 31.8911 169.788 32.0536 169.541 32.1653C169.294 32.2745 168.997 32.3291 168.648 32.3291L168.719 32.2394H168.859C169.043 32.2394 169.203 32.2862 169.338 32.3797C169.474 32.4733 169.597 32.6227 169.709 32.828L170.383 34.0833C170.42 34.1483 170.436 34.2119 170.434 34.2743C170.434 34.3393 170.412 34.3913 170.368 34.4302C170.326 34.4692 170.266 34.4887 170.188 34.4887C170.108 34.4887 170.041 34.4705 169.989 34.4341C169.937 34.3978 169.893 34.3445 169.857 34.2743L169.093 32.8553C168.984 32.6552 168.859 32.5201 168.719 32.4499C168.578 32.3823 168.394 32.3485 168.165 32.3485H167.268V34.1885C167.268 34.2821 167.245 34.3562 167.198 34.4108C167.151 34.4627 167.079 34.4887 166.98 34.4887ZM167.268 29.9706V31.8924H168.567C168.949 31.8924 169.238 31.8119 169.436 31.6508C169.633 31.4896 169.732 31.2479 169.732 30.9257C169.732 30.6112 169.633 30.3734 169.436 30.2123C169.238 30.0511 168.949 29.9706 168.567 29.9706H167.268ZM176.04 34.4887C175.964 34.4887 175.904 34.4718 175.86 34.438C175.816 34.4017 175.79 34.3549 175.782 34.2977C175.775 34.2379 175.788 34.1717 175.821 34.0989L177.751 29.7055C177.793 29.6119 177.843 29.5444 177.903 29.5028C177.96 29.4638 178.024 29.4443 178.094 29.4443C178.164 29.4443 178.229 29.4638 178.289 29.5028C178.346 29.5444 178.394 29.6119 178.433 29.7055L180.367 34.0989C180.406 34.1717 180.421 34.2392 180.414 34.3016C180.406 34.3614 180.381 34.4082 180.339 34.4419C180.298 34.4731 180.239 34.4887 180.164 34.4887C180.081 34.4887 180.013 34.4666 179.961 34.4224C179.909 34.3783 179.868 34.3146 179.837 34.2314L179.314 33.0308L179.595 33.1789H176.578L176.866 33.0308L176.355 34.2314C176.314 34.3198 176.27 34.3848 176.223 34.4263C176.176 34.4679 176.115 34.4887 176.04 34.4887ZM178.102 30.1694H178.086L176.96 32.828L176.788 32.6955H179.384L179.232 32.828L178.102 30.1694ZM186.292 34.4887C186.201 34.4887 186.132 34.4653 186.086 34.4185C186.039 34.3692 186.015 34.2977 186.015 34.2041V29.7406C186.015 29.647 186.039 29.5743 186.086 29.5223C186.132 29.4703 186.193 29.4443 186.269 29.4443C186.344 29.4443 186.399 29.4573 186.432 29.4833C186.469 29.5093 186.51 29.5548 186.557 29.6197L189.617 33.6974H189.45V29.725C189.45 29.6366 189.473 29.5678 189.52 29.5184C189.567 29.469 189.634 29.4443 189.723 29.4443C189.806 29.4443 189.869 29.469 189.914 29.5184C189.958 29.5678 189.98 29.6366 189.98 29.725V34.208C189.98 34.299 189.96 34.3692 189.921 34.4185C189.882 34.4653 189.825 34.4887 189.75 34.4887C189.68 34.4887 189.624 34.4757 189.582 34.4497C189.541 34.4211 189.497 34.3757 189.45 34.3133L186.397 30.2396H186.557V34.2041C186.557 34.2977 186.534 34.3692 186.487 34.4185C186.44 34.4653 186.375 34.4887 186.292 34.4887ZM195.609 34.4419H192.997C192.896 34.4419 192.818 34.4147 192.763 34.3601C192.709 34.3055 192.681 34.2275 192.681 34.1262V29.8108C192.681 29.7068 192.709 29.6275 192.763 29.573C192.818 29.521 192.896 29.495 192.997 29.495H195.609C195.69 29.495 195.751 29.5158 195.792 29.5574C195.834 29.5989 195.855 29.6574 195.855 29.7328C195.855 29.8134 195.834 29.8744 195.792 29.916C195.751 29.9576 195.69 29.9784 195.609 29.9784H193.243V31.6897H195.461C195.542 31.6897 195.603 31.7092 195.644 31.7482C195.686 31.7898 195.707 31.8496 195.707 31.9275C195.707 32.0081 195.686 32.0692 195.644 32.1108C195.603 32.1523 195.542 32.1731 195.461 32.1731H193.243V33.9585H195.609C195.69 33.9585 195.751 33.9793 195.792 34.0209C195.834 34.0625 195.855 34.121 195.855 34.1963C195.855 34.2743 195.834 34.3354 195.792 34.3796C195.751 34.4211 195.69 34.4419 195.609 34.4419ZM199.784 34.4887C199.701 34.4887 199.633 34.4666 199.581 34.4224C199.529 34.3783 199.487 34.312 199.453 34.2236L197.905 29.7952C197.871 29.6964 197.879 29.6132 197.929 29.5457C197.978 29.4781 198.056 29.4443 198.162 29.4443C198.243 29.4443 198.307 29.4638 198.354 29.5028C198.4 29.5444 198.439 29.6067 198.47 29.6899L199.925 33.9508H199.679L201.16 29.7133C201.191 29.6223 201.23 29.5548 201.277 29.5106C201.324 29.4664 201.388 29.4443 201.468 29.4443C201.544 29.4443 201.603 29.4664 201.648 29.5106C201.692 29.5548 201.731 29.6223 201.765 29.7133L203.222 33.9508H203.004L204.47 29.6899C204.493 29.6119 204.53 29.5509 204.579 29.5067C204.628 29.4651 204.693 29.4443 204.774 29.4443C204.873 29.4443 204.946 29.4768 204.992 29.5418C205.039 29.6093 205.043 29.6938 205.004 29.7952L203.449 34.2236C203.415 34.312 203.373 34.3783 203.324 34.4224C203.274 34.4666 203.206 34.4887 203.117 34.4887C203.034 34.4887 202.968 34.4666 202.918 34.4224C202.869 34.3783 202.825 34.312 202.786 34.2236L201.379 30.1616H201.531L200.108 34.2236C200.074 34.312 200.034 34.3783 199.987 34.4224C199.94 34.4666 199.873 34.4887 199.784 34.4887ZM210.992 34.4887C210.893 34.4887 210.816 34.4627 210.762 34.4108C210.707 34.3562 210.68 34.2769 210.68 34.173V29.8108C210.68 29.7068 210.707 29.6275 210.762 29.573C210.816 29.521 210.894 29.495 210.996 29.495H213.545C213.623 29.495 213.684 29.5158 213.728 29.5574C213.77 29.5989 213.791 29.6574 213.791 29.7328C213.791 29.8134 213.77 29.8744 213.728 29.916C213.684 29.9576 213.623 29.9784 213.545 29.9784H211.257V31.7053H213.397C213.478 31.7053 213.54 31.7261 213.584 31.7677C213.628 31.8093 213.65 31.8678 213.65 31.9431C213.65 32.0237 213.628 32.0848 213.584 32.1263C213.54 32.1679 213.478 32.1887 213.397 32.1887H211.257V34.173C211.257 34.3835 211.169 34.4887 210.992 34.4887ZM216.29 34.4887C216.196 34.4887 216.125 34.4627 216.075 34.4108C216.026 34.3562 216.001 34.2821 216.001 34.1885V29.7874C216.001 29.6912 216.027 29.6184 216.079 29.5691C216.128 29.5197 216.2 29.495 216.294 29.495H217.958C218.486 29.495 218.892 29.6184 219.178 29.8653C219.464 30.1148 219.607 30.4683 219.607 30.9257C219.607 31.2167 219.542 31.4675 219.412 31.678C219.285 31.8911 219.098 32.0536 218.851 32.1653C218.601 32.2745 218.304 32.3291 217.958 32.3291L218.028 32.2394H218.169C218.351 32.2394 218.509 32.2862 218.644 32.3797C218.782 32.4733 218.907 32.6227 219.018 32.828L219.693 34.0833C219.729 34.1483 219.746 34.2119 219.744 34.2743C219.741 34.3393 219.719 34.3913 219.677 34.4302C219.636 34.4692 219.575 34.4887 219.494 34.4887C219.416 34.4887 219.351 34.4705 219.299 34.4341C219.247 34.3978 219.203 34.3445 219.167 34.2743L218.399 32.8553C218.292 32.6552 218.169 32.5201 218.028 32.4499C217.888 32.3823 217.703 32.3485 217.475 32.3485H216.574V34.1885C216.574 34.2821 216.551 34.3562 216.504 34.4108C216.457 34.4627 216.386 34.4887 216.29 34.4887ZM216.574 29.9706V31.8924H217.872C218.257 31.8924 218.548 31.8119 218.746 31.6508C218.94 31.4896 219.038 31.2479 219.038 30.9257C219.038 30.6112 218.94 30.3734 218.746 30.2123C218.548 30.0511 218.257 29.9706 217.872 29.9706H216.574ZM224.211 34.5043C223.751 34.5043 223.352 34.4004 223.014 34.1924C222.674 33.9845 222.411 33.6909 222.227 33.3114C222.042 32.932 221.95 32.4824 221.95 31.9626C221.95 31.5702 222.003 31.218 222.11 30.9062C222.214 30.5969 222.364 30.3331 222.562 30.1148C222.757 29.8965 222.993 29.7276 223.271 29.608C223.552 29.4911 223.865 29.4326 224.211 29.4326C224.679 29.4326 225.082 29.5353 225.419 29.7406C225.76 29.9459 226.022 30.237 226.207 30.6138C226.391 30.9906 226.484 31.4389 226.484 31.9587C226.484 32.3511 226.43 32.7033 226.324 33.0152C226.215 33.3296 226.063 33.5973 225.868 33.8182C225.67 34.0365 225.432 34.2054 225.154 34.325C224.876 34.4445 224.562 34.5043 224.211 34.5043ZM224.211 33.9936C224.567 33.9936 224.867 33.9131 225.111 33.7519C225.358 33.5934 225.547 33.3621 225.677 33.058C225.807 32.754 225.872 32.3888 225.872 31.9626C225.872 31.3233 225.729 30.8269 225.443 30.4735C225.154 30.12 224.744 29.9433 224.211 29.9433C223.865 29.9433 223.569 30.0226 223.322 30.1811C223.078 30.3396 222.889 30.5696 222.757 30.8711C222.627 31.1752 222.562 31.539 222.562 31.9626C222.562 32.5993 222.706 33.097 222.995 33.4557C223.286 33.8143 223.691 33.9936 224.211 33.9936ZM229.263 34.4887C229.175 34.4887 229.107 34.4653 229.06 34.4185C229.014 34.3692 228.99 34.2977 228.99 34.2041V29.7406C228.99 29.647 229.014 29.5743 229.06 29.5223C229.107 29.4703 229.167 29.4443 229.24 29.4443C229.315 29.4443 229.371 29.4573 229.407 29.4833C229.441 29.5093 229.481 29.5548 229.528 29.6197L232.588 33.6974H232.421V29.725C232.421 29.6366 232.444 29.5678 232.491 29.5184C232.538 29.469 232.605 29.4443 232.694 29.4443C232.777 29.4443 232.841 29.469 232.885 29.5184C232.931 29.5678 232.955 29.6366 232.955 29.725V34.208C232.955 34.299 232.934 34.3692 232.892 34.4185C232.854 34.4653 232.796 34.4887 232.721 34.4887C232.651 34.4887 232.595 34.4757 232.553 34.4497C232.512 34.4211 232.468 34.3757 232.421 34.3133L229.368 30.2396H229.528V34.2041C229.528 34.2977 229.505 34.3692 229.458 34.4185C229.411 34.4653 229.346 34.4887 229.263 34.4887ZM237.157 34.4887C237.069 34.4887 236.999 34.4627 236.947 34.4108C236.895 34.3562 236.869 34.2821 236.869 34.1885V29.994H235.29C235.207 29.994 235.142 29.9706 235.095 29.9238C235.048 29.877 235.025 29.816 235.025 29.7406C235.025 29.66 235.048 29.5989 235.095 29.5574C235.142 29.5158 235.207 29.495 235.29 29.495H239.028C239.114 29.495 239.18 29.5158 239.227 29.5574C239.274 29.5989 239.297 29.66 239.297 29.7406C239.297 29.8185 239.274 29.8796 239.227 29.9238C239.18 29.9706 239.114 29.994 239.028 29.994H237.45V34.1885C237.45 34.2821 237.425 34.3562 237.376 34.4108C237.329 34.4627 237.256 34.4887 237.157 34.4887ZM241.64 34.4887C241.547 34.4887 241.475 34.4627 241.426 34.4108C241.377 34.3562 241.352 34.2821 241.352 34.1885V29.7484C241.352 29.6496 241.377 29.5743 241.426 29.5223C241.475 29.4703 241.547 29.4443 241.64 29.4443C241.734 29.4443 241.805 29.4703 241.855 29.5223C241.904 29.5743 241.929 29.6496 241.929 29.7484V34.1885C241.929 34.2821 241.905 34.3562 241.859 34.4108C241.812 34.4627 241.739 34.4887 241.64 34.4887ZM247.554 34.4419H244.946C244.842 34.4419 244.763 34.4147 244.708 34.3601C244.656 34.3055 244.63 34.2275 244.63 34.1262V29.8108C244.63 29.7068 244.656 29.6275 244.708 29.573C244.763 29.521 244.842 29.495 244.946 29.495H247.554C247.635 29.495 247.696 29.5158 247.737 29.5574C247.779 29.5989 247.8 29.6574 247.8 29.7328C247.8 29.8134 247.779 29.8744 247.737 29.916C247.696 29.9576 247.635 29.9784 247.554 29.9784H245.192V31.6897H247.41C247.488 31.6897 247.548 31.7092 247.589 31.7482C247.633 31.7898 247.655 31.8496 247.655 31.9275C247.655 32.0081 247.633 32.0692 247.589 32.1108C247.548 32.1523 247.488 32.1731 247.41 32.1731H245.192V33.9585H247.554C247.635 33.9585 247.696 33.9793 247.737 34.0209C247.779 34.0625 247.8 34.121 247.8 34.1963C247.8 34.2743 247.779 34.3354 247.737 34.3796C247.696 34.4211 247.635 34.4419 247.554 34.4419ZM250.482 34.4887C250.388 34.4887 250.317 34.4627 250.267 34.4108C250.218 34.3562 250.193 34.2821 250.193 34.1885V29.7874C250.193 29.6912 250.219 29.6184 250.271 29.5691C250.323 29.5197 250.396 29.495 250.489 29.495H252.15C252.68 29.495 253.088 29.6184 253.374 29.8653C253.657 30.1148 253.799 30.4683 253.799 30.9257C253.799 31.2167 253.735 31.4675 253.608 31.678C253.478 31.8911 253.29 32.0536 253.043 32.1653C252.796 32.2745 252.498 32.3291 252.15 32.3291L252.22 32.2394H252.361C252.545 32.2394 252.705 32.2862 252.84 32.3797C252.975 32.4733 253.099 32.6227 253.21 32.828L253.885 34.0833C253.921 34.1483 253.938 34.2119 253.936 34.2743C253.936 34.3393 253.913 34.3913 253.869 34.4302C253.828 34.4692 253.768 34.4887 253.69 34.4887C253.609 34.4887 253.543 34.4705 253.491 34.4341C253.439 34.3978 253.395 34.3445 253.359 34.2743L252.595 32.8553C252.485 32.6552 252.361 32.5201 252.22 32.4499C252.08 32.3823 251.895 32.3485 251.667 32.3485H250.77V34.1885C250.77 34.2821 250.747 34.3562 250.7 34.4108C250.653 34.4627 250.58 34.4887 250.482 34.4887ZM250.77 29.9706V31.8924H252.068C252.45 31.8924 252.74 31.8119 252.938 31.6508C253.135 31.4896 253.234 31.2479 253.234 30.9257C253.234 30.6112 253.135 30.3734 252.938 30.2123C252.74 30.0511 252.45 29.9706 252.068 29.9706H250.77Z" fill="white"/>
<path d="M49.7814 22.7227C49.4747 22.7227 49.2337 22.6351 49.0584 22.4598C48.8832 22.2845 48.7955 22.0289 48.7955 21.693V12.7545C48.7955 12.4185 48.8832 12.1702 49.0584 12.0096C49.2337 11.8343 49.4747 11.7467 49.7814 11.7467C50.0881 11.7467 50.3218 11.8343 50.4825 12.0096C50.6577 12.1702 50.7454 12.4185 50.7454 12.7545V14.6167L50.5044 14.2223C50.7819 13.419 51.2273 12.7983 51.8408 12.3601C52.4688 11.922 53.2137 11.7029 54.0754 11.7029C54.9809 11.7029 55.7112 11.922 56.2662 12.3601C56.8212 12.7837 57.1937 13.4336 57.3835 14.3099H57.0768C57.3397 13.5066 57.8071 12.8713 58.479 12.4039C59.1654 11.9366 59.9614 11.7029 60.8669 11.7029C61.6702 11.7029 62.3275 11.8635 62.8387 12.1849C63.3645 12.4916 63.7588 12.9589 64.0217 13.587C64.2846 14.2004 64.4161 14.9891 64.4161 15.9531V21.693C64.4161 22.0289 64.3284 22.2845 64.1532 22.4598C63.9779 22.6351 63.7369 22.7227 63.4302 22.7227C63.1089 22.7227 62.8606 22.6351 62.6853 22.4598C62.5101 22.2845 62.4224 22.0289 62.4224 21.693V16.0407C62.4224 15.1059 62.2618 14.4195 61.9404 13.9813C61.6191 13.5432 61.0787 13.3241 60.3192 13.3241C59.4867 13.3241 58.8222 13.6162 58.3256 14.2004C57.8436 14.77 57.6026 15.5587 57.6026 16.5665V21.693C57.6026 22.0289 57.515 22.2845 57.3397 22.4598C57.1791 22.6351 56.9381 22.7227 56.6168 22.7227C56.2954 22.7227 56.0471 22.6351 55.8719 22.4598C55.6966 22.2845 55.609 22.0289 55.609 21.693V16.0407C55.609 15.1059 55.4483 14.4195 55.127 13.9813C54.8057 13.5432 54.2653 13.3241 53.5058 13.3241C52.6733 13.3241 52.0087 13.6162 51.5121 14.2004C51.0302 14.77 50.7892 15.5587 50.7892 16.5665V21.693C50.7892 22.3795 50.4533 22.7227 49.7814 22.7227Z" fill="white"/>
<path d="M68.7173 22.6789C68.4106 22.6789 68.1696 22.5839 67.9943 22.3941C67.819 22.2042 67.7314 21.9413 67.7314 21.6054V12.864C67.7314 12.5135 67.819 12.2506 67.9943 12.0753C68.1696 11.8854 68.4106 11.7905 68.7173 11.7905C69.0386 11.7905 69.2869 11.8854 69.4621 12.0753C69.6374 12.2506 69.725 12.5135 69.725 12.864V21.6054C69.725 21.9413 69.6374 22.2042 69.4621 22.3941C69.3015 22.5839 69.0532 22.6789 68.7173 22.6789ZM68.7173 9.42442C68.3229 9.42442 68.0089 9.32218 67.7752 9.11771C67.5561 8.89862 67.4466 8.61382 67.4466 8.26329C67.4466 7.88354 67.5561 7.59874 67.7752 7.40887C68.0089 7.20439 68.3229 7.10215 68.7173 7.10215C69.1408 7.10215 69.4548 7.20439 69.6593 7.40887C69.8784 7.59874 69.9879 7.88354 69.9879 8.26329C69.9879 8.61382 69.8784 8.89862 69.6593 9.11771C69.4548 9.32218 69.1408 9.42442 68.7173 9.42442Z" fill="white"/>
<path d="M76.3918 22.7665C75.2964 22.7665 74.4639 22.4452 73.8943 21.8025C73.3247 21.1453 73.0399 20.2032 73.0399 18.9764V7.97848C73.0399 7.64255 73.1275 7.39426 73.3027 7.2336C73.478 7.05834 73.719 6.9707 74.0257 6.9707C74.347 6.9707 74.5953 7.05834 74.7706 7.2336C74.9459 7.39426 75.0335 7.64255 75.0335 7.97848V18.823C75.0335 19.5825 75.1869 20.1521 75.4936 20.5319C75.8149 20.897 76.2677 21.0796 76.8519 21.0796C76.9833 21.0796 77.1002 21.0796 77.2024 21.0796C77.3046 21.065 77.4069 21.0504 77.5091 21.0358C77.6698 21.0212 77.7866 21.065 77.8597 21.1672C77.9327 21.2694 77.9692 21.4739 77.9692 21.7806C77.9692 22.0581 77.9035 22.2772 77.772 22.4379C77.6552 22.5839 77.458 22.6789 77.1805 22.7227C77.0491 22.7373 76.9176 22.7446 76.7862 22.7446C76.6547 22.7592 76.5233 22.7665 76.3918 22.7665Z" fill="white"/>
<path d="M80.7248 22.6789C80.4181 22.6789 80.1771 22.5839 80.0019 22.3941C79.8266 22.2042 79.739 21.9413 79.739 21.6054V12.864C79.739 12.5135 79.8266 12.2506 80.0019 12.0753C80.1771 11.8854 80.4181 11.7905 80.7248 11.7905C81.0462 11.7905 81.2944 11.8854 81.4697 12.0753C81.645 12.2506 81.7326 12.5135 81.7326 12.864V21.6054C81.7326 21.9413 81.645 22.2042 81.4697 22.3941C81.3091 22.5839 81.0608 22.6789 80.7248 22.6789ZM80.7248 9.42442C80.3305 9.42442 80.0165 9.32218 79.7828 9.11771C79.5637 8.89862 79.4542 8.61382 79.4542 8.26329C79.4542 7.88354 79.5637 7.59874 79.7828 7.40887C80.0165 7.20439 80.3305 7.10215 80.7248 7.10215C81.1484 7.10215 81.4624 7.20439 81.6669 7.40887C81.886 7.59874 81.9955 7.88354 81.9955 8.26329C81.9955 8.61382 81.886 8.89862 81.6669 9.11771C81.4624 9.32218 81.1484 9.42442 80.7248 9.42442Z" fill="white"/>
<path d="M89.4729 22.7665C88.6112 22.7665 87.8882 22.6132 87.304 22.3064C86.7344 21.9997 86.3035 21.5543 86.0114 20.97C85.7339 20.3858 85.5951 19.6702 85.5951 18.823V13.4336H84.193C83.9301 13.4336 83.7256 13.3679 83.5796 13.2364C83.4335 13.0904 83.3605 12.9005 83.3605 12.6668C83.3605 12.4185 83.4335 12.2287 83.5796 12.0972C83.7256 11.9658 83.9301 11.9 84.193 11.9H85.5951V9.51205C85.5951 9.17613 85.6828 8.92783 85.858 8.76717C86.0333 8.59191 86.2816 8.50428 86.6029 8.50428C86.9242 8.50428 87.1652 8.59191 87.3259 8.76717C87.5011 8.92783 87.5888 9.17613 87.5888 9.51205V11.9H90.2397C90.5172 11.9 90.7289 11.9658 90.875 12.0972C91.0211 12.2287 91.0941 12.4185 91.0941 12.6668C91.0941 12.9005 91.0211 13.0904 90.875 13.2364C90.7289 13.3679 90.5172 13.4336 90.2397 13.4336H87.5888V18.6478C87.5888 19.4511 87.7567 20.0572 88.0927 20.4661C88.4286 20.8751 88.9836 21.0796 89.7577 21.0796C90.0352 21.0796 90.2689 21.0577 90.4587 21.0139C90.6486 20.9554 90.8166 20.9262 90.9626 20.9262C91.0941 20.9116 91.2036 20.9554 91.2913 21.0577C91.3935 21.1599 91.4446 21.3498 91.4446 21.6273C91.4446 21.8318 91.4081 22.0216 91.3351 22.1969C91.2766 22.3576 91.1525 22.4671 90.9626 22.5255C90.7874 22.5839 90.5537 22.6351 90.2616 22.6789C89.9695 22.7373 89.7066 22.7665 89.4729 22.7665Z" fill="white"/>
<path d="M96.4046 22.7665C95.6743 22.7665 95.0098 22.6205 94.4109 22.3283C93.8267 22.0362 93.3667 21.6419 93.0307 21.1453C92.7094 20.6487 92.5488 20.0937 92.5488 19.4803C92.5488 18.6916 92.7459 18.0709 93.1403 17.6181C93.5346 17.1653 94.1992 16.844 95.1339 16.6541C96.0687 16.4496 97.3247 16.3474 98.9021 16.3474H99.9318V17.6181H98.9459C97.8213 17.6181 96.9304 17.6692 96.2731 17.7714C95.6305 17.8737 95.1777 18.0562 94.9148 18.3191C94.6519 18.5674 94.5205 18.918 94.5205 19.3707C94.5205 19.9404 94.7177 20.4077 95.112 20.7729C95.521 21.138 96.076 21.3206 96.777 21.3206C97.332 21.3206 97.8213 21.1891 98.2449 20.9262C98.6684 20.6487 99.0044 20.2836 99.2527 19.8308C99.501 19.3634 99.6251 18.8303 99.6251 18.2315V15.7121C99.6251 14.8503 99.4498 14.2296 99.0993 13.8499C98.7488 13.4555 98.1572 13.2584 97.3247 13.2584C96.8428 13.2584 96.3462 13.3241 95.835 13.4555C95.3238 13.587 94.7907 13.7915 94.2357 14.069C94.0166 14.1712 93.8267 14.2077 93.6661 14.1785C93.5054 14.1347 93.374 14.047 93.2717 13.9156C93.1841 13.7695 93.133 13.6162 93.1184 13.4555C93.1184 13.2803 93.1549 13.1123 93.2279 12.9516C93.3155 12.791 93.4616 12.6741 93.6661 12.6011C94.3087 12.2798 94.944 12.0534 95.5721 11.922C96.2147 11.7759 96.8135 11.7029 97.3686 11.7029C98.3179 11.7029 99.0993 11.8562 99.7127 12.1629C100.326 12.4551 100.786 12.9151 101.093 13.5432C101.4 14.1566 101.553 14.9453 101.553 15.9092V21.693C101.553 22.0289 101.473 22.2845 101.312 22.4598C101.151 22.6351 100.918 22.7227 100.611 22.7227C100.319 22.7227 100.085 22.6351 99.9099 22.4598C99.7492 22.2845 99.6689 22.0289 99.6689 21.693V20.1375H99.8661C99.7492 20.6779 99.5302 21.1453 99.2088 21.5396C98.8875 21.934 98.4859 22.2407 98.0039 22.4598C97.5365 22.6643 97.0034 22.7665 96.4046 22.7665Z" fill="white"/>
<path d="M105.83 22.7227C105.494 22.7227 105.238 22.6351 105.063 22.4598C104.888 22.2845 104.8 22.0289 104.8 21.693V12.7545C104.8 12.4185 104.888 12.1702 105.063 12.0096C105.238 11.8343 105.479 11.7467 105.786 11.7467C106.092 11.7467 106.326 11.8343 106.487 12.0096C106.662 12.1702 106.75 12.4185 106.75 12.7545V14.4414H106.531C106.764 13.5651 107.202 12.9005 107.845 12.4478C108.488 11.995 109.298 11.7394 110.277 11.681C110.511 11.6664 110.7 11.7248 110.847 11.8562C110.993 11.9731 111.073 12.1775 111.088 12.4697C111.102 12.7472 111.036 12.9735 110.89 13.1488C110.744 13.3095 110.518 13.4044 110.211 13.4336L109.817 13.4555C108.853 13.5578 108.108 13.8718 107.582 14.3976C107.071 14.9234 106.815 15.6463 106.815 16.5665V21.693C106.815 22.0289 106.728 22.2845 106.553 22.4598C106.392 22.6351 106.151 22.7227 105.83 22.7227Z" fill="white"/>
<path d="M116.028 26.6662C115.794 26.6662 115.597 26.6004 115.436 26.469C115.29 26.3521 115.203 26.1842 115.174 25.9651C115.159 25.7606 115.203 25.5415 115.305 25.3079L116.795 21.934V22.7665L112.654 13.1269C112.552 12.8786 112.515 12.6522 112.545 12.4478C112.574 12.2433 112.669 12.0753 112.829 11.9439C113.005 11.8124 113.238 11.7467 113.53 11.7467C113.779 11.7467 113.976 11.8051 114.122 11.922C114.268 12.0388 114.407 12.2433 114.538 12.5354L117.978 21.0139H117.364L120.87 12.5354C120.987 12.2433 121.125 12.0388 121.286 11.922C121.447 11.8051 121.666 11.7467 121.943 11.7467C122.191 11.7467 122.381 11.8124 122.513 11.9439C122.659 12.0753 122.747 12.2433 122.776 12.4478C122.805 12.6522 122.761 12.8713 122.644 13.105L117.123 25.8775C116.977 26.1842 116.824 26.3887 116.663 26.4909C116.517 26.6077 116.305 26.6662 116.028 26.6662Z" fill="white"/>
<path d="M129.453 22.7665C128.372 22.7665 127.438 22.5401 126.649 22.0874C125.86 21.62 125.254 20.97 124.83 20.1375C124.407 19.2904 124.195 18.2972 124.195 17.158C124.195 16.3109 124.312 15.5514 124.546 14.8796C124.794 14.2077 125.144 13.6381 125.597 13.1707C126.05 12.6887 126.598 12.3236 127.24 12.0753C127.898 11.827 128.635 11.7029 129.453 11.7029C129.964 11.7029 130.505 11.7832 131.074 11.9439C131.644 12.1045 132.17 12.3674 132.652 12.7326C132.812 12.8494 132.915 12.9882 132.958 13.1488C133.002 13.2949 133.002 13.4482 132.958 13.6089C132.929 13.7695 132.856 13.9083 132.739 14.0251C132.637 14.1274 132.498 14.1858 132.323 14.2004C132.162 14.215 131.987 14.1639 131.797 14.047C131.447 13.7842 131.074 13.5943 130.68 13.4774C130.3 13.3606 129.935 13.3022 129.585 13.3022C129.044 13.3022 128.562 13.3898 128.139 13.5651C127.73 13.7403 127.379 13.9959 127.087 14.3319C126.81 14.6532 126.598 15.0548 126.452 15.5368C126.306 16.0042 126.233 16.5519 126.233 17.1799C126.233 18.4214 126.525 19.3999 127.109 20.1156C127.693 20.8167 128.518 21.1672 129.585 21.1672C129.935 21.1672 130.3 21.1161 130.68 21.0139C131.06 20.897 131.432 20.7071 131.797 20.4442C131.987 20.3274 132.162 20.2836 132.323 20.3128C132.484 20.3274 132.615 20.3931 132.717 20.51C132.834 20.6122 132.907 20.7437 132.937 20.9043C132.966 21.0504 132.951 21.2037 132.893 21.3644C132.849 21.525 132.747 21.6565 132.586 21.7587C132.119 22.1093 131.607 22.3649 131.052 22.5255C130.497 22.6862 129.964 22.7665 129.453 22.7665Z" fill="white"/>
<path d="M139.445 22.7665C138.393 22.7665 137.481 22.5401 136.706 22.0874C135.932 21.6346 135.334 20.9919 134.91 20.1594C134.486 19.3269 134.275 18.3484 134.275 17.2237C134.275 16.3766 134.391 15.6171 134.625 14.9453C134.873 14.2588 135.224 13.6746 135.677 13.1926C136.13 12.7106 136.67 12.3455 137.298 12.0972C137.941 11.8343 138.656 11.7029 139.445 11.7029C140.497 11.7029 141.409 11.9293 142.183 12.382C142.958 12.8348 143.556 13.4774 143.98 14.3099C144.403 15.1279 144.615 16.0991 144.615 17.2237C144.615 18.0709 144.491 18.8376 144.243 19.5241C144.009 20.2106 143.666 20.7948 143.213 21.2768C142.76 21.7587 142.213 22.1312 141.57 22.3941C140.942 22.6424 140.234 22.7665 139.445 22.7665ZM139.445 21.1891C140.088 21.1891 140.643 21.0358 141.11 20.729C141.592 20.4223 141.957 19.9769 142.205 19.3926C142.468 18.8084 142.6 18.0855 142.6 17.2237C142.6 15.9385 142.315 14.9599 141.745 14.288C141.176 13.6162 140.409 13.2803 139.445 13.2803C138.817 13.2803 138.262 13.4336 137.78 13.7403C137.313 14.0324 136.947 14.4706 136.685 15.0548C136.422 15.639 136.29 16.362 136.29 17.2237C136.29 18.509 136.575 19.4949 137.145 20.1813C137.729 20.8532 138.496 21.1891 139.445 21.1891Z" fill="white"/>
<path d="M150.674 22.7665C149.944 22.7665 149.28 22.6205 148.681 22.3283C148.097 22.0362 147.636 21.6419 147.301 21.1453C146.979 20.6487 146.819 20.0937 146.819 19.4803C146.819 18.6916 147.016 18.0709 147.41 17.6181C147.804 17.1653 148.469 16.844 149.404 16.6541C150.339 16.4496 151.595 16.3474 153.172 16.3474H154.202V17.6181H153.216C152.091 17.6181 151.2 17.6692 150.543 17.7714C149.9 17.8737 149.448 18.0562 149.185 18.3191C148.922 18.5674 148.79 18.918 148.79 19.3707C148.79 19.9404 148.988 20.4077 149.382 20.7729C149.791 21.138 150.346 21.3206 151.047 21.3206C151.602 21.3206 152.091 21.1891 152.515 20.9262C152.938 20.6487 153.274 20.2836 153.522 19.8308C153.771 19.3634 153.895 18.8303 153.895 18.2315V15.7121C153.895 14.8503 153.72 14.2296 153.369 13.8499C153.019 13.4555 152.427 13.2584 151.595 13.2584C151.113 13.2584 150.616 13.3241 150.105 13.4555C149.594 13.587 149.061 13.7915 148.506 14.069C148.286 14.1712 148.097 14.2077 147.936 14.1785C147.775 14.1347 147.644 14.047 147.542 13.9156C147.454 13.7695 147.403 13.6162 147.388 13.4555C147.388 13.2803 147.425 13.1123 147.498 12.9516C147.585 12.791 147.731 12.6741 147.936 12.6011C148.579 12.2798 149.214 12.0534 149.842 11.922C150.485 11.7759 151.083 11.7029 151.638 11.7029C152.588 11.7029 153.369 11.8562 153.983 12.1629C154.596 12.4551 155.056 12.9151 155.363 13.5432C155.669 14.1566 155.823 14.9453 155.823 15.9092V21.693C155.823 22.0289 155.743 22.2845 155.582 22.4598C155.421 22.6351 155.188 22.7227 154.881 22.7227C154.589 22.7227 154.355 22.6351 154.18 22.4598C154.019 22.2845 153.939 22.0289 153.939 21.693V20.1375H154.136C154.019 20.6779 153.8 21.1453 153.479 21.5396C153.157 21.934 152.756 22.2407 152.274 22.4598C151.806 22.6643 151.273 22.7665 150.674 22.7665Z" fill="white"/>
<path d="M163.692 22.7665C162.612 22.7665 161.677 22.5401 160.888 22.0874C160.099 21.62 159.493 20.97 159.07 20.1375C158.646 19.2904 158.434 18.2972 158.434 17.158C158.434 16.3109 158.551 15.5514 158.785 14.8796C159.033 14.2077 159.384 13.6381 159.837 13.1707C160.289 12.6887 160.837 12.3236 161.48 12.0753C162.137 11.827 162.874 11.7029 163.692 11.7029C164.204 11.7029 164.744 11.7832 165.314 11.9439C165.883 12.1045 166.409 12.3674 166.891 12.7326C167.052 12.8494 167.154 12.9882 167.198 13.1488C167.241 13.2949 167.241 13.4482 167.198 13.6089C167.168 13.7695 167.095 13.9083 166.979 14.0251C166.876 14.1274 166.738 14.1858 166.562 14.2004C166.402 14.215 166.226 14.1639 166.037 14.047C165.686 13.7842 165.314 13.5943 164.919 13.4774C164.539 13.3606 164.174 13.3022 163.824 13.3022C163.283 13.3022 162.801 13.3898 162.378 13.5651C161.969 13.7403 161.618 13.9959 161.326 14.3319C161.049 14.6532 160.837 15.0548 160.691 15.5368C160.545 16.0042 160.472 16.5519 160.472 17.1799C160.472 18.4214 160.764 19.3999 161.348 20.1156C161.932 20.8167 162.758 21.1672 163.824 21.1672C164.174 21.1672 164.539 21.1161 164.919 21.0139C165.299 20.897 165.671 20.7071 166.037 20.4442C166.226 20.3274 166.402 20.2836 166.562 20.3128C166.723 20.3274 166.854 20.3931 166.957 20.51C167.074 20.6122 167.147 20.7437 167.176 20.9043C167.205 21.0504 167.19 21.2037 167.132 21.3644C167.088 21.525 166.986 21.6565 166.825 21.7587C166.358 22.1093 165.847 22.3649 165.292 22.5255C164.737 22.6862 164.204 22.7665 163.692 22.7665Z" fill="white"/>
<path d="M170.349 22.7227C170.042 22.7227 169.801 22.6351 169.626 22.4598C169.451 22.2845 169.363 22.0289 169.363 21.693V7.97848C169.363 7.64255 169.451 7.39426 169.626 7.2336C169.801 7.05834 170.042 6.9707 170.349 6.9707C170.67 6.9707 170.919 7.05834 171.094 7.2336C171.269 7.39426 171.357 7.64255 171.357 7.97848V14.2223H171.072C171.379 13.3898 171.875 12.7618 172.562 12.3382C173.263 11.9147 174.059 11.7029 174.95 11.7029C175.811 11.7029 176.52 11.8635 177.075 12.1849C177.63 12.4916 178.046 12.9589 178.324 13.587C178.601 14.215 178.74 15.0037 178.74 15.9531V21.693C178.74 22.0289 178.652 22.2845 178.477 22.4598C178.316 22.6351 178.075 22.7227 177.754 22.7227C177.433 22.7227 177.184 22.6351 177.009 22.4598C176.834 22.2845 176.746 22.0289 176.746 21.693V16.0626C176.746 15.1132 176.564 14.4195 176.199 13.9813C175.833 13.5432 175.249 13.3241 174.446 13.3241C173.511 13.3241 172.759 13.6162 172.189 14.2004C171.634 14.77 171.357 15.5441 171.357 16.5227V21.693C171.357 22.3795 171.021 22.7227 170.349 22.7227Z" fill="white"/>
<path d="M182.974 22.657C182.594 22.657 182.28 22.5328 182.032 22.2845C181.784 22.0362 181.659 21.7222 181.659 21.3425C181.659 20.9627 181.784 20.656 182.032 20.4223C182.28 20.1886 182.594 20.0718 182.974 20.0718C183.383 20.0718 183.697 20.1886 183.916 20.4223C184.15 20.656 184.267 20.9627 184.267 21.3425C184.267 21.7222 184.15 22.0362 183.916 22.2845C183.697 22.5328 183.383 22.657 182.974 22.657Z" fill="white"/>
<path d="M190.543 22.7665C189.813 22.7665 189.148 22.6205 188.549 22.3283C187.965 22.0362 187.505 21.6419 187.169 21.1453C186.848 20.6487 186.687 20.0937 186.687 19.4803C186.687 18.6916 186.884 18.0709 187.279 17.6181C187.673 17.1653 188.338 16.844 189.272 16.6541C190.207 16.4496 191.463 16.3474 193.041 16.3474H194.07V17.6181H193.084C191.96 17.6181 191.069 17.6692 190.412 17.7714C189.769 17.8737 189.316 18.0562 189.053 18.3191C188.79 18.5674 188.659 18.918 188.659 19.3707C188.659 19.9404 188.856 20.4077 189.25 20.7729C189.659 21.138 190.214 21.3206 190.915 21.3206C191.471 21.3206 191.96 21.1891 192.383 20.9262C192.807 20.6487 193.143 20.2836 193.391 19.8308C193.639 19.3634 193.764 18.8303 193.764 18.2315V15.7121C193.764 14.8503 193.588 14.2296 193.238 13.8499C192.887 13.4555 192.296 13.2584 191.463 13.2584C190.981 13.2584 190.485 13.3241 189.973 13.4555C189.462 13.587 188.929 13.7915 188.374 14.069C188.155 14.1712 187.965 14.2077 187.805 14.1785C187.644 14.1347 187.512 14.047 187.41 13.9156C187.323 13.7695 187.271 13.6162 187.257 13.4555C187.257 13.2803 187.293 13.1123 187.366 12.9516C187.454 12.791 187.6 12.6741 187.805 12.6011C188.447 12.2798 189.083 12.0534 189.711 11.922C190.353 11.7759 190.952 11.7029 191.507 11.7029C192.456 11.7029 193.238 11.8562 193.851 12.1629C194.465 12.4551 194.925 12.9151 195.231 13.5432C195.538 14.1566 195.691 14.9453 195.691 15.9092V21.693C195.691 22.0289 195.611 22.2845 195.45 22.4598C195.29 22.6351 195.056 22.7227 194.749 22.7227C194.457 22.7227 194.224 22.6351 194.048 22.4598C193.888 22.2845 193.807 22.0289 193.807 21.693V20.1375H194.005C193.888 20.6779 193.669 21.1453 193.347 21.5396C193.026 21.934 192.624 22.2407 192.142 22.4598C191.675 22.6643 191.142 22.7665 190.543 22.7665Z" fill="white"/>
<path d="M199.924 22.6789C199.617 22.6789 199.376 22.5839 199.201 22.3941C199.026 22.2042 198.938 21.9413 198.938 21.6054V12.864C198.938 12.5135 199.026 12.2506 199.201 12.0753C199.376 11.8854 199.617 11.7905 199.924 11.7905C200.246 11.7905 200.494 11.8854 200.669 12.0753C200.844 12.2506 200.932 12.5135 200.932 12.864V21.6054C200.932 21.9413 200.844 22.2042 200.669 22.3941C200.508 22.5839 200.26 22.6789 199.924 22.6789ZM199.924 9.42442C199.53 9.42442 199.216 9.32218 198.982 9.11771C198.763 8.89862 198.654 8.61382 198.654 8.26329C198.654 7.88354 198.763 7.59874 198.982 7.40887C199.216 7.20439 199.53 7.10215 199.924 7.10215C200.348 7.10215 200.662 7.20439 200.866 7.40887C201.085 7.59874 201.195 7.88354 201.195 8.26329C201.195 8.61382 201.085 8.89862 200.866 9.11771C200.662 9.32218 200.348 9.42442 199.924 9.42442Z" fill="white"/>
</svg>
