<svg width="55" height="55" viewBox="0 0 55 55" fill="none" xmlns="http://www.w3.org/2000/svg">
<circle cx="27.5" cy="27.5" r="27.0896" fill="#E4E4E4" stroke="#93978F" stroke-width="0.820895"/>
<path d="M43.9531 25.3438H41.2597C40.775 25.3443 40.3104 25.5371 39.9676 25.8798C39.6249 26.2225 39.4321 26.6872 39.4316 27.1719V38.3353L35.2907 38.3497C35.6447 37.8975 35.8056 37.3237 35.7382 36.7534C35.6708 36.183 35.3806 35.6625 34.9309 35.3053L34.2912 34.8061C34.8119 34.8158 35.729 34.9196 35.701 34.1484C35.6966 34.0683 35.6764 33.9899 35.6414 33.9177C35.6065 33.8455 35.5575 33.781 35.4973 33.7279C35.4372 33.6749 35.367 33.6343 35.291 33.6086C35.2151 33.5829 35.1347 33.5726 35.0547 33.5783C33.4189 33.7819 31.247 33.0886 30.895 31.9411C30.8706 31.8582 30.8289 31.7813 30.7727 31.7156C30.7165 31.6499 30.647 31.5969 30.5688 31.5599C30.4907 31.5229 30.4056 31.5029 30.3191 31.5012C30.2327 31.4994 30.1468 31.5159 30.0672 31.5497L25.4963 33.5307C25.1271 33.6908 24.723 33.7533 24.3228 33.7122C23.9225 33.6712 23.5395 33.5279 23.2105 33.2963C23.1053 33.2247 23.0211 33.1262 22.9667 33.0111C22.9123 32.896 22.8897 32.7685 22.9013 32.6417C22.9128 32.5149 22.958 32.3936 23.0323 32.2902C23.1065 32.1868 23.2071 32.1051 23.3236 32.0537L26.708 30.5034C27.731 30.1153 29.7364 28.8771 30.8634 28.9765L37.6034 28.9765C37.7634 28.974 37.916 28.9087 38.0282 28.7947C38.1405 28.6807 38.2034 28.5271 38.2034 28.3671C38.2034 28.2071 38.1405 28.0535 38.0282 27.9395C37.916 27.8255 37.7634 27.7602 37.6034 27.7577H30.8635C29.528 27.6552 27.7021 28.7526 26.5048 29.256C25.495 28.4737 24.3433 27.7043 23.0088 27.7578L17.2811 27.7577C17.1215 27.7609 16.9695 27.8264 16.8578 27.9404C16.7461 28.0543 16.6835 28.2075 16.6835 28.3671C16.6835 28.5267 16.7461 28.6799 16.8578 28.7939C16.9696 28.9078 17.1215 28.9734 17.2811 28.9765H23.0088C23.8272 28.9942 24.6131 29.3004 25.2278 29.841L22.8136 30.9468C22.5066 31.0922 22.2428 31.3153 22.0485 31.5939C21.8541 31.8726 21.7359 32.1971 21.7056 32.5355C21.6752 32.8739 21.7338 33.2143 21.8754 33.5231C22.0171 33.8319 22.2369 34.0983 22.5132 34.296C23.0122 34.6481 23.5935 34.8655 24.201 34.9274C24.8085 34.9892 25.4217 34.8933 25.9813 34.6489L30.003 32.9059C30.4038 33.4409 30.9206 33.8782 31.5146 34.1849L34.1728 36.2592C34.2927 36.3556 34.3881 36.4789 34.4513 36.6191C34.5144 36.7593 34.5436 36.9124 34.5363 37.0661C34.5291 37.2197 34.4856 37.3694 34.4095 37.5031C34.3334 37.6367 34.2268 37.7504 34.0983 37.835C33.4571 38.1961 32.7804 37.7027 32.3423 37.278L29.9565 35.3666C29.8291 35.2693 29.6686 35.2258 29.5095 35.2452C29.3503 35.2647 29.2051 35.3457 29.1049 35.4708C29.0046 35.5959 28.9573 35.7553 28.973 35.9149C28.9887 36.0744 29.0662 36.2215 29.1889 36.3247L31.6032 38.251C31.7941 38.4173 31.9126 38.6515 31.9335 38.9039C31.9544 39.1562 31.8761 39.4067 31.7153 39.6022C31.5544 39.7978 31.3236 39.9228 31.072 39.9509C30.8203 39.9789 30.5677 39.9077 30.3677 39.7524C29.9409 39.4087 27.6691 37.5916 27.1912 37.2084C27.0647 37.1111 26.9051 37.0673 26.7467 37.0864C26.5883 37.1054 26.4437 37.1859 26.344 37.3104C26.2442 37.4349 26.1973 37.5936 26.2133 37.7523C26.2293 37.9111 26.3069 38.0572 26.4295 38.1594L28.9401 40.1702C29.1364 40.3331 29.2607 40.5667 29.2861 40.8205C29.3115 41.0744 29.2359 41.328 29.0758 41.5266C28.9156 41.7252 28.6837 41.8527 28.4302 41.8816C28.1768 41.9105 27.9221 41.8385 27.7213 41.6811L24.4323 39.0496C24.3059 38.9524 24.1463 38.9086 23.9879 38.9276C23.8295 38.9467 23.6849 39.0271 23.5852 39.1517C23.4855 39.2762 23.4386 39.4348 23.4545 39.5936C23.4705 39.7523 23.5481 39.8984 23.6706 40.0006C24.0425 40.3002 25.2788 41.2963 25.6731 41.6097C25.8594 41.7636 25.9804 41.9824 26.0118 42.222C26.0432 42.4616 25.9826 42.7042 25.8422 42.9009C25.7018 43.0975 25.4921 43.2337 25.2553 43.2819C25.0185 43.33 24.7723 43.2867 24.5662 43.1605C23.016 42.1667 20.6755 40.5755 18.1499 38.7991C17.4526 38.2273 16.2975 38.3388 15.4529 38.3367L15.453 27.1719C15.4524 26.6872 15.2597 26.2225 14.9169 25.8798C14.5742 25.5371 14.1095 25.3443 13.6248 25.3438H11.0469C10.9668 25.3437 10.8876 25.3595 10.8137 25.3901C10.7397 25.4207 10.6725 25.4656 10.6159 25.5222C10.5593 25.5788 10.5145 25.646 10.4838 25.7199C10.4532 25.7938 10.4375 25.8731 10.4375 25.9531V40.4552C10.4375 40.5353 10.4532 40.6145 10.4838 40.6885C10.5144 40.7624 10.5593 40.8296 10.6159 40.8862C10.6725 40.9428 10.7397 40.9877 10.8136 41.0183C10.8876 41.0489 10.9668 41.0647 11.0469 41.0646H13.6248C14.0536 41.0637 14.4685 40.912 14.7968 40.6362C15.1251 40.3603 15.3459 39.9777 15.4207 39.5555H16.6997C16.9663 39.5548 17.2264 39.6376 17.4435 39.7923C19.9881 41.5817 22.3441 43.1837 23.908 44.1865C24.2038 44.3781 24.5421 44.4942 24.8933 44.5247C25.2444 44.5552 25.5976 44.4992 25.9221 44.3614C26.2465 44.2237 26.5322 44.0086 26.7542 43.7348C26.9762 43.461 27.1276 43.137 27.1953 42.7911C27.5119 42.9856 27.873 43.096 28.2443 43.1116C28.6156 43.1273 28.9848 43.0477 29.3167 42.8805C29.6485 42.7133 29.9322 42.464 30.1406 42.1563C30.349 41.8486 30.4752 41.4928 30.5073 41.1225C31.0536 41.2463 31.6266 41.1547 32.107 40.8666C32.5874 40.5786 32.9382 40.1164 33.0864 39.5762L39.4637 39.5539C39.5381 39.9765 39.7588 40.3594 40.0872 40.6356C40.4156 40.9118 40.8307 41.0637 41.2597 41.0646H43.9531C44.0332 41.0647 44.1124 41.0489 44.1864 41.0183C44.2603 40.9877 44.3275 40.9428 44.3841 40.8862C44.4407 40.8296 44.4856 40.7624 44.5162 40.6885C44.5468 40.6145 44.5625 40.5353 44.5625 40.4552V25.9531C44.5625 25.8731 44.5468 25.7938 44.5162 25.7199C44.4855 25.646 44.4407 25.5788 44.3841 25.5222C44.3275 25.4656 44.2603 25.4207 44.1863 25.3901C44.1124 25.3595 44.0332 25.3437 43.9531 25.3438ZM14.2342 39.2365C14.2341 39.3981 14.1698 39.553 14.0556 39.6673C13.9413 39.7815 13.7864 39.8458 13.6248 39.8459H11.6563V26.5625H13.6248C13.7864 26.5627 13.9413 26.6269 14.0555 26.7412C14.1698 26.8554 14.234 27.0103 14.2342 27.1719V39.2365ZM43.3438 39.8459H41.2597C40.7389 39.8279 40.6056 39.3799 40.6504 38.9343L40.6504 27.1719C40.6505 27.0103 40.7148 26.8554 40.829 26.7412C40.9433 26.6269 41.0982 26.5627 41.2597 26.5625H43.3438V39.8459Z" fill="#93978F"/>
<path d="M15.6172 20.8301H17.0002C17.0459 20.8303 17.0911 20.8408 17.1322 20.8608C17.1734 20.8807 17.2096 20.9097 17.2381 20.9455C17.2666 20.9813 17.2867 21.023 17.2969 21.0676C17.3071 21.1122 17.3072 21.1586 17.2971 21.2032L17.0894 22.0929C17.0637 22.2117 17.0738 22.3354 17.1186 22.4484C17.1633 22.5614 17.2406 22.6586 17.3406 22.7276C17.4407 22.7966 17.559 22.8343 17.6805 22.8359C17.802 22.8375 17.9213 22.803 18.0231 22.7367L20.7743 20.8831C20.8238 20.8485 20.8828 20.83 20.9433 20.8301H23.2344C23.3939 20.827 23.5459 20.7614 23.6576 20.6475C23.7694 20.5335 23.832 20.3803 23.832 20.2207C23.832 20.0611 23.7694 19.9079 23.6576 19.7939C23.5459 19.68 23.3939 19.6144 23.2343 19.6113H20.9433C20.6393 19.611 20.3423 19.7025 20.0911 19.8738L18.5117 20.9381C18.4616 20.5721 18.2812 20.2364 18.0035 19.9927C17.7259 19.749 17.3696 19.6136 17.0002 19.6113H15.6172C15.5364 19.6112 15.459 19.5791 15.4019 19.522C15.3447 19.4649 15.3126 19.3874 15.3125 19.3066V11.9941C15.3126 11.9134 15.3447 11.8359 15.4019 11.7788C15.459 11.7217 15.5364 11.6896 15.6172 11.6895H28.4141C28.4759 11.6896 28.5363 11.7088 28.5869 11.7443C28.6376 11.7799 28.6761 11.8301 28.6973 11.8882C28.7519 12.0386 28.8634 12.1615 29.0078 12.2303C29.1521 12.2992 29.3178 12.3086 29.469 12.2564C29.6202 12.2042 29.7449 12.0947 29.816 11.9514C29.8872 11.8082 29.8992 11.6427 29.8494 11.4907C29.7459 11.1925 29.552 10.9341 29.2948 10.7512C29.0375 10.5684 28.7297 10.4704 28.4141 10.4707H15.6172C15.2133 10.4711 14.826 10.6318 14.5404 10.9174C14.2548 11.203 14.0942 11.5902 14.0938 11.9941V19.3066C14.0942 19.7106 14.2548 20.0978 14.5404 20.3834C14.826 20.669 15.2133 20.8297 15.6172 20.8301Z" fill="#93978F"/>
<path d="M25.0625 15.0381V22.3506C25.0626 22.7546 25.2232 23.142 25.5089 23.4277C25.7945 23.7133 26.1819 23.8739 26.5859 23.874H34.0569C34.1182 23.8735 34.178 23.8927 34.2275 23.9289L36.9758 25.7814C37.0772 25.848 37.196 25.8829 37.3173 25.8816C37.4386 25.8804 37.5568 25.8431 37.6568 25.7745C37.7568 25.7059 37.8341 25.609 37.8789 25.4963C37.9236 25.3836 37.9338 25.2601 37.9081 25.1415C37.8594 24.7942 37.5913 24.13 37.7619 23.9898C37.7902 23.9538 37.8262 23.9247 37.8674 23.9046C37.9086 23.8846 37.9537 23.8741 37.9995 23.874H39.3828C39.7868 23.8739 40.1742 23.7133 40.4599 23.4277C40.7456 23.142 40.9061 22.7546 40.9062 22.3506V15.0381C40.9051 14.6344 40.7442 14.2476 40.4587 13.9622C40.1733 13.6767 39.7865 13.5158 39.3828 13.5146H26.5859C26.1823 13.5158 25.7955 13.6767 25.51 13.9622C25.2246 14.2476 25.0637 14.6344 25.0625 15.0381ZM39.6875 15.0381V22.3506C39.6879 22.3907 39.6803 22.4305 39.6651 22.4677C39.6499 22.5048 39.6275 22.5385 39.5991 22.5669C39.5708 22.5953 39.537 22.6177 39.4999 22.6329C39.4627 22.6481 39.4229 22.6557 39.3828 22.6553H37.9995C37.6302 22.6587 37.2744 22.7947 36.9969 23.0385C36.7195 23.2824 36.539 23.6179 36.4883 23.9837C35.9277 23.6668 34.7394 22.5882 34.0569 22.6553H26.5859C26.5458 22.6557 26.506 22.6481 26.4689 22.6329C26.4317 22.6177 26.398 22.5953 26.3696 22.5669C26.3412 22.5385 26.3188 22.5048 26.3036 22.4677C26.2885 22.4305 26.2809 22.3907 26.2812 22.3506V15.0381C26.2815 14.9573 26.3137 14.88 26.3707 14.8229C26.4278 14.7658 26.5052 14.7336 26.5859 14.7334H39.3828C39.4636 14.7336 39.5409 14.7658 39.598 14.8229C39.6551 14.88 39.6873 14.9573 39.6875 15.0381Z" fill="#93978F"/>
<path d="M32.9844 19.3955C33.2244 19.3919 33.4534 19.294 33.6219 19.123C33.7904 18.9519 33.8848 18.7215 33.8848 18.4814C33.8848 18.2414 33.7904 18.0109 33.6219 17.8399C33.4534 17.6689 33.2244 17.571 32.9844 17.5674C32.7443 17.571 32.5154 17.6689 32.3469 17.8399C32.1784 18.0109 32.084 18.2414 32.084 18.4814C32.084 18.7215 32.1784 18.9519 32.3469 19.123C32.5154 19.294 32.7443 19.3919 32.9844 19.3955Z" fill="#93978F"/>
<path d="M29.3281 19.3955C29.5682 19.3919 29.7972 19.294 29.9656 19.123C30.1341 18.9519 30.2285 18.7215 30.2285 18.4814C30.2285 18.2414 30.1341 18.0109 29.9656 17.8399C29.7972 17.6689 29.5682 17.571 29.3281 17.5674C29.0881 17.571 28.8591 17.6689 28.6906 17.8399C28.5222 18.0109 28.4277 18.2414 28.4277 18.4814C28.4277 18.7215 28.5222 18.9519 28.6906 19.123C28.8591 19.294 29.0881 19.3919 29.3281 19.3955Z" fill="#93978F"/>
<path d="M36.6406 19.3955C36.8807 19.3919 37.1097 19.294 37.2781 19.123C37.4466 18.9519 37.541 18.7215 37.541 18.4814C37.541 18.2414 37.4466 18.0109 37.2781 17.8399C37.1097 17.6689 36.8807 17.571 36.6406 17.5674C36.4006 17.571 36.1716 17.6689 36.0031 17.8399C35.8347 18.0109 35.7402 18.2414 35.7402 18.4814C35.7402 18.7215 35.8347 18.9519 36.0031 19.123C36.1716 19.294 36.4006 19.3919 36.6406 19.3955Z" fill="#93978F"/>
</svg>
