<svg width="24" height="25" viewBox="0 0 24 25" fill="none" xmlns="http://www.w3.org/2000/svg">
<path d="M5.40995 22.2501C4.28995 22.2501 3.57995 21.8701 3.12995 21.4201C2.24995 20.5401 1.62995 18.6701 3.60995 14.7001L4.47995 12.9701C4.58995 12.7401 4.58995 12.2601 4.47995 12.0301L3.60995 10.3001C1.61995 6.33014 2.24995 4.45014 3.12995 3.58014C3.99995 2.70014 5.87995 2.07014 9.83995 4.06014L18.3999 8.34014C20.5299 9.40014 21.6999 10.8801 21.6999 12.5001C21.6999 14.1201 20.5299 15.6001 18.4099 16.6601L9.84995 20.9401C7.90995 21.9101 6.46995 22.2501 5.40995 22.2501ZM5.40995 4.25014C4.86995 4.25014 4.44995 4.38014 4.18995 4.64014C3.45995 5.36014 3.74995 7.23014 4.94995 9.62014L5.81995 11.3601C6.13995 12.0101 6.13995 12.9901 5.81995 13.6401L4.94995 15.3701C3.74995 17.7701 3.45995 19.6301 4.18995 20.3501C4.90995 21.0801 6.77995 20.7901 9.17995 19.5901L17.7399 15.3101C19.3099 14.5301 20.1999 13.5001 20.1999 12.4901C20.1999 11.4801 19.2999 10.4501 17.7299 9.67014L9.16995 5.40014C7.64995 4.64014 6.33995 4.25014 5.40995 4.25014Z" fill="white"/>
<path d="M10.8399 13.25H5.43994C5.02994 13.25 4.68994 12.91 4.68994 12.5C4.68994 12.09 5.02994 11.75 5.43994 11.75H10.8399C11.2499 11.75 11.5899 12.09 11.5899 12.5C11.5899 12.91 11.2499 13.25 10.8399 13.25Z" fill="white"/>
</svg>
