<svg width="17" height="16" viewBox="0 0 17 16" fill="none" xmlns="http://www.w3.org/2000/svg">
<path d="M3.58793 11.0867C3.46127 11.0867 3.3346 11.04 3.2346 10.94C3.04127 10.7467 3.04127 10.4267 3.2346 10.2334L11.2013 2.2667C11.3946 2.07337 11.7146 2.07337 11.9079 2.2667C12.1013 2.46004 12.1013 2.78004 11.9079 2.97337L3.94127 10.9467C3.84793 11.04 3.7146 11.0867 3.58793 11.0867Z" fill="#DCDCDC"/>
<path d="M8.36784 12.6866C8.24117 12.6866 8.11451 12.64 8.01451 12.54C7.82117 12.3466 7.82117 12.0266 8.01451 11.8333L8.81451 11.0333C9.00784 10.84 9.32784 10.84 9.52117 11.0333C9.71451 11.2266 9.71451 11.5466 9.52117 11.74L8.72117 12.54C8.62784 12.6333 8.50117 12.6866 8.36784 12.6866Z" fill="#DCDCDC"/>
<path d="M10.1612 10.8933C10.0345 10.8933 9.90784 10.8466 9.80784 10.7466C9.61451 10.5533 9.61451 10.2333 9.80784 10.04L11.4012 8.44664C11.5945 8.2533 11.9145 8.2533 12.1078 8.44664C12.3012 8.63997 12.3012 8.95997 12.1078 9.1533L10.5145 10.7466C10.4212 10.84 10.2878 10.8933 10.1612 10.8933Z" fill="#DCDCDC"/>
<path d="M8.36792 15.1667C7.71459 15.1667 7.06125 14.7667 6.26792 13.9734L2.99459 10.7C1.40125 9.10669 1.40792 8.08002 3.01459 6.47336L7.44125 2.04669C9.04792 0.440024 10.0746 0.433357 11.6679 2.02669L14.9413 5.30002C16.5346 6.89336 16.5279 7.92002 14.9213 9.52669L10.4946 13.9534C9.68792 14.76 9.02792 15.1667 8.36792 15.1667ZM9.56792 1.83336C9.22125 1.83336 8.78125 2.12002 8.14792 2.75336L3.72125 7.18002C3.08792 7.81336 2.80125 8.25336 2.80125 8.59336C2.80125 8.94002 3.06792 9.36002 3.70125 9.99336L6.97459 13.2667C7.60792 13.9 8.02125 14.1667 8.36792 14.1667C8.36792 14.1667 8.36792 14.1667 8.37459 14.1667C8.72125 14.1667 9.15459 13.88 9.78792 13.2467L14.2146 8.82002C14.8479 8.18669 15.1346 7.74669 15.1346 7.40669C15.1346 7.06002 14.8679 6.64002 14.2346 6.00669L10.9613 2.73336C10.3346 2.10002 9.91459 1.83336 9.56792 1.83336Z" fill="#DCDCDC"/>
<path d="M15.6346 15.1666H2.30127C2.02794 15.1666 1.80127 14.94 1.80127 14.6666C1.80127 14.3933 2.02794 14.1666 2.30127 14.1666H15.6346C15.9079 14.1666 16.1346 14.3933 16.1346 14.6666C16.1346 14.94 15.9079 15.1666 15.6346 15.1666Z" fill="#DCDCDC"/>
</svg>
