<svg width="130" height="32" viewBox="0 0 130 32" fill="none" xmlns="http://www.w3.org/2000/svg">
<rect width="130" height="32" rx="16" fill="#FBF1D7" fill-opacity="0.38"/>
<path d="M32.7502 10.6339C32.4519 10.6339 32.2087 10.8764 32.2087 11.1739C32.2087 11.3194 32.267 11.452 32.3643 11.549C31.8973 11.7171 31.0736 11.9758 30.2272 12.0793C30.1559 11.9694 30.1105 11.8206 30.1202 11.6266C30.1397 11.1997 30.1397 10.7729 30.1332 10.4625C30.1591 10.4657 30.1851 10.4689 30.2142 10.4689C30.5937 10.4689 30.9017 10.1617 30.9017 9.78341C30.9017 9.40507 30.5937 9.09787 30.2142 9.09787C29.8348 9.09787 29.5267 9.40507 29.5267 9.78341C29.5267 9.96772 29.6013 10.1359 29.7213 10.2588L28.1031 11.3388L26.3065 8.6581C26.6048 8.53198 26.8156 8.24096 26.8156 7.89819C26.8156 7.44224 26.4459 7.07361 25.9887 7.07361C25.5314 7.07361 25.1617 7.44224 25.1617 7.89819C25.1617 8.24096 25.3725 8.53522 25.6709 8.6581L23.8775 11.3356L22.2658 10.2588C22.3857 10.1359 22.4603 9.96772 22.4603 9.78341C22.4603 9.40507 22.1522 9.09787 21.7728 9.09787C21.3934 9.09787 21.0853 9.40507 21.0853 9.78341C21.0853 10.1617 21.3934 10.4689 21.7728 10.4689C21.7988 10.4689 21.8247 10.4657 21.8539 10.4625C21.8474 10.7729 21.8474 11.1997 21.8669 11.6266C21.8766 11.8206 21.8312 11.9661 21.7599 12.0793C20.9134 11.9758 20.0897 11.7171 19.6195 11.5522C19.7168 11.4552 19.7752 11.3194 19.7752 11.1739C19.7752 10.8764 19.5319 10.6339 19.2336 10.6339C18.9352 10.6339 18.692 10.8764 18.692 11.1739C18.692 11.4714 18.9352 11.7139 19.2336 11.7139C19.253 11.7139 19.2725 11.7107 19.292 11.7074L19.9957 15.6298V15.9629C19.9957 15.9629 20.5956 15.9241 25.7876 15.9241C25.8589 15.9241 26.1281 15.9241 26.1962 15.9241C31.3882 15.9241 31.9881 15.9629 31.9881 15.9629V15.6298L32.6919 11.7042C32.7146 11.7074 32.734 11.7107 32.7567 11.7107C33.0551 11.7107 33.2983 11.4681 33.2983 11.1706C33.2918 10.8731 33.0486 10.6339 32.7502 10.6339Z" fill="url(#paint0_linear_3658_18025)"/>
<path d="M26.3292 8.66113C26.3195 8.66437 26.313 8.6773 26.3032 8.68053L28.3431 11.7234L29.8413 10.3814C29.7213 10.2586 29.7667 10.3523 29.7667 10.168C29.7667 9.78968 30.0748 9.48248 30.4542 9.48248C30.6294 9.48248 30.7883 9.54715 30.9115 9.6571C30.8499 9.3402 30.571 9.10414 30.237 9.10414C29.8575 9.10414 29.5494 9.41134 29.5494 9.78968C29.5494 9.97399 29.624 10.1421 29.744 10.265L28.1225 11.3418L26.3292 8.66113Z" fill="white"/>
<path d="M25.4018 8.27976C25.4018 7.82381 25.7715 7.45518 26.2287 7.45518C26.4557 7.45518 26.66 7.54572 26.8092 7.69447C26.7184 7.33877 26.3941 7.07361 26.0082 7.07361C25.551 7.07361 25.1813 7.44224 25.1813 7.89819C25.1813 8.12778 25.2753 8.33473 25.4277 8.48348C25.4115 8.41881 25.4018 8.3509 25.4018 8.27976Z" fill="white"/>
<path d="M30.3634 12.0637C30.3634 12.2286 30.4056 12.3579 30.4705 12.4582C31.3169 12.3547 32.1438 12.096 32.6076 11.9279C32.5135 11.8308 32.4519 11.6983 32.4519 11.5528C32.4519 11.2553 32.6951 11.0127 32.9935 11.0127C33.1135 11.0127 33.2237 11.0515 33.3145 11.1194C33.2886 10.8478 33.0551 10.6344 32.7762 10.6344C32.4778 10.6344 32.2346 10.8769 32.2346 11.1744C32.2346 11.3199 32.293 11.4525 32.3903 11.5495C31.9428 11.708 31.1709 11.9537 30.3634 12.0637Z" fill="white"/>
<path d="M22.1004 12.0077C22.081 11.5809 22.081 11.154 22.0874 10.8436C22.0615 10.8468 21.9123 10.4717 21.8637 10.462C21.8637 10.7046 21.8669 11.3513 21.8799 11.6261C21.8896 11.8202 21.8442 11.9657 21.7729 12.0789C21.1146 11.998 20.4692 11.8234 19.9957 11.6714C19.973 11.7717 19.9244 11.859 19.8531 11.9301C20.32 12.0983 21.147 12.357 21.9934 12.4572C22.068 12.3505 22.1102 12.2017 22.1004 12.0077Z" fill="white"/>
<path d="M22.5026 10.6409L24.1143 11.7177L25.7326 9.25368C25.8428 8.99499 25.7715 8.76217 25.6872 8.65869L23.8938 11.3362L22.2853 10.2593C22.2529 10.3176 22.2821 10.4016 22.5026 10.6409Z" fill="white"/>
<path d="M20.2486 15.9562L19.5417 12.0888C19.5222 12.092 19.4963 12.0953 19.4768 12.0953C19.4444 12.0953 19.4379 12.092 19.4087 12.0856L20.0703 15.6329V15.966C20.0703 15.9627 20.0833 15.9627 20.2486 15.9562Z" fill="white"/>
<path d="M18.9288 11.5553C18.9288 11.2578 19.172 11.0153 19.4704 11.0153C19.5904 11.0153 19.7006 11.0541 19.7914 11.122C19.7655 10.8504 19.532 10.637 19.2531 10.637C18.9548 10.637 18.7115 10.8795 18.7115 11.177C18.7115 11.3548 18.7991 11.5133 18.9321 11.6135C18.9288 11.5909 18.9288 11.5715 18.9288 11.5553Z" fill="white"/>
<path d="M21.3351 10.2942C21.3254 10.2522 21.3222 10.2069 21.3222 10.1616C21.3222 9.78331 21.6302 9.47612 22.0097 9.47612C22.1848 9.47612 22.3437 9.54079 22.4669 9.65073C22.4053 9.33383 22.1264 9.09778 21.7924 9.09778C21.413 9.09778 21.1049 9.40498 21.1049 9.78331C21.1016 9.98703 21.1924 10.1713 21.3351 10.2942Z" fill="white"/>
<path d="M24.231 15.3037C24.1045 14.9221 17.0316 12.0959 17.0316 12.0959C16.636 11.6626 16.7657 12.4936 16.8987 13.7451C17.0316 14.9965 17.0835 15.5721 17.3786 15.8081C17.6737 16.0442 23.3911 17.0304 23.8094 17.1663C24.2278 17.3053 24.3575 15.6852 24.231 15.3037Z" fill="url(#paint1_linear_3658_18025)"/>
<path opacity="0.49" d="M24.1631 15.6916C24.0366 15.31 16.9637 12.4838 16.9637 12.4838C16.8729 12.3836 16.8113 12.3512 16.7691 12.3739C16.7562 11.9988 16.8178 11.8597 17.0318 12.0925C17.0318 12.0925 24.1079 14.9187 24.2312 15.3003C24.3058 15.5299 24.2895 16.1993 24.176 16.6746C24.2247 16.2801 24.2182 15.863 24.1631 15.6916Z" fill="white"/>
<path d="M24.2472 17.3056C24.0688 16.9176 16.2792 14.7251 16.2792 14.7251C15.7993 14.35 16.0295 15.2296 16.3117 16.5716C16.5938 17.9103 16.7138 18.5344 17.0608 18.7155C17.4078 18.8998 23.5078 19.4139 23.9813 19.4592C24.4612 19.5077 24.4288 17.6936 24.2472 17.3056Z" fill="url(#paint2_linear_3658_18025)"/>
<path opacity="0.49" d="M24.2147 17.749C24.0364 17.361 16.2468 15.1686 16.2468 15.1686C16.1365 15.0845 16.0652 15.0618 16.0198 15.0974C15.9647 14.6867 16.0166 14.5186 16.2792 14.7223C16.2792 14.7223 24.0688 16.9147 24.2472 17.3028C24.3542 17.5356 24.4093 18.2761 24.3347 18.8258C24.3445 18.3796 24.2958 17.9236 24.2147 17.749Z" fill="white"/>
<path d="M25.3108 19.8507C25.0708 19.4594 16.4834 18.0269 16.4834 18.0269C15.9062 17.7229 16.2564 18.6542 16.7105 20.0867C17.1645 21.5192 17.3623 22.1886 17.7709 22.3115C18.1795 22.4344 24.7011 22.3923 25.2362 22.3277C25.7745 22.2662 25.5508 20.242 25.3108 19.8507Z" fill="url(#paint3_linear_3658_18025)"/>
<path opacity="0.49" d="M25.3173 20.3549C25.0773 19.9636 16.49 18.5311 16.49 18.5311C16.357 18.4599 16.2759 18.4567 16.2305 18.5085C16.1267 18.0622 16.1689 17.8617 16.4835 18.0266C16.4835 18.0266 25.0708 19.4591 25.3108 19.8504C25.4535 20.0865 25.5929 20.9046 25.5637 21.5384C25.5313 21.0307 25.4275 20.5295 25.3173 20.3549Z" fill="white"/>
<path d="M27.769 15.3037C27.8955 14.9221 34.9684 12.0959 34.9684 12.0959C35.364 11.6626 35.2343 12.4936 35.1014 13.7451C34.9684 14.9965 34.9165 15.5721 34.6214 15.8081C34.3263 16.0442 28.6089 17.0304 28.1906 17.1663C27.7723 17.3053 27.6425 15.6852 27.769 15.3037Z" fill="url(#paint4_linear_3658_18025)"/>
<path opacity="0.49" d="M27.8369 15.6916C27.9634 15.31 35.0363 12.4838 35.0363 12.4838C35.1271 12.3836 35.1887 12.3512 35.2308 12.3739C35.2438 11.9988 35.1822 11.8597 34.9682 12.0925C34.9682 12.0925 27.892 14.9187 27.7688 15.3003C27.6942 15.5299 27.7104 16.1993 27.8239 16.6746C27.7753 16.2801 27.7785 15.863 27.8369 15.6916Z" fill="white"/>
<path d="M27.7496 17.3056C27.928 16.9176 35.7176 14.7251 35.7176 14.7251C36.1975 14.35 35.9673 15.2296 35.6851 16.5716C35.403 17.9103 35.283 18.5344 34.936 18.7155C34.589 18.8998 28.489 19.4139 28.0155 19.4592C27.5388 19.5077 27.5712 17.6936 27.7496 17.3056Z" fill="url(#paint5_linear_3658_18025)"/>
<path opacity="0.49" d="M27.7853 17.749C27.9637 17.361 35.7532 15.1686 35.7532 15.1686C35.8635 15.0845 35.9348 15.0618 35.9803 15.0974C36.0354 14.6867 35.9835 14.5186 35.7208 14.7223C35.7208 14.7223 27.9312 16.9147 27.7529 17.3028C27.6458 17.5356 27.5907 18.2761 27.6653 18.8258C27.6523 18.3796 27.7042 17.9236 27.7853 17.749Z" fill="white"/>
<path d="M26.6892 19.8507C26.9292 19.4594 35.5165 18.0269 35.5165 18.0269C36.0938 17.7229 35.7435 18.6542 35.2895 20.0867C34.8355 21.5192 34.6377 22.1886 34.2291 22.3115C33.8204 22.4344 27.2989 22.3923 26.7638 22.3277C26.2254 22.2662 26.446 20.242 26.6892 19.8507Z" fill="url(#paint6_linear_3658_18025)"/>
<path opacity="0.49" d="M26.6794 20.3549C26.9194 19.9636 35.5067 18.5311 35.5067 18.5311C35.6397 18.4599 35.7208 18.4567 35.7662 18.5085C35.8699 18.0622 35.8278 17.8617 35.5132 18.0266C35.5132 18.0266 26.9258 19.4591 26.6859 19.8504C26.5432 20.0865 26.4037 20.9046 26.4329 21.5384C26.4686 21.0307 26.5724 20.5295 26.6794 20.3549Z" fill="white"/>
<path d="M33.3209 16.4767C33.7977 15.332 30.9244 15.0506 29.131 15.0474C28.7159 14.2778 27.5031 12.1306 26.6956 11.5356C25.7973 10.876 24.1953 13.4597 23.258 15.0506C21.5328 15.0118 18.1666 15.2446 18.6822 16.4767C19.1071 17.4953 20.5729 19.0377 21.4582 19.9108C20.9166 21.4403 20.0021 25.0555 21.3998 24.923C22.6938 24.8001 25.1033 23.5163 25.9983 23.0183C26.8934 23.5163 29.3029 24.8001 30.5969 24.923C31.9946 25.0555 31.0801 21.4436 30.5385 19.9108C31.4303 19.0345 32.8961 17.4953 33.3209 16.4767Z" fill="#EEC700"/>
<path d="M33.3209 16.4767C33.7977 15.332 30.9244 15.0506 29.131 15.0474C28.7159 14.2778 27.5031 12.1306 26.6956 11.5356C25.7973 10.876 24.1953 13.4597 23.258 15.0506C21.5328 15.0118 18.1666 15.2446 18.6822 16.4767C19.1071 17.4953 20.5729 19.0377 21.4582 19.9108C20.9166 21.4403 20.0021 25.0555 21.3998 24.923C22.6938 24.8001 25.1033 23.5163 25.9983 23.0183C26.8934 23.5163 29.3029 24.8001 30.5969 24.923C31.9946 25.0555 31.0801 21.4436 30.5385 19.9108C31.4303 19.0345 32.8961 17.4953 33.3209 16.4767Z" fill="url(#paint7_linear_3658_18025)"/>
<path opacity="0.35" d="M32.1405 16.7481C32.5394 15.7877 30.1299 15.5516 28.6251 15.5484C28.2749 14.9049 27.2599 13.1005 26.5821 12.6025C25.8265 12.0496 24.4871 14.2161 23.6991 15.5516C22.2527 15.5193 19.4281 15.7133 19.8594 16.7481C20.2161 17.605 21.4485 18.8952 22.1911 19.6292C21.7371 20.913 20.9685 23.9462 22.1425 23.833C23.2289 23.7295 25.2492 22.6527 26.0016 22.2356C26.754 22.6527 28.7743 23.7295 29.8607 23.833C31.0347 23.9429 30.2661 20.913 29.8121 19.6292C30.5547 18.8984 31.787 17.605 32.1405 16.7481Z" fill="#FFF6CC"/>
<g opacity="0.43">
<path d="M30.5451 19.1343C30.6067 19.3057 30.6715 19.5029 30.7364 19.7163C31.6282 18.8238 32.9254 17.4237 33.321 16.473C33.4183 16.2434 33.3762 16.0461 33.2367 15.8812C32.7276 16.8966 31.3785 18.3129 30.5451 19.1343Z" fill="#DB5800"/>
<path d="M21.4615 19.1344C20.628 18.3131 19.2757 16.8967 18.7666 15.8813C18.6271 16.0463 18.5882 16.2435 18.6822 16.4731C19.0779 17.4238 20.3751 18.824 21.2669 19.7165C21.335 19.503 21.3998 19.3058 21.4615 19.1344Z" fill="#DB5800"/>
<path d="M30.6001 24.146C29.3062 24.0231 26.8967 22.7393 26.0016 22.2413C25.1065 22.7425 22.697 24.0231 21.4031 24.146C20.9491 24.188 20.7383 23.8355 20.6799 23.2858C20.6053 24.2462 20.7577 24.9802 21.4031 24.9188C22.697 24.7959 25.1065 23.5122 26.0016 23.0142C26.8967 23.5122 29.3062 24.7959 30.6001 24.9188C31.2455 24.9802 31.3979 24.243 31.3233 23.2858C31.2649 23.8323 31.0574 24.188 30.6001 24.146Z" fill="#DB5800"/>
</g>
<path d="M22.9986 23.3801C23.0732 23.351 25.019 22.5297 25.5411 22.1772C26.0632 21.8247 26.0859 21.8926 27.5971 22.7786C29.1084 23.6647 29.8834 23.794 30.1591 23.5644C30.4315 23.3381 30.2499 23.9363 29.5299 23.7746C28.81 23.6129 26.3908 22.5361 26.1962 22.3841C26.0048 22.2322 23.5953 23.7326 22.4376 23.7843C21.2799 23.8393 22.1328 23.7293 22.9986 23.3801Z" fill="white"/>
<path opacity="0.49" d="M28.6284 15.548C28.2781 14.9045 27.2631 13.1001 26.5853 12.6022C25.8297 12.0492 24.4904 14.2157 23.7023 15.5512C22.256 15.5189 19.4313 15.7129 19.8627 16.7477C20.2194 17.6046 21.4517 18.8948 22.1943 19.6289C22.0808 19.9522 21.9446 20.3855 21.8279 20.8544C23.2126 21.0517 25.1162 20.5343 26.5042 20.0234C28.8456 19.16 29.6304 18.9757 32.0756 16.8964C32.1016 16.8479 32.1243 16.7962 32.1437 16.7509C32.5426 15.7873 30.1331 15.5512 28.6284 15.548Z" fill="white"/>
<path opacity="0.49" d="M28.6284 15.548C28.2781 14.9045 27.2631 13.1001 26.5853 12.6022C25.8297 12.0492 24.4904 14.2157 23.7023 15.5512C22.256 15.5189 19.4313 15.7129 19.8627 16.7477C19.8659 16.7542 19.8691 16.7606 19.8724 16.7703C20.2453 16.0913 22.47 15.9555 23.7023 15.9813C24.4871 14.6491 25.8297 12.4793 26.5853 13.0322C27.2631 13.5302 28.2781 15.3314 28.6284 15.9781C29.8899 15.9813 31.7903 16.1462 32.134 16.7703C32.1373 16.7639 32.1405 16.7574 32.1437 16.7477C32.5426 15.7873 30.1331 15.5512 28.6284 15.548Z" fill="white"/>
<path d="M26.3162 12.515C25.9595 12.5053 25.0644 13.3428 24.4223 14.3808C23.7802 15.4188 25.7617 13.2749 26.3162 13.3169C26.8708 13.3557 27.007 12.5344 26.3162 12.515Z" fill="white"/>
<path d="M26.7734 11.6581C26.7734 11.6581 26.6988 12.5765 26.5043 12.473C26.2675 12.3501 26.0697 12.515 26.0697 12.515L25.8849 11.6581C25.8849 11.6581 26.381 11.1925 26.7734 11.6581Z" fill="white"/>
<path d="M18.9709 15.7809C18.9709 15.7809 19.4152 15.8779 19.6778 16.059C19.9405 16.2401 19.9405 16.2401 19.9405 16.2401C19.9405 16.2401 19.7816 16.3856 19.7881 16.5764C19.7946 16.7671 19.8205 16.7833 19.8205 16.7833C19.8205 16.7833 18.7374 16.6895 18.6466 16.3403C18.5493 15.9943 18.8476 15.8229 18.9709 15.7809Z" fill="white"/>
<path opacity="0.43" d="M32.9642 15.7101C32.9642 15.7101 32.6756 15.8232 32.4583 15.9687C32.241 16.1143 32.1859 16.2371 32.1859 16.2371C32.1859 16.2371 32.2345 16.3988 32.2345 16.4603C32.2345 16.5217 32.2345 16.6478 32.2345 16.6478C32.2345 16.6478 32.9318 16.5702 33.1458 16.4603C33.3599 16.3503 33.3469 16.0366 33.2918 15.959C33.2366 15.8847 33.0291 15.6842 32.9642 15.7101Z" fill="#DB5800"/>
<path opacity="0.43" d="M21.8669 23.8171C21.8669 23.8171 21.5685 24.7937 21.4809 24.8551C21.3934 24.9166 21.0334 24.9683 20.9005 24.729C20.7675 24.4897 20.6994 24.3248 20.7643 24.1857C20.8291 24.0467 21.6172 23.5811 21.6172 23.5811C21.6172 23.5811 21.7242 23.8171 21.8669 23.8171Z" fill="#DB5800"/>
<path opacity="0.43" d="M30.0813 23.8171C30.0813 23.8171 30.3797 24.7937 30.4672 24.8551C30.5515 24.9166 30.9148 24.9683 31.0477 24.729C31.1807 24.4897 31.252 24.3248 31.1839 24.1857C31.1191 24.0467 30.331 23.5811 30.331 23.5811C30.331 23.5811 30.2208 23.8171 30.0813 23.8171Z" fill="#DB5800"/>
<path opacity="0.43" d="M26.0016 22.3395V23.0121C26.0016 23.0121 23.9845 24.1536 22.1619 24.7615C21.7566 24.8973 21.5879 24.8941 21.5879 24.8941L22.016 24.0274C22.016 24.0274 25.5995 22.6822 26.0016 22.3395Z" fill="#DB5800"/>
<path opacity="0.7" d="M23.7024 15.5513L23.2614 15.0469C23.2614 15.0469 24.3996 12.9159 25.2428 12.1592C26.0827 11.4058 26.5205 11.2344 26.5141 11.852C26.5076 12.4697 26.3195 12.5117 26.3195 12.5117C26.3195 12.5117 25.379 12.5958 23.7024 15.5513Z" fill="white"/>
<path d="M19.5319 14.4296C18.7082 14.4296 18.0401 15.0504 18.0401 15.8136C18.0401 16.5767 18.7082 17.1976 19.5319 17.1976C20.3556 17.1976 21.0237 16.5767 21.0237 15.8136C21.0237 15.0504 20.3556 14.4296 19.5319 14.4296Z" fill="white"/>
<path opacity="0.7" d="M18.1699 17.6378C18.5688 17.1883 19.746 15.814 19.746 15.814C19.746 15.814 20.7286 13.9741 20.7513 13.9224C20.7578 13.9062 19.4963 15.6524 19.4963 15.6524L18.1699 17.6378Z" fill="white"/>
<path d="M19.8562 15.4871C19.493 15.2026 19.5579 14.4103 19.5579 14.184C19.5579 14.2486 19.5579 14.323 19.5579 14.4006C19.5579 14.365 19.5546 14.3295 19.5546 14.3198C19.5546 14.2713 19.5546 14.226 19.5546 14.184C19.5546 14.2486 19.5482 14.3521 19.5352 14.4685C19.5352 14.4685 19.4282 15.2672 19.2368 15.4321C18.8055 15.8105 17.7191 15.7361 18.1342 15.7458C19.5417 15.7749 19.5417 17.146 19.5546 17.5955C19.5546 17.5373 19.5546 17.4596 19.5546 17.3691C19.5546 17.3853 19.5579 17.3982 19.5579 17.4079C19.5579 17.4823 19.5579 17.547 19.5579 17.5955C19.5871 16.5316 19.5838 15.859 20.8129 15.7684C21.2183 15.7393 20.2811 15.817 19.8562 15.4871Z" fill="white"/>
<path d="M47.424 21.126C46.9853 21.126 46.5607 21.0887 46.15 21.014C45.7393 20.9487 45.352 20.846 44.988 20.706C44.624 20.566 44.2973 20.3933 44.008 20.188C43.8867 20.104 43.798 20.0013 43.742 19.88C43.6953 19.7587 43.6813 19.642 43.7 19.53C43.728 19.4087 43.7793 19.306 43.854 19.222C43.938 19.138 44.036 19.0867 44.148 19.068C44.26 19.0493 44.3813 19.0867 44.512 19.18C44.9413 19.4693 45.3893 19.6793 45.856 19.81C46.332 19.9407 46.8547 20.006 47.424 20.006C48.2453 20.006 48.8473 19.8567 49.23 19.558C49.622 19.2593 49.818 18.8673 49.818 18.382C49.818 17.9807 49.678 17.668 49.398 17.444C49.118 17.2107 48.6467 17.0287 47.984 16.898L46.5 16.59C45.6227 16.4033 44.9647 16.0953 44.526 15.666C44.0967 15.2367 43.882 14.6627 43.882 13.944C43.882 13.5053 43.9707 13.1087 44.148 12.754C44.3253 12.39 44.5773 12.0773 44.904 11.816C45.2307 11.5547 45.6133 11.354 46.052 11.214C46.5 11.074 46.9947 11.004 47.536 11.004C48.1147 11.004 48.656 11.0833 49.16 11.242C49.6733 11.4007 50.1353 11.634 50.546 11.942C50.658 12.026 50.7327 12.1287 50.77 12.25C50.8073 12.362 50.812 12.474 50.784 12.586C50.7653 12.698 50.714 12.7913 50.63 12.866C50.5553 12.9407 50.4573 12.9827 50.336 12.992C50.224 13.0013 50.098 12.9593 49.958 12.866C49.5847 12.6047 49.202 12.418 48.81 12.306C48.418 12.1847 47.9887 12.124 47.522 12.124C47.046 12.124 46.6307 12.1987 46.276 12.348C45.9307 12.4973 45.66 12.7073 45.464 12.978C45.2773 13.2393 45.184 13.5473 45.184 13.902C45.184 14.3313 45.3147 14.6673 45.576 14.91C45.8373 15.1527 46.276 15.3393 46.892 15.47L48.362 15.764C49.2953 15.96 49.986 16.2633 50.434 16.674C50.8913 17.0753 51.12 17.6167 51.12 18.298C51.12 18.7273 51.0313 19.1147 50.854 19.46C50.686 19.8053 50.4433 20.104 50.126 20.356C49.8087 20.5987 49.4213 20.79 48.964 20.93C48.5067 21.0607 47.9933 21.126 47.424 21.126ZM55.1123 21.126C54.5616 21.126 54.0996 21.0233 53.7263 20.818C53.3623 20.6127 53.0916 20.3093 52.9143 19.908C52.737 19.5067 52.6483 19.0027 52.6483 18.396V14.728C52.6483 14.5133 52.6996 14.3547 52.8023 14.252C52.9143 14.14 53.073 14.084 53.2783 14.084C53.4836 14.084 53.6423 14.14 53.7543 14.252C53.8663 14.3547 53.9223 14.5133 53.9223 14.728V18.396C53.9223 18.9747 54.039 19.404 54.2723 19.684C54.5056 19.9547 54.8743 20.09 55.3783 20.09C55.9383 20.09 56.391 19.9033 56.7363 19.53C57.091 19.1567 57.2683 18.662 57.2683 18.046V14.728C57.2683 14.5133 57.3196 14.3547 57.4223 14.252C57.5343 14.14 57.693 14.084 57.8983 14.084C58.1036 14.084 58.2623 14.14 58.3743 14.252C58.4863 14.3547 58.5423 14.5133 58.5423 14.728V20.44C58.5423 20.8787 58.337 21.098 57.9263 21.098C57.721 21.098 57.5623 21.042 57.4503 20.93C57.3476 20.818 57.2963 20.6547 57.2963 20.44V19.222L57.4783 19.46C57.2916 20.0013 56.9883 20.4167 56.5683 20.706C56.1576 20.986 55.6723 21.126 55.1123 21.126ZM64.1623 21.126C63.5463 21.126 63.019 20.972 62.5803 20.664C62.1416 20.356 61.8476 19.9407 61.6983 19.418L61.8523 19.208V20.44C61.8523 20.6547 61.7963 20.818 61.6843 20.93C61.5816 21.042 61.4276 21.098 61.2223 21.098C61.0263 21.098 60.8723 21.042 60.7603 20.93C60.6483 20.818 60.5923 20.6547 60.5923 20.44V11.676C60.5923 11.4613 60.6483 11.3027 60.7603 11.2C60.8723 11.088 61.0263 11.032 61.2223 11.032C61.4276 11.032 61.5863 11.088 61.6983 11.2C61.8103 11.3027 61.8663 11.4613 61.8663 11.676V15.722H61.7123C61.8616 15.218 62.1556 14.8167 62.5943 14.518C63.033 14.21 63.5556 14.056 64.1623 14.056C64.769 14.056 65.2963 14.2007 65.7443 14.49C66.2016 14.77 66.5516 15.176 66.7943 15.708C67.0463 16.2307 67.1723 16.856 67.1723 17.584C67.1723 18.3027 67.0463 18.9327 66.7943 19.474C66.5423 20.006 66.1923 20.4167 65.7443 20.706C65.2963 20.986 64.769 21.126 64.1623 21.126ZM63.8683 20.118C64.2696 20.118 64.6196 20.02 64.9183 19.824C65.2263 19.628 65.4643 19.3433 65.6323 18.97C65.8003 18.5967 65.8843 18.1347 65.8843 17.584C65.8843 16.7627 65.7023 16.1373 65.3383 15.708C64.9743 15.2787 64.4843 15.064 63.8683 15.064C63.4576 15.064 63.0983 15.162 62.7903 15.358C62.4916 15.5447 62.2583 15.8247 62.0903 16.198C61.9316 16.5713 61.8523 17.0333 61.8523 17.584C61.8523 18.4053 62.0343 19.0353 62.3983 19.474C62.7623 19.9033 63.2523 20.118 63.8683 20.118ZM71.1611 21.126C70.7411 21.126 70.3164 21.0793 69.8871 20.986C69.4671 20.8833 69.0704 20.7107 68.6971 20.468C68.5944 20.4027 68.5198 20.3233 68.4731 20.23C68.4358 20.1273 68.4218 20.0293 68.4311 19.936C68.4498 19.8333 68.4918 19.7447 68.5571 19.67C68.6224 19.5953 68.7018 19.5533 68.7951 19.544C68.8978 19.5253 69.0051 19.5487 69.1171 19.614C69.4811 19.8193 69.8311 19.964 70.1671 20.048C70.5124 20.132 70.8531 20.174 71.1891 20.174C71.7024 20.174 72.0898 20.0807 72.3511 19.894C72.6124 19.7073 72.7431 19.46 72.7431 19.152C72.7431 18.8907 72.6544 18.69 72.4771 18.55C72.3091 18.4007 72.0431 18.2887 71.6791 18.214L70.3771 17.948C69.7984 17.8173 69.3598 17.6027 69.0611 17.304C68.7718 16.996 68.6271 16.604 68.6271 16.128C68.6271 15.708 68.7391 15.344 68.9631 15.036C69.1964 14.7187 69.5184 14.476 69.9291 14.308C70.3398 14.14 70.8111 14.056 71.3431 14.056C71.7538 14.056 72.1411 14.112 72.5051 14.224C72.8784 14.3267 73.2144 14.4853 73.5131 14.7C73.6251 14.7653 73.6951 14.8493 73.7231 14.952C73.7604 15.0453 73.7651 15.1433 73.7371 15.246C73.7184 15.3393 73.6764 15.4187 73.6111 15.484C73.5458 15.5493 73.4618 15.5913 73.3591 15.61C73.2564 15.6193 73.1444 15.5913 73.0231 15.526C72.7524 15.3393 72.4724 15.2087 72.1831 15.134C71.9031 15.05 71.6231 15.008 71.3431 15.008C70.8391 15.008 70.4564 15.106 70.1951 15.302C69.9431 15.498 69.8171 15.7547 69.8171 16.072C69.8171 16.3147 69.8918 16.5153 70.0411 16.674C70.1998 16.8327 70.4471 16.9493 70.7831 17.024L72.0851 17.29C72.6918 17.4207 73.1491 17.6307 73.4571 17.92C73.7651 18.2 73.9191 18.5827 73.9191 19.068C73.9191 19.7027 73.6671 20.2067 73.1631 20.58C72.6684 20.944 72.0011 21.126 71.1611 21.126ZM78.5307 21.126C77.84 21.126 77.2427 20.9813 76.7387 20.692C76.2347 20.3933 75.8474 19.978 75.5767 19.446C75.306 18.9047 75.1707 18.27 75.1707 17.542C75.1707 17.0007 75.2454 16.5153 75.3947 16.086C75.5534 15.6567 75.7774 15.2927 76.0667 14.994C76.356 14.686 76.706 14.4527 77.1167 14.294C77.5367 14.1353 78.008 14.056 78.5307 14.056C78.8574 14.056 79.2027 14.1073 79.5667 14.21C79.9307 14.3127 80.2667 14.4807 80.5747 14.714C80.6774 14.7887 80.7427 14.8773 80.7707 14.98C80.7987 15.0733 80.7987 15.1713 80.7707 15.274C80.752 15.3767 80.7054 15.4653 80.6307 15.54C80.5654 15.6053 80.4767 15.6427 80.3647 15.652C80.262 15.6613 80.15 15.6287 80.0287 15.554C79.8047 15.386 79.5667 15.2647 79.3147 15.19C79.072 15.1153 78.8387 15.078 78.6147 15.078C78.2694 15.078 77.9614 15.134 77.6907 15.246C77.4294 15.358 77.2054 15.5213 77.0187 15.736C76.8414 15.9413 76.706 16.198 76.6127 16.506C76.5194 16.8047 76.4727 17.1547 76.4727 17.556C76.4727 18.3493 76.6594 18.9747 77.0327 19.432C77.406 19.88 77.9334 20.104 78.6147 20.104C78.8387 20.104 79.072 20.0713 79.3147 20.006C79.5574 19.9313 79.7954 19.81 80.0287 19.642C80.15 19.5673 80.262 19.5393 80.3647 19.558C80.4674 19.5673 80.5514 19.6093 80.6167 19.684C80.6914 19.7493 80.738 19.8333 80.7567 19.936C80.7754 20.0293 80.766 20.1273 80.7287 20.23C80.7007 20.3327 80.6354 20.4167 80.5327 20.482C80.234 20.706 79.9074 20.8693 79.5527 20.972C79.198 21.0747 78.8574 21.126 78.5307 21.126ZM82.7425 21.098C82.5278 21.098 82.3645 21.042 82.2525 20.93C82.1405 20.818 82.0845 20.6547 82.0845 20.44V14.728C82.0845 14.5133 82.1405 14.3547 82.2525 14.252C82.3645 14.14 82.5185 14.084 82.7145 14.084C82.9105 14.084 83.0598 14.14 83.1625 14.252C83.2745 14.3547 83.3305 14.5133 83.3305 14.728V15.806H83.1905C83.3398 15.246 83.6198 14.8213 84.0305 14.532C84.4412 14.2427 84.9592 14.0793 85.5845 14.042C85.7338 14.0327 85.8552 14.07 85.9485 14.154C86.0418 14.2287 86.0932 14.3593 86.1025 14.546C86.1118 14.7233 86.0698 14.868 85.9765 14.98C85.8832 15.0827 85.7385 15.1433 85.5425 15.162L85.2905 15.176C84.6745 15.2413 84.1985 15.442 83.8625 15.778C83.5358 16.114 83.3725 16.576 83.3725 17.164V20.44C83.3725 20.6547 83.3165 20.818 83.2045 20.93C83.1018 21.042 82.9478 21.098 82.7425 21.098ZM87.8278 21.07C87.6318 21.07 87.4778 21.0093 87.3658 20.888C87.2538 20.7667 87.1978 20.5987 87.1978 20.384V14.798C87.1978 14.574 87.2538 14.406 87.3658 14.294C87.4778 14.1727 87.6318 14.112 87.8278 14.112C88.0331 14.112 88.1918 14.1727 88.3038 14.294C88.4158 14.406 88.4718 14.574 88.4718 14.798V20.384C88.4718 20.5987 88.4158 20.7667 88.3038 20.888C88.2011 21.0093 88.0424 21.07 87.8278 21.07ZM87.8278 12.6C87.5758 12.6 87.3751 12.5347 87.2258 12.404C87.0858 12.264 87.0158 12.082 87.0158 11.858C87.0158 11.6153 87.0858 11.4333 87.2258 11.312C87.3751 11.1813 87.5758 11.116 87.8278 11.116C88.0984 11.116 88.2991 11.1813 88.4298 11.312C88.5698 11.4333 88.6398 11.6153 88.6398 11.858C88.6398 12.082 88.5698 12.264 88.4298 12.404C88.2991 12.5347 88.0984 12.6 87.8278 12.6ZM94.09 21.126C93.474 21.126 92.9467 20.972 92.508 20.664C92.0694 20.356 91.7754 19.9407 91.626 19.418L91.78 19.208V20.44C91.78 20.6547 91.724 20.818 91.612 20.93C91.5094 21.042 91.3554 21.098 91.15 21.098C90.954 21.098 90.8 21.042 90.688 20.93C90.576 20.818 90.52 20.6547 90.52 20.44V11.676C90.52 11.4613 90.576 11.3027 90.688 11.2C90.8 11.088 90.954 11.032 91.15 11.032C91.3554 11.032 91.514 11.088 91.626 11.2C91.738 11.3027 91.794 11.4613 91.794 11.676V15.722H91.64C91.7894 15.218 92.0834 14.8167 92.522 14.518C92.9607 14.21 93.4834 14.056 94.09 14.056C94.6967 14.056 95.224 14.2007 95.672 14.49C96.1294 14.77 96.4794 15.176 96.722 15.708C96.974 16.2307 97.1 16.856 97.1 17.584C97.1 18.3027 96.974 18.9327 96.722 19.474C96.47 20.006 96.12 20.4167 95.672 20.706C95.224 20.986 94.6967 21.126 94.09 21.126ZM93.796 20.118C94.1974 20.118 94.5474 20.02 94.846 19.824C95.154 19.628 95.392 19.3433 95.56 18.97C95.728 18.5967 95.812 18.1347 95.812 17.584C95.812 16.7627 95.63 16.1373 95.266 15.708C94.902 15.2787 94.412 15.064 93.796 15.064C93.3854 15.064 93.026 15.162 92.718 15.358C92.4194 15.5447 92.186 15.8247 92.018 16.198C91.8594 16.5713 91.78 17.0333 91.78 17.584C91.78 18.4053 91.962 19.0353 92.326 19.474C92.69 19.9033 93.18 20.118 93.796 20.118ZM101.887 21.126C101.15 21.126 100.515 20.986 99.9828 20.706C99.4602 20.4167 99.0542 20.0107 98.7648 19.488C98.4755 18.956 98.3308 18.3307 98.3308 17.612C98.3308 16.9027 98.4708 16.282 98.7508 15.75C99.0402 15.218 99.4322 14.8027 99.9268 14.504C100.431 14.2053 101.005 14.056 101.649 14.056C102.106 14.056 102.517 14.1353 102.881 14.294C103.254 14.4433 103.572 14.6627 103.833 14.952C104.094 15.2413 104.29 15.596 104.421 16.016C104.561 16.4267 104.631 16.8933 104.631 17.416C104.631 17.5653 104.584 17.682 104.491 17.766C104.407 17.8407 104.281 17.878 104.113 17.878H99.3248V17.066H103.791L103.553 17.262C103.553 16.7767 103.478 16.366 103.329 16.03C103.189 15.6847 102.979 15.4233 102.699 15.246C102.428 15.0687 102.088 14.98 101.677 14.98C101.229 14.98 100.846 15.0873 100.529 15.302C100.212 15.5073 99.9688 15.8013 99.8008 16.184C99.6328 16.5573 99.5488 16.9913 99.5488 17.486V17.57C99.5488 18.41 99.7495 19.0447 100.151 19.474C100.552 19.9033 101.131 20.118 101.887 20.118C102.186 20.118 102.489 20.0807 102.797 20.006C103.114 19.9313 103.418 19.796 103.707 19.6C103.847 19.516 103.973 19.4787 104.085 19.488C104.206 19.488 104.304 19.5253 104.379 19.6C104.454 19.6653 104.5 19.7493 104.519 19.852C104.538 19.9453 104.524 20.048 104.477 20.16C104.43 20.272 104.342 20.37 104.211 20.454C103.903 20.6687 103.534 20.8367 103.105 20.958C102.685 21.07 102.279 21.126 101.887 21.126ZM108.819 21.126C108.222 21.126 107.695 20.986 107.237 20.706C106.789 20.4167 106.439 20.006 106.187 19.474C105.935 18.9327 105.809 18.3027 105.809 17.584C105.809 16.856 105.931 16.2307 106.173 15.708C106.425 15.176 106.775 14.77 107.223 14.49C107.681 14.2007 108.213 14.056 108.819 14.056C109.426 14.056 109.949 14.21 110.387 14.518C110.826 14.8167 111.12 15.218 111.269 15.722H111.115V11.676C111.115 11.4613 111.167 11.3027 111.269 11.2C111.381 11.088 111.54 11.032 111.745 11.032C111.951 11.032 112.109 11.088 112.221 11.2C112.333 11.3027 112.389 11.4613 112.389 11.676V20.44C112.389 20.6547 112.333 20.818 112.221 20.93C112.109 21.042 111.951 21.098 111.745 21.098C111.549 21.098 111.395 21.042 111.283 20.93C111.171 20.818 111.115 20.6547 111.115 20.44V19.166L111.269 19.418C111.129 19.9407 110.835 20.356 110.387 20.664C109.949 20.972 109.426 21.126 108.819 21.126ZM109.113 20.118C109.524 20.118 109.879 20.02 110.177 19.824C110.485 19.628 110.719 19.3433 110.877 18.97C111.045 18.5967 111.129 18.1347 111.129 17.584C111.129 16.7627 110.947 16.1373 110.583 15.708C110.219 15.2787 109.729 15.064 109.113 15.064C108.712 15.064 108.357 15.162 108.049 15.358C107.751 15.5447 107.517 15.8247 107.349 16.198C107.181 16.5713 107.097 17.0333 107.097 17.584C107.097 18.4053 107.279 19.0353 107.643 19.474C108.017 19.9033 108.507 20.118 109.113 20.118Z" fill="#F4F4F4"/>
<defs>
<linearGradient id="paint0_linear_3658_18025" x1="25.9876" y1="6.92775" x2="25.9876" y2="17.8481" gradientUnits="userSpaceOnUse">
<stop stop-color="#F7E436"/>
<stop offset="1" stop-color="#CE7C1D"/>
</linearGradient>
<linearGradient id="paint1_linear_3658_18025" x1="16.5311" y1="14.1096" x2="24.3926" y2="15.0778" gradientUnits="userSpaceOnUse">
<stop stop-color="#F7E436"/>
<stop offset="1" stop-color="#CE7C1D"/>
</linearGradient>
<linearGradient id="paint2_linear_3658_18025" x1="16.0655" y1="17.1604" x2="24.3344" y2="16.9298" gradientUnits="userSpaceOnUse">
<stop stop-color="#F7E436"/>
<stop offset="1" stop-color="#CE7C1D"/>
</linearGradient>
<linearGradient id="paint3_linear_3658_18025" x1="16.6215" y1="20.8454" x2="25.3051" y2="19.3766" gradientUnits="userSpaceOnUse">
<stop stop-color="#F7E436"/>
<stop offset="1" stop-color="#CE7C1D"/>
</linearGradient>
<linearGradient id="paint4_linear_3658_18025" x1="35.4675" y1="14.1096" x2="27.606" y2="15.0778" gradientUnits="userSpaceOnUse">
<stop stop-color="#F7E436"/>
<stop offset="1" stop-color="#CE7C1D"/>
</linearGradient>
<linearGradient id="paint5_linear_3658_18025" x1="35.9331" y1="17.1604" x2="27.6643" y2="16.9298" gradientUnits="userSpaceOnUse">
<stop stop-color="#F7E436"/>
<stop offset="1" stop-color="#CE7C1D"/>
</linearGradient>
<linearGradient id="paint6_linear_3658_18025" x1="35.3771" y1="20.8454" x2="26.6935" y2="19.3766" gradientUnits="userSpaceOnUse">
<stop stop-color="#F7E436"/>
<stop offset="1" stop-color="#CE7C1D"/>
</linearGradient>
<linearGradient id="paint7_linear_3658_18025" x1="18.6302" y1="18.1761" x2="33.3737" y2="18.1761" gradientUnits="userSpaceOnUse">
<stop stop-color="#F7E436"/>
<stop offset="1" stop-color="#CE7C1D"/>
</linearGradient>
</defs>
</svg>
