<svg width="22" height="22" viewBox="0 0 22 22" fill="none" xmlns="http://www.w3.org/2000/svg">
<path d="M5.10605 20.8081C2.96105 20.8081 1.14605 18.9931 1.14605 16.8481V11.2014C1.10022 8.52474 2.09022 6.00391 3.94189 4.11557C5.79355 2.23641 8.27772 1.19141 10.9544 1.19141C16.4177 1.19141 20.8544 5.63724 20.8544 11.0914V16.7381C20.8544 18.9197 19.0761 20.6981 16.8944 20.6981C14.7494 20.6981 12.9344 18.8831 12.9344 16.7381V14.1622C12.9344 12.8331 13.9794 11.7881 15.3086 11.7881C16.6377 11.7881 17.6827 12.8331 17.6827 14.1622V16.9397C17.6827 17.3156 17.3711 17.6272 16.9952 17.6272C16.6194 17.6272 16.3077 17.3156 16.3077 16.9397V14.1622C16.3077 13.5389 15.8036 13.1631 15.3086 13.1631C14.6852 13.1631 14.3094 13.6672 14.3094 14.1622V16.7381C14.3094 18.1406 15.4919 19.3231 16.8944 19.3231C18.2969 19.3231 19.4794 18.1406 19.4794 16.7381V11.0914C19.4794 6.38891 15.6569 2.56641 10.9544 2.56641C8.65355 2.56641 6.51772 3.45557 4.92272 5.07807C3.32772 6.70057 2.47522 8.87307 2.52105 11.1831V16.8481C2.52105 18.2506 3.70355 19.4331 5.10605 19.4331C6.50855 19.4331 7.69105 18.2506 7.69105 16.8481V14.2722C7.69105 13.6489 7.18689 13.2731 6.69189 13.2731C6.06855 13.2731 5.69272 13.7772 5.69272 14.2722V16.9489C5.69272 17.3247 5.38105 17.6364 5.00522 17.6364C4.62939 17.6364 4.31772 17.3247 4.31772 16.9489V14.2722C4.31772 12.9431 5.36272 11.8981 6.69189 11.8981C8.02105 11.8981 9.06605 12.9431 9.06605 14.2722V16.8481C9.06605 18.9931 7.25105 20.8081 5.10605 20.8081Z" fill="white"/>
</svg>
