<?xml version="1.0" standalone="no"?>
<!DOCTYPE svg PUBLIC "-//W3C//DTD SVG 20010904//EN"
 "http://www.w3.org/TR/2001/REC-SVG-20010904/DTD/svg10.dtd">
<svg version="1.0" xmlns="http://www.w3.org/2000/svg"
 width="1500.000000pt" height="1000.000000pt" viewBox="0 0 1500.000000 1000.000000"
 preserveAspectRatio="xMidYMid meet">

<g transform="translate(0.000000,1000.000000) scale(0.100000,-0.100000)"
fill="#000000" stroke="none">
<path d="M6955 7770 c-367 -15 -507 -47 -556 -126 -16 -26 -19 -50 -19 -140 0
-60 -9 -207 -20 -328 l-20 -218 -52 -57 c-133 -145 -202 -269 -203 -363 l0
-58 -50 0 c-84 0 -125 -17 -181 -74 -72 -75 -76 -93 -72 -396 3 -278 5 -287
67 -353 52 -56 95 -71 224 -75 64 -2 117 -6 117 -9 0 -3 9 -49 20 -104 51
-249 180 -490 359 -669 l67 -67 -88 -27 c-117 -37 -190 -86 -277 -187 -196
-226 -339 -508 -403 -796 -33 -144 -32 -452 1 -638 27 -155 76 -329 124 -443
30 -69 34 -88 26 -115 -27 -96 3 -199 81 -278 70 -70 132 -94 229 -87 161 12
275 133 275 292 1 85 -24 147 -83 211 -37 40 -39 47 -47 131 -5 49 -8 143 -8
209 1 124 21 325 33 325 4 0 24 -35 45 -77 156 -317 415 -688 597 -857 242
-224 416 -243 638 -71 202 156 432 464 650 870 l78 145 12 -76 c20 -133 24
-303 12 -434 -11 -114 -15 -128 -40 -155 -69 -74 -93 -133 -92 -226 1 -257
324 -386 503 -202 74 77 83 101 84 233 1 106 4 121 34 190 84 198 142 506 142
755 -1 284 -68 529 -220 798 -64 112 -191 285 -263 357 -53 53 -154 107 -252
135 l-58 17 68 71 c128 136 208 253 275 408 40 93 79 229 93 322 l7 47 95 0
c127 0 173 13 233 67 79 71 81 84 78 399 l-3 271 -30 49 c-45 72 -109 108
-200 112 l-72 4 5 43 c9 87 -65 228 -191 362 l-66 69 -17 145 c-9 79 -17 231
-18 336 l-2 193 -34 35 c-40 42 -92 60 -225 80 -208 31 -941 44 -1410 25z
m1186 -100 c187 -15 284 -28 338 -48 53 -20 57 -34 46 -139 -6 -58 -9 -63 -30
-63 -53 0 -105 -47 -105 -95 0 -9 -9 -15 -25 -15 -13 0 -33 -9 -43 -21 -11
-11 -46 -31 -78 -44 -33 -13 -63 -31 -69 -39 -16 -26 7 -50 58 -60 38 -8 57
-5 109 13 56 20 111 38 174 56 20 6 21 2 28 -67 3 -40 9 -94 12 -120 l7 -48
-1063 0 -1062 0 7 63 c4 34 12 126 18 205 l12 143 77 27 c92 31 116 25 148
-37 24 -47 46 -62 78 -50 26 10 28 34 10 121 -11 52 -10 64 10 123 12 36 19
71 16 80 -5 12 11 15 98 18 265 8 1108 6 1229 -3z m389 -312 c0 -40 0 -41 -20
-23 -23 21 -25 36 -8 53 21 21 28 13 28 -30z m-1622 -475 l292 -6 0 -23 c0
-18 7 -23 43 -29 64 -11 106 -34 133 -75 14 -20 36 -43 49 -50 14 -7 27 -21
31 -32 3 -12 15 -18 35 -18 18 0 29 -5 29 -14 0 -15 -29 -20 -186 -31 -44 -3
-143 -16 -220 -30 -388 -69 -493 -85 -632 -95 -161 -10 -229 -6 -276 17 -26
14 -28 18 -23 59 6 55 50 130 146 245 l73 89 107 0 c58 0 238 -3 399 -7z m537
-13 c-8 -13 -35 -13 -55 0 -11 7 -5 10 23 10 23 0 36 -4 32 -10z m1211 -47
c150 -172 201 -293 137 -327 -31 -15 -153 -32 -153 -21 0 4 18 34 41 67 22 33
39 67 37 76 -4 25 -87 64 -123 59 -16 -2 -52 -10 -78 -18 -43 -12 -53 -11 -98
4 -27 10 -54 15 -59 12 -12 -8 -13 -109 -1 -151 l9 -30 -67 9 c-36 4 -159 26
-272 47 -113 21 -254 44 -315 51 -60 7 -111 13 -112 15 -8 6 81 77 120 97 53
27 80 87 61 137 l-11 30 417 0 417 0 50 -57z m-956 -318 c69 -8 220 -32 335
-54 237 -45 443 -71 558 -71 l77 0 0 -96 c0 -86 -2 -95 -17 -90 -276 84 -615
90 -1044 17 -95 -16 -115 -17 -183 -5 -420 73 -760 74 -1014 4 -40 -11 -74
-20 -77 -20 -3 0 -5 42 -5 93 l0 94 138 6 c145 7 294 28 551 77 135 25 221 39
346 53 75 9 221 6 335 -8z m-1520 -475 l0 -300 -96 0 c-92 0 -97 1 -125 29
l-29 29 0 242 0 242 29 29 c28 28 33 29 125 29 l96 0 0 -300z m2865 275 l25
-24 0 -250 0 -249 -31 -26 c-28 -24 -38 -26 -125 -26 l-94 0 0 300 0 300 100
0 c94 0 103 -2 125 -25z m-2670 -304 c-4 -9 -12 -45 -17 -81 -18 -110 29 -288
86 -325 71 -47 529 -180 663 -192 48 -5 68 -2 87 11 36 23 100 109 181 244 59
99 75 117 100 122 64 13 86 -3 143 -105 65 -116 161 -246 196 -264 17 -10 43
-12 83 -8 135 15 555 133 638 180 92 52 137 238 99 408 -5 21 -2 27 15 32 21
5 21 3 21 -206 0 -229 -7 -288 -45 -422 -70 -241 -243 -481 -450 -624 -104
-72 -261 -145 -380 -176 -123 -33 -335 -44 -466 -26 -106 16 -268 69 -373 124
-262 136 -471 382 -566 665 -47 141 -60 241 -60 467 l0 202 26 -5 c18 -3 23
-9 19 -21z m507 -1436 c112 -58 196 -90 328 -123 95 -24 122 -26 295 -26 173
0 200 2 297 26 125 32 258 84 342 134 68 40 86 40 224 3 93 -25 162 -59 206
-104 48 -47 64 -81 78 -162 9 -56 8 -84 -5 -165 -51 -301 -316 -882 -580
-1271 l-80 -118 -19 32 c-24 39 -170 187 -189 190 -30 6 -59 -14 -95 -66 -40
-59 -43 -81 -33 -221 4 -56 1 -65 -35 -124 -45 -73 -42 -90 20 -104 69 -15 69
-15 33 -41 -58 -43 -121 -69 -169 -69 -198 0 -552 418 -838 990 l-61 121 56 7
c103 12 186 64 225 140 26 50 27 127 4 234 -21 98 -20 137 5 190 25 52 85 94
160 113 27 7 49 15 49 18 0 12 -156 109 -194 121 -55 18 -131 7 -214 -29 -39
-17 -80 -31 -92 -31 -42 0 -110 50 -110 81 0 26 55 85 107 116 24 14 42 30 40
36 -2 6 -31 25 -64 43 l-61 32 41 16 c58 21 174 50 226 55 8 0 54 -19 103 -44z
m-667 -490 c19 -95 77 -269 139 -418 l44 -108 -28 -112 c-41 -164 -52 -278
-48 -489 l3 -186 -50 -6 c-27 -3 -71 -16 -98 -29 l-48 -24 -15 36 c-27 62 -83
266 -98 358 -65 372 -33 619 122 946 30 64 57 116 58 114 2 -1 10 -38 19 -82z
m2676 -83 c39 -90 42 -112 14 -112 -7 0 -23 -12 -34 -26 -11 -14 -38 -39 -60
-55 -24 -17 -52 -50 -67 -81 -23 -45 -28 -69 -32 -159 -4 -106 -4 -107 29
-170 42 -79 144 -188 205 -220 l46 -24 -7 -49 c-15 -116 -97 -386 -117 -386
-5 0 -27 9 -50 21 -22 11 -64 23 -92 26 l-51 5 3 202 c3 223 -5 312 -46 473
l-27 108 48 120 c67 167 123 337 138 423 l12 74 24 -39 c12 -21 41 -80 64
-131z m-2514 -1398 c131 -63 98 -264 -47 -289 -32 -5 -51 -2 -88 17 -56 28
-85 73 -85 133 0 114 116 188 220 139z m2394 -6 c110 -61 99 -218 -19 -270
-131 -58 -262 86 -191 212 42 75 135 100 210 58z"/>
<path d="M7028 7404 c-43 -23 -38 -59 12 -84 22 -11 46 -29 52 -40 7 -11 21
-20 30 -20 11 0 19 -11 23 -32 8 -44 26 -65 58 -73 30 -8 34 3 16 37 -9 17 -6
27 19 62 16 22 27 47 25 54 -3 6 2 12 11 12 33 0 14 19 -36 38 -29 11 -73 30
-98 41 -53 24 -75 25 -112 5z"/>
<path d="M7160 5028 c0 -91 68 -162 192 -199 58 -18 86 -21 167 -16 123 6 181
28 247 92 43 42 53 58 58 97 4 27 4 52 1 58 -4 6 -126 10 -336 10 l-329 0 0
-42z"/>
<path d="M7207 3932 c-109 -30 -167 -99 -167 -201 0 -133 148 -443 278 -583
98 -106 177 -132 264 -87 115 59 274 298 352 531 46 135 30 246 -43 297 -68
49 -101 54 -366 58 -217 2 -259 0 -318 -15z m543 -142 c56 -16 64 -25 63 -69
-2 -45 -59 -195 -106 -281 -76 -137 -168 -250 -203 -250 -60 0 -219 236 -288
428 -42 118 -34 155 37 172 48 12 457 11 497 0z"/>
<path d="M8236 3822 c-3 -5 0 -24 6 -43 9 -31 7 -42 -17 -89 -53 -104 -43
-229 18 -254 104 -43 119 -39 138 36 7 29 25 80 41 113 33 70 35 96 11 137
-32 54 -179 128 -197 100z"/>
</g>
</svg>
