<svg width="17" height="16" viewBox="0 0 17 16" fill="none" xmlns="http://www.w3.org/2000/svg">
<path d="M15.6346 6.49967C15.3613 6.49967 15.1346 6.27301 15.1346 5.99967V4.66634C15.1346 2.94634 14.0213 1.83301 12.3013 1.83301H5.6346C3.9146 1.83301 2.80127 2.94634 2.80127 4.66634V5.99967C2.80127 6.27301 2.5746 6.49967 2.30127 6.49967C2.02794 6.49967 1.80127 6.27301 1.80127 5.99967V4.66634C1.80127 2.37301 3.34127 0.833008 5.6346 0.833008H12.3013C14.5946 0.833008 16.1346 2.37301 16.1346 4.66634V5.99967C16.1346 6.27301 15.9079 6.49967 15.6346 6.49967Z" fill="#DCDCDC"/>
<path d="M12.3013 15.1667H5.6346C3.34127 15.1667 1.80127 13.6267 1.80127 11.3333V10C1.80127 9.72667 2.02794 9.5 2.30127 9.5C2.5746 9.5 2.80127 9.72667 2.80127 10V11.3333C2.80127 13.0533 3.9146 14.1667 5.6346 14.1667H12.3013C14.0213 14.1667 15.1346 13.0533 15.1346 11.3333V10C15.1346 9.72667 15.3613 9.5 15.6346 9.5C15.9079 9.5 16.1346 9.72667 16.1346 10V11.3333C16.1346 13.6267 14.5946 15.1667 12.3013 15.1667Z" fill="#DCDCDC"/>
<path d="M8.96793 8.71997C8.88126 8.71997 8.79459 8.69994 8.71459 8.65328L5.18126 6.61328C4.94126 6.47328 4.86126 6.16663 5.00126 5.92663C5.14126 5.68663 5.44793 5.60662 5.68126 5.74662L8.96126 7.6466L12.2213 5.75997C12.4613 5.61997 12.7679 5.70661 12.9013 5.93994C13.0413 6.17994 12.9546 6.48662 12.7213 6.62662L9.21459 8.65328C9.14126 8.69328 9.05459 8.71997 8.96793 8.71997Z" fill="#DCDCDC"/>
<path d="M8.9679 12.3464C8.69456 12.3464 8.4679 12.1197 8.4679 11.8464V8.21973C8.4679 7.94639 8.69456 7.71973 8.9679 7.71973C9.24123 7.71973 9.4679 7.94639 9.4679 8.21973V11.8464C9.4679 12.1197 9.24123 12.3464 8.9679 12.3464Z" fill="#DCDCDC"/>
<path d="M8.96805 12.5005C8.58138 12.5005 8.20138 12.4139 7.89471 12.2472L5.76138 11.0605C5.12138 10.7072 4.62805 9.86053 4.62805 9.12719V6.86718C4.62805 6.14052 5.12805 5.29387 5.76138 4.93387L7.89471 3.74719C8.50805 3.40719 9.42805 3.40719 10.0414 3.74719L12.1747 4.93387C12.8147 5.28721 13.308 6.13385 13.308 6.86718V9.12719C13.308 9.85386 12.808 10.7005 12.1747 11.0605L10.0414 12.2472C9.73472 12.4139 9.35471 12.5005 8.96805 12.5005ZM8.38138 4.62719L6.24805 5.81384C5.92138 5.99384 5.62805 6.50052 5.62805 6.86718V9.12719C5.62805 9.50052 5.92138 10.0005 6.24805 10.1805L8.38138 11.3672C8.68805 11.5338 9.24805 11.5338 9.55472 11.3672L11.688 10.1805C12.0147 10.0005 12.308 9.49386 12.308 9.12719V6.86718C12.308 6.49385 12.0147 5.99384 11.688 5.81384L9.55472 4.62719C9.24805 4.46053 8.68805 4.46053 8.38138 4.62719Z" fill="#DCDCDC"/>
</svg>
