<svg width="24" height="25" viewBox="0 0 24 25" fill="none" xmlns="http://www.w3.org/2000/svg">
<path d="M11.42 19.7504H8.69C6 19.7504 4.75 18.5004 4.75 15.8104V13.0804C4.75 10.4004 6 9.15039 8.69 9.15039H11.42C14.1 9.15039 15.36 10.4004 15.36 13.0904V15.8204C15.35 18.5004 14.1 19.7504 11.42 19.7504ZM8.69 10.6504C6.82 10.6504 6.25 11.2204 6.25 13.0904V15.8204C6.25 17.6904 6.82 18.2604 8.69 18.2604H11.42C13.29 18.2604 13.86 17.6904 13.86 15.8204V13.0904C13.86 11.2204 13.29 10.6504 11.42 10.6504H8.69Z" fill="white"/>
<path d="M15.31 15.85H14.6C14.19 15.85 13.85 15.51 13.85 15.1V13.08C13.85 11.21 13.28 10.64 11.41 10.64H9.39999C8.98999 10.64 8.64999 10.3 8.64999 9.89V9.19C8.64999 6.51 9.89999 5.25 12.59 5.25H15.32C18 5.25 19.26 6.5 19.26 9.19V11.92C19.25 14.6 18 15.85 15.31 15.85ZM10.15 9.15H11.42C14.1 9.15 15.36 10.4 15.36 13.09V14.36C17.2 14.35 17.76 13.78 17.76 11.92V9.19C17.76 7.32 17.19 6.75 15.32 6.75H12.59C10.73 6.75 10.16 7.31 10.15 9.15Z" fill="white"/>
<path d="M15 23.2502C14.73 23.2502 14.48 23.1002 14.35 22.8702C14.22 22.6302 14.22 22.3502 14.36 22.1102L15.41 20.3602C15.62 20.0002 16.08 19.8902 16.44 20.1002C16.8 20.3102 16.91 20.7702 16.7 21.1302L16.43 21.5802C19.19 20.9302 21.26 18.4502 21.26 15.4902C21.26 15.0802 21.6 14.7402 22.01 14.7402C22.42 14.7402 22.76 15.0802 22.76 15.4902C22.75 19.7702 19.27 23.2502 15 23.2502Z" fill="white"/>
<path d="M2 10.25C1.59 10.25 1.25 9.91 1.25 9.5C1.25 5.23 4.73 1.75 9 1.75C9.27 1.75 9.52 1.9 9.65 2.13C9.78 2.37 9.78 2.65 9.64 2.89L8.59 4.64C8.38 4.99 7.92 5.11 7.56 4.89C7.21 4.68 7.09 4.22 7.31 3.86L7.58 3.41C4.81 4.06 2.75 6.54 2.75 9.5C2.75 9.91 2.41 10.25 2 10.25Z" fill="white"/>
</svg>
